# Blender v2.92.0 OBJ File: 'airShipStuff.blend'
# www.blender.org
mtllib carDisplay.mtl
o Cube.009_Cube.014
v 0.242249 1.539907 -0.242249
v 0.242249 -0.242249 -0.242249
v 0.242249 0.242249 -0.242249
v 0.567858 1.539907 -0.499438
v 0.524815 1.857035 -0.390125
v 0.242249 1.857035 -0.390125
v 0.922930 1.539907 -0.242249
v 0.242249 1.539907 -0.499438
v 0.801117 1.955722 -0.190017
v 0.242249 1.539907 0.242249
v 0.242249 -0.242249 0.242249
v 0.242249 0.242249 0.242249
v 0.567858 1.539907 0.499438
v 0.524810 2.240823 0.390125
v 0.242249 2.240823 0.390125
v 0.922930 1.539907 0.242249
v 0.242249 1.539907 0.499438
v 0.801117 2.142025 0.190023
v 0.242249 -0.242249 0.000000
v 0.242249 0.242249 0.000000
v 0.242249 1.539907 0.000000
v 0.922930 1.539907 0.000000
v 0.801117 2.047611 0.000000
v -0.242249 1.539907 -0.242249
v 0.000000 1.539907 -0.242249
v -0.242249 -0.242249 -0.242249
v -0.242249 0.242249 -0.242249
v 0.000000 -0.242249 -0.242249
v 0.000000 0.242249 -0.242249
v -0.567858 1.539907 -0.499438
v -0.524815 1.857035 -0.390125
v -0.242249 1.857035 -0.390125
v 0.000000 1.857035 -0.390125
v -0.922930 1.539907 -0.242249
v -0.242249 1.539907 -0.499438
v -0.801117 1.955722 -0.190017
v 0.000000 1.539907 -0.499438
v -0.242249 1.539907 0.242249
v 0.000000 1.539907 0.242249
v -0.242249 -0.242249 0.242249
v -0.242249 0.242249 0.242249
v 0.000000 -0.242249 0.242249
v 0.000000 0.242249 0.242249
v -0.567858 1.539907 0.499438
v -0.524810 2.240823 0.390125
v -0.242249 2.240823 0.390125
v 0.000000 2.240823 0.390125
v -0.922930 1.539907 0.242249
v -0.242249 1.539907 0.499438
v -0.801117 2.142025 0.190023
v 0.000000 1.539907 0.499438
v 0.000000 1.539907 0.000000
v -0.242249 -0.242249 0.000000
v -0.242249 0.242249 0.000000
v -0.242249 1.539907 0.000000
v 0.000000 0.242249 0.000000
v 0.000000 -0.242249 0.000000
v -0.922930 1.539907 0.000000
v -0.801117 2.047611 -0.000000
v 0.922930 1.930040 -0.242249
v 0.567858 1.803285 -0.499438
v 0.242249 1.803285 -0.499438
v 0.000000 1.803285 -0.499438
v 0.922930 2.047611 0.000000
v 0.922930 2.167704 0.242249
v 0.567858 2.294573 0.499438
v 0.242249 2.294573 0.499438
v 0.000000 2.294573 0.499438
v -0.922930 1.930040 -0.242249
v -0.567858 1.803285 -0.499438
v -0.242249 1.803285 -0.499438
v -0.922930 2.047611 0.000000
v -0.922930 2.167704 0.242249
v -0.567858 2.294573 0.499438
v -0.242249 2.294573 0.499438
v 0.801117 1.945509 -0.184995
v 0.524815 1.846822 -0.385103
v 0.242249 1.846822 -0.385103
v -0.000000 1.846822 -0.385103
v 0.801117 2.037398 0.005022
v 0.801117 2.131811 0.195045
v 0.524810 2.230610 0.395147
v 0.242249 2.230610 0.395147
v -0.000000 2.230610 0.395147
v -0.801117 1.945509 -0.184995
v -0.524815 1.846822 -0.385103
v -0.242249 1.846822 -0.385103
v -0.801117 2.037398 0.005022
v -0.801117 2.131811 0.195045
v -0.524810 2.230610 0.395147
v -0.242249 2.230610 0.395147
vt 0.936298 0.543501
vt 0.936298 0.551526
vt 0.927202 0.551526
vt 0.927202 0.543501
vt 0.936298 0.573021
vt 0.927202 0.573021
vt 0.931662 0.621854
vt 0.940758 0.621854
vt 0.940758 0.670579
vt 0.931662 0.670579
vt 0.866704 0.569059
vt 0.866704 0.578156
vt 0.857047 0.578156
vt 0.857047 0.569059
vt 0.866704 0.543501
vt 0.857047 0.556833
vt 0.865463 0.659412
vt 0.865463 0.650316
vt 0.880112 0.650316
vt 0.884527 0.659412
vt 0.875800 0.569059
vt 0.875800 0.543501
vt 0.865463 0.640659
vt 0.875353 0.640659
vt 0.810887 0.587252
vt 0.815249 0.587252
vt 0.815249 0.599478
vt 0.810887 0.599478
vt 0.810887 0.578156
vt 0.815249 0.578156
vt 0.936298 0.573021
vt 0.945394 0.573021
vt 0.945394 0.582117
vt 0.936298 0.582117
vt 0.940758 0.603662
vt 0.931662 0.603662
vt 0.838175 0.612810
vt 0.847271 0.612810
vt 0.847271 0.630795
vt 0.838175 0.630795
vt 0.847271 0.678964
vt 0.838175 0.678964
vt 0.922566 0.670579
vt 0.922566 0.621854
vt 0.884896 0.569059
vt 0.894553 0.569059
vt 0.894553 0.578156
vt 0.884896 0.578156
vt 0.884896 0.543501
vt 0.894553 0.556833
vt 0.889036 0.668508
vt 0.865463 0.668508
vt 0.919311 0.603662
vt 0.922566 0.616995
vt 0.894553 0.616995
vt 0.896007 0.603662
vt 0.894553 0.629221
vt 0.922566 0.629221
vt 0.922566 0.638317
vt 0.894553 0.638317
vt 0.936298 0.591213
vt 0.945394 0.591213
vt 0.922566 0.603662
vt 0.945394 0.543501
vt 0.945394 0.551526
vt 0.945394 0.573021
vt 0.819983 0.631002
vt 0.819983 0.679727
vt 0.810887 0.679727
vt 0.810887 0.631002
vt 0.866704 0.587252
vt 0.857047 0.587252
vt 0.866704 0.612810
vt 0.857047 0.599478
vt 0.889036 0.631563
vt 0.869972 0.631563
vt 0.874387 0.622467
vt 0.889036 0.622467
vt 0.875800 0.587252
vt 0.875800 0.612810
vt 0.879146 0.612810
vt 0.889036 0.612810
vt 0.810887 0.569059
vt 0.810887 0.556833
vt 0.815249 0.556833
vt 0.815249 0.569059
vt 0.927202 0.582117
vt 0.927202 0.573021
vt 0.865463 0.612810
vt 0.865463 0.661535
vt 0.856367 0.661535
vt 0.856367 0.612810
vt 0.810887 0.612810
vt 0.819983 0.612810
vt 0.829079 0.630795
vt 0.829079 0.612810
vt 0.829079 0.678964
vt 0.829079 0.631002
vt 0.829079 0.679727
vt 0.884896 0.587252
vt 0.894553 0.587252
vt 0.884896 0.612810
vt 0.894553 0.599478
vt 0.889036 0.640659
vt 0.865463 0.640659
vt 0.919311 0.672971
vt 0.896007 0.672971
vt 0.894553 0.659639
vt 0.922566 0.659639
vt 0.894553 0.647413
vt 0.922566 0.647413
vt 0.927202 0.591213
vt 0.847271 0.612810
vt 0.847271 0.661535
vt 0.889036 0.672971
vt 0.891568 0.662597
vt 0.891976 0.662597
vt 0.889444 0.672971
vt 0.819823 0.597862
vt 0.828201 0.608236
vt 0.826015 0.612810
vt 0.819823 0.587252
vt 0.819823 0.578156
vt 0.836126 0.608236
vt 0.836126 0.612810
vt 0.844093 0.608236
vt 0.852473 0.597861
vt 0.857047 0.599478
vt 0.846278 0.612810
vt 0.852473 0.587252
vt 0.857047 0.587252
vt 0.852473 0.578156
vt 0.857047 0.578156
vt 0.828201 0.548075
vt 0.819823 0.558450
vt 0.826015 0.543501
vt 0.819823 0.569059
vt 0.836126 0.548075
vt 0.836126 0.543501
vt 0.852473 0.558450
vt 0.844093 0.548075
vt 0.846278 0.543501
vt 0.857047 0.556833
vt 0.852473 0.569059
vt 0.857047 0.569059
vt 0.671325 0.126920
vt 0.671325 0.117824
vt 0.671325 0.108728
vt 0.671325 0.098118
vt 0.679702 0.087743
vt 0.687627 0.087743
vt 0.695595 0.087743
vt 0.703974 0.098118
vt 0.703974 0.108728
vt 0.703974 0.117824
vt 0.703974 0.126920
vt 0.703974 0.137530
vt 0.695595 0.147905
vt 0.687627 0.147905
vt 0.679702 0.147905
vt 0.671325 0.137530
vt 0.892403 0.620735
vt 0.892438 0.628702
vt 0.892010 0.628703
vt 0.891976 0.620735
vt 0.891568 0.623185
vt 0.889036 0.612810
vt 0.889444 0.612810
vt 0.891976 0.623185
vt 0.891568 0.651987
vt 0.891976 0.651987
vt 0.891568 0.633795
vt 0.891976 0.633795
vt 0.891568 0.642891
vt 0.891976 0.642891
vt 0.892880 0.629157
vt 0.892931 0.637082
vt 0.892503 0.637082
vt 0.892453 0.629157
vt 0.892453 0.612810
vt 0.892026 0.612810
vt 0.892931 0.612810
vt 0.892915 0.621190
vt 0.892488 0.621190
vt 0.892503 0.612810
vt 0.892453 0.637082
vt 0.892026 0.637082
vt 0.893119 0.641612
vt 0.893119 0.652222
vt 0.892931 0.652222
vt 0.892931 0.641612
vt 0.893119 0.612810
vt 0.893119 0.623420
vt 0.892931 0.623420
vt 0.892931 0.612810
vt 0.893119 0.632516
vt 0.892931 0.632516
vn 0.0000 0.0000 -1.0000
vn 1.0000 0.0000 0.0000
vn 0.0000 -1.0000 0.0000
vn 0.5866 0.0000 -0.8099
vn 0.0000 0.0000 1.0000
vn 0.5866 0.0000 0.8099
vn -1.0000 0.0000 0.0000
vn -0.5866 0.0000 -0.8099
vn -0.5866 0.0000 0.8099
vn -0.6283 0.3433 0.6982
vn -0.0005 0.8972 -0.4416
vn 0.0000 0.8974 -0.4413
vn 0.0000 0.8974 -0.4412
vn 0.0014 0.8999 -0.4361
vn 0.0007 0.8971 -0.4418
vn 0.0009 0.8958 -0.4445
vn 0.0005 0.8972 -0.4416
vn -0.0014 0.8999 -0.4361
vn -0.0007 0.8971 -0.4418
vn -0.0009 0.8958 -0.4445
vn 0.6283 0.3433 0.6982
vn 0.0000 0.4413 0.8974
vn -0.6283 -0.3433 -0.6981
vn 0.6283 -0.3433 -0.6981
vn 0.0000 -0.4413 -0.8974
usemtl Material.025
s off
f 28/1/1 29/2/1 3/3/1 2/4/1
f 3/3/1 29/2/1 25/5/1 1/6/1
f 20/7/2 3/8/2 1/9/2 21/10/2
f 1/11/3 25/12/3 37/13/3 8/14/3
f 7/15/3 1/11/3 8/14/3 4/16/3
f 22/17/2 7/18/2 60/19/2 64/20/2
f 21/21/3 1/11/3 7/15/3 22/22/3
f 60/19/4 7/18/4 4/23/4 61/24/4
f 8/25/1 62/26/1 61/27/1 4/28/1
f 8/25/1 37/29/1 63/30/1 62/26/1
f 28/31/3 2/32/3 19/33/3 57/34/3
f 2/35/2 3/8/2 20/7/2 19/36/2
f 42/37/5 11/38/5 12/39/5 43/40/5
f 12/39/5 10/41/5 39/42/5 43/40/5
f 20/7/2 21/10/2 10/43/2 12/44/2
f 10/45/3 17/46/3 51/47/3 39/48/3
f 16/49/3 13/50/3 17/46/3 10/45/3
f 22/17/2 64/20/2 65/51/2 16/52/2
f 21/21/3 22/22/3 16/49/3 10/45/3
f 65/53/6 66/54/6 13/55/6 16/56/6
f 17/57/5 13/55/5 66/54/5 67/58/5
f 17/57/5 67/58/5 68/59/5 51/60/5
f 42/61/3 57/34/3 19/33/3 11/62/3
f 11/63/2 19/36/2 20/7/2 12/44/2
f 28/1/1 26/64/1 27/65/1 29/2/1
f 27/65/1 24/66/1 25/5/1 29/2/1
f 54/67/7 55/68/7 24/69/7 27/70/7
f 24/71/3 35/72/3 37/13/3 25/12/3
f 34/73/3 30/74/3 35/72/3 24/71/3
f 58/75/7 72/76/7 69/77/7 34/78/7
f 55/79/3 58/80/3 34/73/3 24/71/3
f 69/77/8 70/81/8 30/82/8 34/78/8
f 35/83/1 30/84/1 70/85/1 71/86/1
f 35/83/1 71/86/1 63/30/1 37/29/1
f 28/31/3 57/34/3 53/87/3 26/88/3
f 29/89/2 25/90/2 52/91/2 56/92/2
f 26/93/7 53/94/7 54/67/7 27/70/7
f 42/37/5 43/40/5 41/95/5 40/96/5
f 41/95/5 43/40/5 39/42/5 38/97/5
f 54/67/7 41/98/7 38/99/7 55/68/7
f 38/100/3 39/48/3 51/47/3 49/101/3
f 48/102/3 38/100/3 49/101/3 44/103/3
f 58/75/7 48/104/7 73/105/7 72/76/7
f 55/79/3 38/100/3 48/102/3 58/80/3
f 73/106/9 48/107/9 44/108/9 74/109/9
f 49/110/5 75/111/5 74/109/5 44/108/5
f 49/110/5 51/60/5 68/59/5 75/111/5
f 42/61/3 40/112/3 53/87/3 57/34/3
f 43/113/2 56/92/2 52/91/2 39/114/2
f 40/96/7 41/98/7 54/67/7 53/94/7
f 9/115/10 5/116/10 77/117/10 76/118/10
f 5/119/11 9/120/11 60/121/11 61/27/11
f 6/122/12 5/119/12 61/27/12 62/26/12
f 33/123/13 6/122/13 62/26/13 63/30/13
f 9/120/14 23/124/14 64/125/14 60/121/14
f 18/126/15 14/127/15 66/128/15 65/129/15
f 14/127/13 15/130/13 67/131/13 66/128/13
f 15/130/12 47/132/12 68/133/12 67/131/12
f 23/124/16 18/126/16 65/129/16 64/125/16
f 36/134/17 31/135/17 70/85/17 69/136/17
f 31/135/12 32/137/12 71/86/12 70/85/12
f 32/137/13 33/123/13 63/30/13 71/86/13
f 59/138/18 36/134/18 69/136/18 72/139/18
f 45/140/19 50/141/19 73/142/19 74/143/19
f 46/144/13 45/140/13 74/143/13 75/145/13
f 47/132/12 46/144/12 75/145/12 68/133/12
f 50/141/20 59/138/20 72/139/20 73/142/20
f 78/146/12 79/147/12 87/148/12 86/149/12 85/150/12 88/151/12 89/152/12 90/153/12 91/154/12 84/155/12 83/156/12 82/157/12 81/158/12 80/159/12 76/160/12 77/161/12
f 59/162/2 50/163/2 89/164/2 88/165/2
f 31/166/21 36/167/21 85/168/21 86/169/21
f 5/116/22 6/170/22 78/171/22 77/117/22
f 32/172/22 31/166/22 86/169/22 87/173/22
f 6/170/22 33/174/22 79/175/22 78/171/22
f 33/174/22 32/172/22 87/173/22 79/175/22
f 23/176/7 9/177/7 76/178/7 80/179/7
f 36/180/2 59/162/2 88/165/2 85/181/2
f 14/182/23 18/183/23 81/184/23 82/185/23
f 50/163/24 45/186/24 90/187/24 89/164/24
f 15/188/25 14/189/25 82/190/25 83/191/25
f 45/192/25 46/193/25 91/194/25 90/195/25
f 47/196/25 15/188/25 83/191/25 84/197/25
f 46/193/25 47/196/25 84/197/25 91/194/25
f 18/183/7 23/176/7 80/179/7 81/184/7
