# Blender v2.92.0 OBJ File: 'airShipStuff.blend'
# www.blender.org
mtllib wheel.mtl
o Cube.005_Cube.010
v -0.068860 0.000000 -0.207134
v -0.068860 -0.146466 -0.146466
v 0.082487 -0.000000 -0.130994
v -0.068860 0.146466 -0.146466
v -0.068860 0.207134 0.000000
v 0.082487 0.102592 -0.078479
v 0.082487 0.128896 0.000000
v 0.082487 0.102592 0.078479
v 0.082487 0.000000 0.130994
v -0.068860 0.146466 0.146466
v -0.068860 0.000000 0.207134
v -0.068860 -0.146466 0.146466
v -0.068860 -0.207134 0.000000
v 0.082487 -0.102592 0.078479
v 0.082487 -0.128896 0.000000
v 0.082487 -0.102592 -0.078479
v 0.082487 0.146466 -0.146466
v 0.082487 0.207134 0.000000
v 0.082487 -0.000000 -0.207134
v 0.082487 0.146466 0.146466
v 0.082487 0.000000 0.207134
v 0.082487 -0.146466 0.146466
v 0.082487 -0.207134 0.000000
v 0.082487 -0.146466 -0.146466
v 0.038619 0.102592 -0.078479
v 0.038619 0.128896 0.000000
v 0.038619 -0.000000 -0.130994
v 0.038619 0.102592 0.078479
v 0.038619 0.000000 0.130994
v 0.038619 -0.102592 0.078479
v 0.038619 -0.128896 0.000000
v 0.038619 -0.102592 -0.078479
vt 0.687386 0.119269
vt 0.678392 0.155742
vt 0.665674 0.169756
vt 0.656681 0.153104
vt 0.656681 0.115540
vt 0.665674 0.079068
vt 0.678392 0.065053
vt 0.687386 0.081705
vt 0.728243 0.172531
vt 0.706730 0.172531
vt 0.706730 0.137582
vt 0.728243 0.137582
vt 0.728243 0.083842
vt 0.749756 0.083842
vt 0.749756 0.118792
vt 0.728243 0.118792
vt 0.728243 0.065053
vt 0.749756 0.065053
vt 0.749756 0.073732
vt 0.749756 0.065053
vt 0.755992 0.065053
vt 0.755992 0.073732
vt 0.728243 0.153741
vt 0.749756 0.153741
vt 0.749756 0.172531
vt 0.728243 0.172531
vt 0.728243 0.118792
vt 0.749756 0.118792
vt 0.706730 0.083842
vt 0.728243 0.083842
vt 0.728243 0.118792
vt 0.706730 0.118792
vt 0.706730 0.065053
vt 0.728243 0.065053
vt 0.706730 0.118792
vt 0.728243 0.118792
vt 0.645286 0.084827
vt 0.638662 0.090769
vt 0.634970 0.079068
vt 0.647688 0.065053
vt 0.631620 0.116225
vt 0.625977 0.115540
vt 0.650295 0.092182
vt 0.656681 0.081705
vt 0.651038 0.118584
vt 0.656681 0.119269
vt 0.637372 0.149982
vt 0.643996 0.144041
vt 0.647688 0.155742
vt 0.634970 0.169756
vt 0.632362 0.142627
vt 0.625977 0.153104
vt 0.695141 0.124207
vt 0.687386 0.098958
vt 0.687386 0.072545
vt 0.692186 0.065053
vt 0.698975 0.070806
vt 0.706730 0.096054
vt 0.706730 0.122467
vt 0.701929 0.129960
vt 0.699857 0.154796
vt 0.699857 0.129960
vt 0.706093 0.129960
vt 0.706093 0.154796
vt 0.693621 0.163475
vt 0.693621 0.138639
vt 0.699857 0.138639
vt 0.699857 0.163475
vt 0.687386 0.154796
vt 0.687386 0.129960
vt 0.693621 0.129960
vt 0.693621 0.154796
vt 0.749756 0.098568
vt 0.755992 0.098568
vt 0.699857 0.163475
vt 0.706093 0.163475
vt 0.693621 0.129960
vt 0.699857 0.129960
vt 0.687386 0.163475
vt 0.693621 0.163475
vn -1.0000 -0.0000 0.0000
vn -0.0000 -0.3827 -0.9239
vn 0.0000 0.3827 -0.9239
vn 0.0000 0.9239 -0.3827
vn 0.0000 -0.9482 0.3178
vn 0.0000 0.9239 0.3827
vn 0.0000 0.3827 0.9239
vn -0.0000 -0.3827 0.9239
vn -0.0000 -0.9239 0.3827
vn -0.0000 -0.9239 -0.3827
vn 1.0000 0.0000 0.0000
vn 0.0000 0.4557 0.8902
vn 0.0000 0.4557 -0.8902
vn 0.0000 -0.4557 -0.8902
vn 0.0000 -0.4557 0.8902
vn 0.0000 0.9482 0.3178
vn 0.0000 0.9482 -0.3178
vn 0.0000 -0.9482 -0.3178
usemtl Material.024
s off
f 1/1/1 2/2/1 13/3/1 12/4/1 11/5/1 10/6/1 5/7/1 4/8/1
f 1/9/2 19/10/2 24/11/2 2/12/2
f 4/13/3 17/14/3 19/15/3 1/16/3
f 5/17/4 18/18/4 17/14/4 4/13/4
f 6/19/5 7/20/5 26/21/5 25/22/5
f 10/23/6 20/24/6 18/25/6 5/26/6
f 11/27/7 21/28/7 20/24/7 10/23/7
f 12/29/8 22/30/8 21/31/8 11/32/8
f 13/33/9 23/34/9 22/30/9 12/29/9
f 2/12/10 24/11/10 23/35/10 13/36/10
f 7/37/11 6/38/11 17/39/11 18/40/11
f 6/38/11 3/41/11 19/42/11 17/39/11
f 8/43/11 7/37/11 18/40/11 20/44/11
f 9/45/11 8/43/11 20/44/11 21/46/11
f 15/47/11 14/48/11 22/49/11 23/50/11
f 14/48/11 9/45/11 21/46/11 22/49/11
f 16/51/11 15/47/11 23/50/11 24/52/11
f 3/41/11 16/51/11 24/52/11 19/42/11
f 32/53/11 27/54/11 25/55/11 26/56/11 28/57/11 29/58/11 30/59/11 31/60/11
f 16/61/12 3/62/12 27/63/12 32/64/12
f 9/65/13 14/66/13 30/67/13 29/68/13
f 8/69/14 9/70/14 29/71/14 28/72/14
f 3/73/15 6/19/15 25/22/15 27/74/15
f 15/75/16 16/61/16 32/64/16 31/76/16
f 14/66/17 15/77/17 31/78/17 30/67/17
f 7/79/18 8/69/18 28/72/18 26/80/18
