# Blender v2.92.0 OBJ File: 'airShipStuff.blend'
# www.blender.org
mtllib chair.mtl
o Cube.009_Cube.030
v -1.225686 -11.831956 14.611841
v -1.227423 -11.679998 14.615957
v -0.744360 -11.831956 13.470940
v -0.744360 -11.679998 13.470940
v -0.074527 -11.831956 15.097494
v -0.076264 -11.679998 15.101610
v 0.406798 -11.831956 13.956593
v 0.406798 -11.679998 13.956593
v -0.858423 -11.831956 13.741305
v -0.973122 -11.831956 14.013179
v -1.103691 -11.831956 14.322671
v -1.105374 -11.679998 14.326662
v -0.973691 -11.679998 14.014530
v -0.858423 -11.679998 13.741305
v 0.047468 -11.831956 14.808324
v 0.178037 -11.831956 14.498832
v 0.292736 -11.831956 14.226958
v 0.292736 -11.679998 14.226958
v 0.177467 -11.679998 14.500183
v 0.045784 -11.679998 14.812315
v 0.153231 -11.831956 13.914774
v -0.089125 -11.831956 13.846381
v -0.319356 -11.831956 13.749250
v -0.537464 -11.831956 13.623383
v -0.537464 -11.679998 13.623383
v -0.319356 -11.679998 13.749250
v -0.089125 -11.679998 13.846381
v 0.153231 -11.679998 13.914774
v -1.014408 -11.831956 14.753899
v -0.793640 -11.831956 14.873461
v -0.563408 -11.831956 14.970592
v -0.323713 -11.831956 15.045290
v -0.326970 -11.679998 15.053010
v -0.567544 -11.679998 14.980392
v -0.797775 -11.679998 14.883263
v -1.017665 -11.679998 14.761619
v -0.644952 -11.679998 13.878164
v -0.423099 -11.679998 13.995155
v -0.192867 -11.679998 14.092286
v 0.045743 -11.679998 14.169556
v -0.754285 -11.679998 14.137320
v -0.530556 -11.679998 14.249865
v -0.300324 -11.679998 14.346995
v -0.063590 -11.679998 14.428711
v -0.895063 -11.679998 14.471012
v -0.674839 -11.679998 14.591862
v -0.444607 -11.679998 14.688993
v -0.204368 -11.679998 14.762403
v 0.045743 -11.831956 14.169556
v -0.192867 -11.831956 14.092286
v -0.423099 -11.831956 13.995155
v -0.644952 -11.831956 13.878164
v -0.062153 -11.831956 14.425306
v -0.298596 -11.831956 14.342899
v -0.528828 -11.831956 14.245770
v -0.752849 -11.831956 14.133915
v -0.201200 -11.831956 14.754895
v -0.440621 -11.831956 14.679544
v -0.670853 -11.831956 14.582415
v -0.891896 -11.831956 14.463504
v -1.089136 -11.831956 14.400424
v -1.168612 -11.831956 14.588809
v -0.594591 -11.831956 13.646538
v -0.729079 -11.831956 13.546968
v 0.268510 -11.831956 14.172129
v 0.341676 -11.831956 13.998701
v -0.260834 -11.831956 15.008498
v -0.097857 -11.831956 15.040541
v -0.802245 -11.831956 13.720396
v -0.018382 -11.831956 14.852156
v -0.664858 -11.831956 13.813094
v -0.952229 -11.831956 14.494259
v 0.176508 -11.831956 13.971850
v -1.031933 -11.831956 14.683186
v 0.106241 -11.831956 14.138407
v -0.181129 -11.831956 14.819571
v -1.082929 -12.124791 14.354504
v -1.173964 -12.124791 14.570287
v -0.567094 -12.124791 13.612570
v -0.726032 -12.124791 13.508538
v 0.280868 -12.124791 14.174044
v 0.367076 -12.124791 13.969700
v -0.260832 -12.124791 14.977285
v -0.080856 -12.124791 15.031448
v -0.812241 -12.124791 13.712882
v 0.010179 -12.124791 14.815666
v -0.650205 -12.124791 13.809570
v -0.918331 -12.124791 14.445118
v 0.181652 -12.124791 13.928452
v -1.009578 -12.124791 14.661404
v 0.098541 -12.124791 14.125452
v -0.169585 -12.124791 14.761001
v -1.079576 -12.488931 14.346556
v -1.170376 -12.488931 14.561782
v -0.544305 -12.488931 13.558552
v -0.715336 -12.488931 13.483187
v 0.286972 -12.488931 14.159575
v 0.377772 -12.488931 13.944349
v -0.249449 -12.488931 14.950304
v -0.077268 -12.488931 15.022943
v -0.806136 -12.488931 13.698412
v 0.013532 -12.488931 14.807718
v -0.634064 -12.488931 13.771311
v -0.907395 -12.488931 14.419195
v 0.204441 -12.488931 13.874434
v -0.998195 -12.488931 14.634422
v 0.114682 -12.488931 14.087193
v -0.158649 -12.488931 14.735078
v -1.171623 -11.831956 14.483694
v -0.022334 -11.679998 14.973779
v -1.173493 -11.679998 14.488126
v -0.020464 -11.831956 14.969347
v -0.274488 -11.679998 14.928612
v -0.516109 -11.679998 14.858478
v -0.746341 -11.679998 14.761347
v -0.965184 -11.679998 14.637220
v -0.961686 -11.831956 14.628930
v -0.741686 -11.831956 14.750313
v -0.511454 -11.831956 14.847443
v -0.270991 -11.831956 14.920321
v -1.133126 -11.831956 14.504695
v -0.062371 -11.831956 14.956427
v -0.996789 -11.831956 14.599881
v -0.225689 -11.831956 14.925194
v -1.132818 -12.124791 14.472756
v -0.039710 -12.124791 14.933918
v -0.968807 -12.124791 14.564762
v -0.220061 -12.124791 14.880644
v -1.128800 -12.488931 14.463232
v -0.035692 -12.488931 14.924395
v -0.956619 -12.488931 14.535872
v -0.207873 -12.488931 14.851754
v -0.015055 -10.442885 14.956525
v -0.069548 -10.442885 15.085691
v -1.015917 -10.230561 14.757474
v -1.220707 -10.442885 14.600039
v -0.325222 -10.230561 15.048865
v -0.567544 -10.120247 14.980392
v -0.797775 -10.120247 14.883263
v -0.272609 -10.230561 14.924158
v -0.516109 -10.120247 14.858478
v -0.746341 -10.120247 14.761347
v -0.963305 -10.230561 14.632767
v -1.166214 -10.442885 14.470872
vt 0.058535 0.574770
vt 0.056435 0.563279
vt 0.058590 0.563304
vt 0.091191 0.589083
vt 0.083850 0.591950
vt 0.083852 0.589083
vt 0.073634 0.681083
vt 0.074675 0.692536
vt 0.073654 0.692548
vt 0.049041 0.563282
vt 0.047206 0.574748
vt 0.047206 0.563279
vt 0.085573 0.563279
vt 0.084226 0.563780
vt 0.083850 0.563279
vt 0.052710 0.574751
vt 0.054545 0.684139
vt 0.052710 0.692466
vt 0.084202 0.594817
vt 0.085573 0.591950
vt 0.085827 0.594817
vt 0.087315 0.591950
vt 0.087479 0.594817
vt 0.089306 0.591950
vt 0.089607 0.594817
vt 0.091124 0.577615
vt 0.091068 0.575248
vt 0.091410 0.574748
vt 0.085827 0.566146
vt 0.087307 0.563279
vt 0.087457 0.566146
vt 0.089280 0.563279
vt 0.089559 0.566146
vt 0.065528 0.681177
vt 0.067737 0.692617
vt 0.065582 0.692642
vt 0.067682 0.681152
vt 0.069904 0.692592
vt 0.069860 0.681126
vt 0.072370 0.692563
vt 0.064506 0.563373
vt 0.063200 0.574824
vt 0.063223 0.563358
vt 0.060713 0.574795
vt 0.060756 0.563330
vt 0.087457 0.574748
vt 0.089280 0.577615
vt 0.087307 0.577615
vt 0.087551 0.571881
vt 0.089559 0.574748
vt 0.087551 0.569014
vt 0.089698 0.571881
vt 0.089698 0.569014
vt 0.085827 0.574748
vt 0.085573 0.577615
vt 0.085953 0.571881
vt 0.085953 0.569014
vt 0.089668 0.577114
vt 0.084385 0.571881
vt 0.084202 0.574748
vt 0.084385 0.569014
vt 0.087479 0.603419
vt 0.089306 0.606286
vt 0.087315 0.606286
vt 0.087577 0.600552
vt 0.089607 0.603419
vt 0.087577 0.597684
vt 0.089758 0.600552
vt 0.089758 0.597684
vt 0.085827 0.603419
vt 0.085573 0.606286
vt 0.085953 0.600552
vt 0.085953 0.597684
vt 0.084202 0.603419
vt 0.083850 0.606286
vt 0.084385 0.600552
vt 0.084385 0.597684
vt 0.074082 0.587732
vt 0.074653 0.681071
vt 0.076510 0.563283
vt 0.074675 0.656642
vt 0.074675 0.563279
vt 0.049041 0.574750
vt 0.047206 0.668112
vt 0.054545 0.574750
vt 0.056380 0.668112
vt 0.084202 0.566146
vt 0.084458 0.565646
vt 0.090768 0.571881
vt 0.090613 0.574748
vt 0.090768 0.569014
vt 0.091553 0.571881
vt 0.091410 0.566146
vt 0.091553 0.569014
vt 0.056380 0.574748
vt 0.054545 0.563282
vt 0.056380 0.563279
vt 0.052710 0.563283
vt 0.050876 0.563283
vt 0.091189 0.577615
vt 0.083852 0.580482
vt 0.083850 0.577615
vt 0.091191 0.580482
vt 0.083853 0.583349
vt 0.091193 0.583349
vt 0.083853 0.586216
vt 0.091193 0.586216
vt 0.112316 0.563281
vt 0.113599 0.585381
vt 0.112227 0.585382
vt 0.114882 0.612862
vt 0.113599 0.590763
vt 0.114971 0.590762
vt 0.100522 0.563294
vt 0.101975 0.585377
vt 0.100346 0.585393
vt 0.112138 0.563281
vt 0.110855 0.585381
vt 0.110944 0.563279
vt 0.090307 0.577615
vt 0.090333 0.577114
vt 0.090536 0.575248
vt 0.091124 0.563279
vt 0.091068 0.565646
vt 0.090869 0.563780
vt 0.085520 0.575248
vt 0.084458 0.575248
vt 0.090307 0.563279
vt 0.090333 0.563780
vt 0.090613 0.566146
vt 0.089863 0.565646
vt 0.090536 0.565646
vt 0.084226 0.577114
vt 0.085332 0.577114
vt 0.085520 0.565646
vt 0.085332 0.563780
vt 0.089668 0.563780
vt 0.095054 0.590756
vt 0.096014 0.563299
vt 0.096008 0.590777
vt 0.091553 0.590755
vt 0.092518 0.563288
vt 0.092496 0.590763
vt 0.108110 0.585384
vt 0.109482 0.612866
vt 0.108110 0.612866
vt 0.097753 0.585396
vt 0.098544 0.612857
vt 0.097759 0.612873
vt 0.110766 0.563281
vt 0.109482 0.585383
vt 0.109571 0.563279
vt 0.098807 0.612856
vt 0.100259 0.590773
vt 0.100189 0.612870
vt 0.103859 0.563315
vt 0.105365 0.585376
vt 0.103796 0.585418
vt 0.094384 0.563285
vt 0.095024 0.585378
vt 0.094246 0.585384
vt 0.102163 0.612865
vt 0.103670 0.590805
vt 0.103490 0.612901
vt 0.116255 0.563281
vt 0.114971 0.585380
vt 0.115060 0.563279
vt 0.097880 0.563293
vt 0.098523 0.585379
vt 0.108199 0.563281
vt 0.109482 0.585383
vt 0.091802 0.612855
vt 0.092633 0.612862
vt 0.095294 0.612861
vt 0.096135 0.612879
vt 0.106649 0.563282
vt 0.105365 0.585382
vt 0.105455 0.563279
vt 0.106827 0.563282
vt 0.108110 0.585382
vt 0.106738 0.585384
vt 0.086594 0.609592
vt 0.085222 0.610574
vt 0.085222 0.609592
vt 0.083865 0.608430
vt 0.085222 0.606288
vt 0.085222 0.608432
vt 0.085222 0.608460
vt 0.083850 0.610577
vt 0.083850 0.608432
vt 0.086594 0.607448
vt 0.085222 0.608430
vt 0.085222 0.607448
vt 0.106738 0.585384
vt 0.105365 0.612867
vt 0.108110 0.612867
vt 0.106738 0.612867
vt 0.112227 0.585382
vt 0.110855 0.612864
vt 0.101975 0.612853
vt 0.100259 0.612870
vt 0.113599 0.563279
vt 0.114971 0.563279
vt 0.113599 0.612864
vt 0.112227 0.612864
vt 0.110855 0.585384
vt 0.109482 0.612866
vt 0.098631 0.590756
vt 0.100259 0.563297
vt 0.105365 0.612855
vt 0.103670 0.612901
vt 0.095054 0.612853
vt 0.094269 0.612860
vt 0.102100 0.590762
vt 0.103670 0.563325
vt 0.116344 0.585381
vt 0.114971 0.612863
vt 0.093304 0.585393
vt 0.093339 0.612868
vt 0.086594 0.606286
vt 0.085222 0.606286
vt 0.086594 0.608430
vt 0.085222 0.608430
vt 0.096778 0.590793
vt 0.096799 0.612893
vt 0.093273 0.590770
vt 0.093304 0.612868
vt 0.097038 0.563311
vt 0.096799 0.585416
vt 0.093553 0.563293
vt 0.096829 0.612893
vt 0.093304 0.563294
vt 0.096799 0.563315
vt 0.089863 0.575248
vt 0.090869 0.577114
vt 0.090666 0.594817
vt 0.090839 0.597684
vt 0.090839 0.600552
vt 0.090666 0.603419
vt 0.090335 0.606286
vt 0.065528 0.563385
vt 0.064487 0.574839
vt 0.090335 0.591950
vt 0.072347 0.681098
vt 0.064345 0.684254
vt 0.064935 0.668190
vt 0.065339 0.684266
vt 0.073492 0.571667
vt 0.073053 0.587743
vt 0.073703 0.563291
vt 0.074486 0.571655
vt 0.085999 0.613441
vt 0.085222 0.610574
vt 0.085999 0.610574
vt 0.064556 0.692631
vt 0.065528 0.692642
vt 0.080180 0.563284
vt 0.082015 0.672670
vt 0.080180 0.680998
vt 0.050876 0.692466
vt 0.050876 0.574751
vt 0.078345 0.680998
vt 0.078345 0.563284
vt 0.082015 0.563283
vt 0.083850 0.656642
vt 0.063905 0.668178
vt 0.076510 0.672670
vt 0.049041 0.684139
vt 0.056380 0.574745
vt 0.091189 0.591950
vt 0.083850 0.591950
vt 0.113510 0.563279
vt 0.113688 0.612863
vt 0.101904 0.563279
vt 0.095084 0.563279
vt 0.091589 0.563279
vt 0.105186 0.563279
vt 0.095054 0.563279
vt 0.098544 0.563279
vt 0.109393 0.563279
vt 0.108021 0.563279
vt 0.086594 0.610574
vt 0.083850 0.606286
vt 0.085222 0.610579
vt 0.086594 0.608430
vt 0.106738 0.612867
vt 0.112227 0.612864
vt 0.110855 0.612866
vt 0.098544 0.563279
vt 0.101975 0.563279
vt 0.116344 0.612863
vt 0.065506 0.574851
vt 0.074675 0.563279
vt 0.085222 0.613441
vt 0.083850 0.563279
vn -0.9214 0.0000 -0.3887
vn 0.1627 0.0000 -0.9867
vn 0.9214 0.0000 0.3887
vn -0.5578 -0.0288 0.8295
vn 0.0000 -1.0000 -0.0000
vn -0.2719 0.0000 0.9623
vn 0.0000 1.0000 0.0000
vn 0.1763 -0.0148 -0.9842
vn -0.5703 0.0137 0.8213
vn -0.1401 0.0030 0.9901
vn -0.2050 -0.0288 0.9783
vn -0.2971 -0.0548 0.9533
vn -0.3878 -0.0698 0.9191
vn -0.4755 -0.0548 0.8780
vn 0.5932 0.0000 -0.8051
vn 0.4998 0.0000 -0.8661
vn 0.3887 0.0000 -0.9214
vn 0.2716 0.0000 -0.9624
vn -0.2879 -0.0464 0.9565
vn -0.2575 -0.0045 0.9663
vn 0.9206 0.0414 0.3884
vn -0.5651 -0.1040 0.8184
vn 0.3886 0.0237 -0.9211
vn 0.1924 0.1998 -0.9608
vn -0.9206 0.0414 -0.3884
vn -0.5589 -0.0379 0.8283
vn 0.4771 0.1460 -0.8666
vn 0.1587 0.1475 -0.9763
vn 0.5440 0.1147 -0.8312
vn 0.2145 0.1564 -0.9641
vn 0.4021 0.0753 -0.9125
vn -0.4833 -0.0797 0.8718
vn -0.3870 -0.0431 0.9211
vn -0.3886 -0.0253 0.9211
vn 0.2901 0.0766 -0.9539
vn -0.5092 -0.1122 0.8533
vn -0.5966 0.7621 -0.2517
vn 0.5966 0.7621 0.2517
vn 0.3721 0.9148 0.1570
vn -0.3721 0.9148 -0.1570
vn 0.5098 0.0000 -0.8603
vn -0.3887 0.0000 0.9214
vn 0.6257 -0.0032 -0.7800
vn 0.2788 -0.0033 -0.9604
vn -0.4841 0.0031 0.8750
vn -0.5696 -0.0539 0.8202
vn -0.2890 0.0031 0.9573
vn 0.1221 -0.0032 -0.9925
vn -0.6114 0.0030 0.7913
vn -0.1903 0.0137 0.9816
vn -0.1900 -0.0539 0.9803
vn -0.2883 -0.0694 0.9550
vn -0.4829 -0.0694 0.8729
vn -0.1919 -0.1040 0.9759
vn -0.2033 -0.0379 0.9784
vn -0.4843 -0.0464 0.8737
vn 0.4808 0.0766 -0.8735
vn 0.2878 0.1460 -0.9465
vn -0.5124 -0.0045 0.8587
vn 0.5540 0.1998 -0.8082
vn 0.2157 0.1147 -0.9697
vn 0.5885 0.1475 -0.7949
vn 0.3730 0.0753 -0.9248
vn 0.5409 0.1564 -0.8264
vn -0.2559 -0.1122 0.9602
vn -0.2873 -0.0797 0.9545
vn -0.3897 -0.0431 0.9199
vn -0.5966 0.7620 -0.2517
vn 0.4934 -0.0033 -0.8698
vn 0.5820 -0.0148 -0.8131
vn 0.2604 0.0000 -0.9655
vn -0.4995 0.0000 0.8663
usemtl Material.085
s off
f 14/1/1 3/2/1 9/3/1
f 28/4/2 7/5/2 21/6/2
f 110/7/3 5/8/3 112/9/3
f 29/10/4 2/11/4 1/12/4
f 17/13/5 66/14/5 7/15/5
f 34/16/6 137/17/6 138/18/6
f 25/19/7 14/20/7 37/21/7
f 37/21/7 13/22/7 41/23/7
f 41/23/7 12/24/7 45/25/7
f 1/26/5 74/27/5 29/28/5
f 49/29/5 16/30/5 53/31/5
f 53/31/5 15/32/5 57/33/5
f 8/34/3 17/35/3 7/36/3
f 18/37/3 16/38/3 17/35/3
f 19/39/3 15/40/3 16/38/3
f 109/41/1 12/42/1 11/43/1
f 11/43/1 13/44/1 10/45/1
f 10/45/1 14/1/1 9/3/1
f 56/46/5 11/47/5 10/48/5
f 55/49/5 60/50/5 56/46/5
f 54/51/5 59/52/5 55/49/5
f 54/51/5 57/33/5 58/53/5
f 52/54/5 10/48/5 9/55/5
f 51/56/5 56/46/5 52/54/5
f 50/57/5 55/49/5 51/56/5
f 50/57/5 53/31/5 54/51/5
f 60/50/5 61/58/5 11/47/5
f 23/59/5 52/54/5 24/60/5
f 22/61/5 51/56/5 23/59/5
f 22/61/5 49/29/5 50/57/5
f 44/62/7 20/63/7 19/64/7
f 43/65/7 48/66/7 44/62/7
f 42/67/7 47/68/7 43/65/7
f 42/67/7 45/25/7 46/69/7
f 40/70/7 19/64/7 18/71/7
f 39/72/7 44/62/7 40/70/7
f 38/73/7 43/65/7 39/72/7
f 38/73/7 41/23/7 42/67/7
f 28/74/7 18/71/7 8/75/7
f 27/76/7 40/70/7 28/74/7
f 26/77/7 39/72/7 27/76/7
f 26/77/7 37/21/7 38/73/7
f 110/7/3 134/78/3 6/79/3
f 113/80/8 133/81/8 110/82/8
f 36/83/9 136/84/9 2/11/9
f 33/85/10 134/86/10 137/17/10
f 21/87/5 66/14/5 73/88/5
f 118/89/5 29/28/5 117/90/5
f 119/91/5 30/92/5 118/89/5
f 119/91/5 32/93/5 31/94/5
f 6/95/11 32/96/11 5/97/11
f 33/85/12 31/98/12 32/96/12
f 34/16/13 30/99/13 31/98/13
f 30/99/14 36/83/14 29/10/14
f 4/100/15 24/101/15 3/102/15
f 25/103/16 23/104/16 24/101/16
f 26/105/17 22/106/17 23/104/17
f 27/107/18 21/6/18 22/106/18
f 68/108/19 83/109/19 84/110/19
f 65/111/20 91/112/20 81/113/20
f 66/114/21 81/115/21 82/116/21
f 62/117/22 90/118/22 74/119/22
f 109/120/5 61/58/5 121/121/5
f 117/90/5 74/27/5 123/122/5
f 5/123/5 67/124/5 68/125/5
f 24/60/5 71/126/5 63/127/5
f 112/128/5 68/125/5 122/129/5
f 120/130/5 76/131/5 124/132/5
f 24/60/5 64/133/5 3/102/5
f 9/55/5 64/133/5 69/134/5
f 9/55/5 71/126/5 52/54/5
f 17/13/5 75/135/5 65/136/5
f 57/33/5 70/137/5 76/131/5
f 21/87/5 75/135/5 49/29/5
f 92/138/1 132/139/1 128/140/1
f 77/141/1 129/142/1 125/143/1
f 77/144/23 104/145/23 93/146/23
f 127/147/3 106/148/3 131/149/3
f 70/150/24 92/151/24 76/152/24
f 64/153/25 85/154/25 69/155/25
f 63/156/21 87/157/21 79/158/21
f 122/159/21 84/160/21 126/161/21
f 73/162/25 91/163/25 75/164/25
f 69/165/26 87/166/26 71/167/26
f 123/168/21 90/169/21 127/147/21
f 61/170/27 88/171/27 77/144/27
f 61/172/25 125/143/25 121/173/25
f 76/174/25 128/140/25 124/175/25
f 66/176/28 89/177/28 73/178/28
f 64/179/29 79/180/29 80/181/29
f 130/182/5 99/183/5 132/184/5
f 105/185/5 97/186/5 107/187/5
f 95/188/5 101/189/5 96/190/5
f 131/191/5 94/192/5 129/193/5
f 82/194/30 105/195/30 89/177/30
f 80/181/31 95/196/31 96/197/31
f 78/198/32 106/199/32 90/118/32
f 82/116/3 97/200/3 98/201/3
f 81/113/33 107/202/33 97/203/33
f 84/110/34 99/204/34 100/205/34
f 86/206/35 108/207/35 92/151/35
f 80/208/1 101/209/1 85/154/1
f 79/158/3 103/210/3 95/211/3
f 126/161/3 100/212/3 130/213/3
f 89/214/1 107/215/1 91/163/1
f 85/216/36 103/217/36 87/166/36
f 86/218/3 130/213/3 102/219/3
f 104/220/5 129/193/5 93/221/5
f 102/222/5 132/184/5 108/223/5
f 124/175/25 83/224/25 67/225/25
f 121/173/25 78/226/25 62/227/25
f 72/228/21 127/147/21 88/229/21
f 70/230/21 126/161/21 86/218/21
f 88/229/3 131/149/3 104/231/3
f 125/143/1 94/232/1 78/226/1
f 128/140/1 99/233/1 83/224/1
f 120/130/5 67/124/5 32/93/5
f 112/128/5 70/137/5 15/32/5
f 117/90/5 72/234/5 60/50/5
f 109/120/5 62/235/5 1/26/5
f 58/53/5 120/130/5 119/91/5
f 58/53/5 118/89/5 59/52/5
f 59/52/5 117/90/5 60/50/5
f 46/69/7 116/236/7 115/237/7
f 46/69/7 114/238/7 47/68/7
f 47/68/7 113/239/7 48/66/7
f 48/66/7 110/240/7 20/63/7
f 1/241/1 111/242/1 109/41/1
f 45/25/7 111/243/7 116/236/7
f 20/244/3 112/9/3 15/40/3
f 143/245/37 136/246/37 135/247/37
f 140/248/38 134/78/38 133/249/38
f 141/250/39 137/251/39 140/248/39
f 142/252/7 138/253/7 141/254/7
f 142/255/40 135/247/40 139/256/40
f 115/257/41 143/258/41 142/259/41
f 34/16/42 139/260/42 35/261/42
f 115/257/17 141/262/17 114/263/17
f 116/264/43 144/265/43 143/258/43
f 111/242/1 136/246/1 144/266/1
f 114/263/44 140/267/44 113/80/44
f 35/261/45 135/268/45 36/83/45
f 14/1/1 4/269/1 3/2/1
f 28/4/2 8/270/2 7/5/2
f 110/7/3 6/79/3 5/8/3
f 29/10/46 36/83/46 2/11/46
f 17/13/5 65/136/5 66/14/5
f 34/16/47 33/85/47 137/17/47
f 25/19/7 4/271/7 14/20/7
f 37/21/7 14/20/7 13/22/7
f 41/23/7 13/22/7 12/24/7
f 1/26/5 62/235/5 74/27/5
f 49/29/5 17/13/5 16/30/5
f 53/31/5 16/30/5 15/32/5
f 8/34/3 18/37/3 17/35/3
f 18/37/3 19/39/3 16/38/3
f 19/39/3 20/244/3 15/40/3
f 109/41/1 111/242/1 12/42/1
f 11/43/1 12/42/1 13/44/1
f 10/45/1 13/44/1 14/1/1
f 56/46/5 60/50/5 11/47/5
f 55/49/5 59/52/5 60/50/5
f 54/51/5 58/53/5 59/52/5
f 54/51/5 53/31/5 57/33/5
f 52/54/5 56/46/5 10/48/5
f 51/56/5 55/49/5 56/46/5
f 50/57/5 54/51/5 55/49/5
f 50/57/5 49/29/5 53/31/5
f 60/50/5 72/234/5 61/58/5
f 23/59/5 51/56/5 52/54/5
f 22/61/5 50/57/5 51/56/5
f 22/61/5 21/87/5 49/29/5
f 44/62/7 48/66/7 20/63/7
f 43/65/7 47/68/7 48/66/7
f 42/67/7 46/69/7 47/68/7
f 42/67/7 41/23/7 45/25/7
f 40/70/7 44/62/7 19/64/7
f 39/72/7 43/65/7 44/62/7
f 38/73/7 42/67/7 43/65/7
f 38/73/7 37/21/7 41/23/7
f 28/74/7 40/70/7 18/71/7
f 27/76/7 39/72/7 40/70/7
f 26/77/7 38/73/7 39/72/7
f 26/77/7 25/19/7 37/21/7
f 110/7/3 133/249/3 134/78/3
f 113/80/48 140/267/48 133/81/48
f 36/83/49 135/268/49 136/84/49
f 33/85/50 6/95/50 134/86/50
f 21/87/5 7/15/5 66/14/5
f 118/89/5 30/92/5 29/28/5
f 119/91/5 31/94/5 30/92/5
f 119/91/5 120/130/5 32/93/5
f 6/95/51 33/85/51 32/96/51
f 33/85/52 34/16/52 31/98/52
f 34/16/13 35/261/13 30/99/13
f 30/99/53 35/261/53 36/83/53
f 4/100/15 25/103/15 24/101/15
f 25/103/16 26/105/16 23/104/16
f 26/105/17 27/107/17 22/106/17
f 27/107/18 28/4/18 21/6/18
f 68/108/54 67/272/54 83/109/54
f 65/111/55 75/273/55 91/112/55
f 66/114/21 65/274/21 81/115/21
f 62/117/56 78/198/56 90/118/56
f 109/120/5 11/47/5 61/58/5
f 117/90/5 29/28/5 74/27/5
f 5/123/5 32/93/5 67/124/5
f 24/60/5 52/54/5 71/126/5
f 112/128/5 5/123/5 68/125/5
f 120/130/5 57/33/5 76/131/5
f 24/60/5 63/127/5 64/133/5
f 9/55/5 3/102/5 64/133/5
f 9/55/5 69/134/5 71/126/5
f 17/13/5 49/29/5 75/135/5
f 57/33/5 15/32/5 70/137/5
f 21/87/5 73/88/5 75/135/5
f 92/138/1 108/275/1 132/139/1
f 77/141/1 93/276/1 129/142/1
f 77/144/57 88/171/57 104/145/57
f 127/147/3 90/169/3 106/148/3
f 70/150/58 86/206/58 92/151/58
f 64/153/25 80/208/25 85/154/25
f 63/156/21 71/277/21 87/157/21
f 122/159/21 68/278/21 84/160/21
f 73/162/25 89/214/25 91/163/25
f 69/165/59 85/216/59 87/166/59
f 123/168/21 74/279/21 90/169/21
f 61/170/60 72/280/60 88/171/60
f 61/172/25 77/141/25 125/143/25
f 76/174/25 92/138/25 128/140/25
f 66/176/61 82/194/61 89/177/61
f 64/179/62 63/281/62 79/180/62
f 130/182/5 100/282/5 99/183/5
f 105/185/5 98/283/5 97/186/5
f 95/188/5 103/284/5 101/189/5
f 131/191/5 106/285/5 94/192/5
f 82/194/63 98/286/63 105/195/63
f 80/181/64 79/180/64 95/196/64
f 78/198/34 94/287/34 106/199/34
f 82/116/3 81/115/3 97/200/3
f 81/113/65 91/112/65 107/202/65
f 84/110/66 83/109/66 99/204/66
f 86/206/23 102/288/23 108/207/23
f 80/208/1 96/289/1 101/209/1
f 79/158/3 87/157/3 103/210/3
f 126/161/3 84/160/3 100/212/3
f 89/214/1 105/290/1 107/215/1
f 85/216/67 101/291/67 103/217/67
f 86/218/3 126/161/3 130/213/3
f 104/220/5 131/191/5 129/193/5
f 102/222/5 130/182/5 132/184/5
f 124/175/25 128/140/25 83/224/25
f 121/173/25 125/143/25 78/226/25
f 72/228/21 123/168/21 127/147/21
f 70/230/21 122/159/21 126/161/21
f 88/229/3 127/147/3 131/149/3
f 125/143/1 129/142/1 94/232/1
f 128/140/1 132/139/1 99/233/1
f 120/130/5 124/132/5 67/124/5
f 112/128/5 122/129/5 70/137/5
f 117/90/5 123/122/5 72/234/5
f 109/120/5 121/121/5 62/235/5
f 58/53/5 57/33/5 120/130/5
f 58/53/5 119/91/5 118/89/5
f 59/52/5 118/89/5 117/90/5
f 46/69/7 45/25/7 116/236/7
f 46/69/7 115/237/7 114/238/7
f 47/68/7 114/238/7 113/239/7
f 48/66/7 113/239/7 110/240/7
f 1/241/1 2/292/1 111/242/1
f 45/25/7 12/24/7 111/243/7
f 20/244/3 110/7/3 112/9/3
f 143/245/68 144/266/68 136/246/68
f 140/248/38 137/251/38 134/78/38
f 141/250/39 138/293/39 137/251/39
f 142/252/7 139/294/7 138/253/7
f 142/255/40 143/245/40 135/247/40
f 115/257/69 116/264/69 143/258/69
f 34/16/42 138/18/42 139/260/42
f 115/257/17 142/259/17 141/262/17
f 116/264/70 111/295/70 144/265/70
f 111/242/1 2/292/1 136/246/1
f 114/263/71 141/262/71 140/267/71
f 35/261/72 139/260/72 135/268/72
