# Blender v2.92.0 OBJ File: 'airShipStuff.blend'
# www.blender.org
mtllib table.mtl
o Cube.008_Cube.016
v -1.833278 -11.226515 13.866271
v -1.898319 -11.083296 13.939476
v -1.833278 -11.226515 12.012681
v -1.898319 -11.083296 11.939476
v 1.833278 -11.226515 13.866271
v 1.898319 -11.083296 13.939476
v 1.833278 -11.226515 12.012681
v 1.898319 -11.083296 11.939476
v 1.646974 -11.226515 12.012681
v -1.646974 -11.226515 12.012681
v -1.581933 -11.083296 11.939476
v 1.581933 -11.083296 11.939476
v -1.646974 -11.226515 13.866271
v 1.646974 -11.226515 13.866271
v 1.581933 -11.083296 13.939476
v -1.581933 -11.083296 13.939476
v -1.833278 -11.226515 12.199604
v -1.833278 -11.226515 13.679348
v -1.898319 -11.083296 13.606143
v -1.898319 -11.083296 12.272809
v 1.833278 -11.226515 13.679348
v 1.833278 -11.226515 12.199604
v 1.898319 -11.083296 12.272809
v 1.898319 -11.083296 13.606143
v 1.581933 -11.083296 12.272809
v 1.581933 -11.083296 13.606143
v -1.581933 -11.083296 12.272809
v -1.581933 -11.083296 13.606143
v -1.646974 -11.226515 12.199604
v -1.646974 -11.226515 13.679348
v 1.646974 -11.226515 12.199604
v 1.646974 -11.226515 13.679348
v -1.898319 -11.226515 13.606143
v -1.898319 -11.226515 13.939476
v -1.581933 -11.226515 11.939476
v -1.898319 -11.226515 11.939476
v 1.898319 -11.226515 12.272809
v 1.898319 -11.226515 11.939476
v 1.581933 -11.226515 13.939476
v 1.898319 -11.226515 13.939476
v 1.581933 -11.226515 11.939476
v -1.581933 -11.226515 13.939476
v -1.581933 -11.226515 13.606143
v 1.581933 -11.226515 13.606143
v -1.898319 -11.226515 12.272809
v 1.898319 -11.226515 13.606143
v -1.581933 -11.226515 12.272809
v 1.581933 -11.226515 12.272809
v -1.842933 -11.589210 13.669661
v -1.842933 -11.589210 13.875957
v -1.637319 -11.589210 12.002995
v -1.842933 -11.589210 12.002995
v 1.842933 -11.589210 12.209291
v 1.842933 -11.589210 12.002995
v 1.637319 -11.589210 13.875957
v 1.842933 -11.589210 13.875957
v 1.637319 -11.589210 12.002995
v -1.637319 -11.589210 13.875957
v -1.637319 -11.589210 13.669661
v 1.637319 -11.589210 13.669661
v -1.842933 -11.589210 12.209291
v 1.842933 -11.589210 13.669661
v -1.637319 -11.589210 12.209291
v 1.637319 -11.589210 12.209291
v -1.833648 -11.877096 13.678977
v -1.833648 -11.877096 13.866642
v -1.646604 -11.877096 12.012310
v -1.833648 -11.877096 12.012310
v 1.833648 -11.877096 12.199975
v 1.833648 -11.877096 12.012310
v 1.646604 -11.877096 13.866642
v 1.833648 -11.877096 13.866642
v 1.646604 -11.877096 12.012310
v -1.646604 -11.877096 13.866642
v -1.646604 -11.877096 13.678977
v 1.646604 -11.877096 13.678977
v -1.833648 -11.877096 12.199975
v 1.833648 -11.877096 13.678977
v -1.646604 -11.877096 12.199975
v 1.646604 -11.877096 12.199975
v -1.845251 -12.202758 13.667335
v -1.845251 -12.202758 13.878284
v -1.635001 -12.202758 12.000668
v -1.845251 -12.202758 12.000668
v 1.845251 -12.202758 12.211617
v 1.845251 -12.202758 12.000668
v 1.635001 -12.202758 13.878284
v 1.845251 -12.202758 13.878284
v 1.635001 -12.202758 12.000668
v -1.635001 -12.202758 13.878284
v -1.635001 -12.202758 13.667335
v 1.635001 -12.202758 13.667335
v -1.845251 -12.202758 12.211617
v 1.845251 -12.202758 13.667335
v -1.635001 -12.202758 12.211617
v 1.635001 -12.202758 12.211617
v -1.845251 -12.453468 13.667335
v -1.845251 -12.453468 13.878284
v -1.635001 -12.453468 12.000668
v -1.845251 -12.453468 12.000668
v 1.845251 -12.453468 12.211617
v 1.845251 -12.453468 12.000668
v 1.635001 -12.453468 13.878284
v 1.845251 -12.453468 13.878284
v 1.635001 -12.453468 12.000668
v -1.635001 -12.453468 13.878284
v -1.635001 -12.453468 13.667335
v 1.635001 -12.453468 13.667335
v -1.845251 -12.453468 12.211617
v 1.845251 -12.453468 13.667335
v -1.635001 -12.453468 12.211617
v 1.635001 -12.453468 12.211617
v -1.897004 -12.453468 13.615409
v -1.897004 -12.453468 13.930209
v -1.583248 -12.453468 11.948743
v -1.897004 -12.453468 11.948743
v 1.897004 -12.453468 12.263543
v 1.897004 -12.453468 11.948743
v 1.583248 -12.453468 13.930209
v 1.897004 -12.453468 13.930209
v 1.583248 -12.453468 11.948743
v -1.583248 -12.453468 13.930209
v -1.583248 -12.453468 13.615409
v 1.583248 -12.453468 13.615409
v -1.897004 -12.453468 12.263543
v 1.897004 -12.453468 13.615409
v -1.583248 -12.453468 12.263543
v 1.583248 -12.453468 12.263543
v -1.897004 -12.597471 13.615409
v -1.897004 -12.597471 13.930209
v -1.583248 -12.597471 11.948743
v -1.897004 -12.597471 11.948743
v 1.897004 -12.597471 12.263543
v 1.897004 -12.597471 11.948743
v 1.583248 -12.597471 13.930209
v 1.897004 -12.597471 13.930209
v 1.583248 -12.597471 11.948743
v -1.583248 -12.597471 13.930209
v -1.583248 -12.597471 13.615409
v 1.583248 -12.597471 13.615409
v -1.897004 -12.597471 12.263543
v 1.897004 -12.597471 13.615409
v -1.583248 -12.597471 12.263543
v 1.583248 -12.597471 12.263543
vt 0.076629 0.575032
vt 0.074942 0.564908
vt 0.076629 0.564908
vt 0.074942 0.586000
vt 0.085066 0.585156
vt 0.085066 0.586000
vt 0.086753 0.575032
vt 0.085066 0.564908
vt 0.086753 0.564908
vt 0.095190 0.565751
vt 0.105314 0.564908
vt 0.105314 0.565751
vt 0.117253 0.651641
vt 0.117775 0.626002
vt 0.117749 0.651641
vt 0.095190 0.583469
vt 0.094346 0.585156
vt 0.094346 0.583469
vt 0.085909 0.583469
vt 0.085066 0.585156
vt 0.085066 0.583469
vt 0.085909 0.585156
vt 0.109525 0.564908
vt 0.108529 0.590547
vt 0.108578 0.564908
vt 0.084222 0.583469
vt 0.075785 0.585156
vt 0.075785 0.583469
vt 0.095190 0.575032
vt 0.105314 0.574188
vt 0.105314 0.575032
vt 0.095190 0.574188
vt 0.074942 0.595280
vt 0.085066 0.594437
vt 0.085066 0.595280
vt 0.074942 0.594437
vt 0.084222 0.575032
vt 0.075785 0.576719
vt 0.075785 0.575032
vt 0.084222 0.576719
vt 0.108457 0.564908
vt 0.107462 0.590547
vt 0.107511 0.564908
vt 0.074942 0.583469
vt 0.074942 0.576719
vt 0.094346 0.575032
vt 0.085909 0.576719
vt 0.085909 0.575032
vt 0.094346 0.576719
vt 0.085066 0.576719
vt 0.085066 0.575032
vt 0.095190 0.575032
vt 0.095190 0.576719
vt 0.114449 0.651641
vt 0.114972 0.626002
vt 0.114946 0.651641
vt 0.085066 0.576719
vt 0.095190 0.575032
vt 0.093503 0.564908
vt 0.095190 0.564908
vt 0.093503 0.575032
vt 0.085066 0.575032
vt 0.083378 0.564908
vt 0.085066 0.564908
vt 0.083378 0.575032
vt 0.075115 0.584785
vt 0.075115 0.583839
vt 0.075115 0.575402
vt 0.075612 0.575402
vt 0.084892 0.575402
vt 0.084892 0.576349
vt 0.084892 0.584785
vt 0.084222 0.585156
vt 0.084395 0.584785
vt 0.084395 0.575402
vt 0.085066 0.575032
vt 0.075612 0.584785
vt 0.074942 0.585156
vt 0.075612 0.583839
vt 0.084395 0.583839
vt 0.075115 0.576349
vt 0.074942 0.575032
vt 0.084892 0.583839
vt 0.085066 0.585156
vt 0.075612 0.576349
vt 0.084395 0.576349
vt 0.085066 0.583469
vt 0.113863 0.626002
vt 0.114387 0.605652
vt 0.114411 0.626002
vt 0.114984 0.626002
vt 0.115508 0.605652
vt 0.115533 0.626002
vt 0.115545 0.626002
vt 0.116068 0.605652
vt 0.116093 0.626002
vt 0.117788 0.626002
vt 0.118311 0.605652
vt 0.118336 0.626002
vt 0.113796 0.564908
vt 0.112801 0.590547
vt 0.112850 0.564908
vt 0.116692 0.651641
vt 0.117215 0.626002
vt 0.117189 0.651641
vt 0.112728 0.564908
vt 0.111733 0.590547
vt 0.111782 0.564908
vt 0.111660 0.564908
vt 0.110665 0.590547
vt 0.110714 0.564908
vt 0.110592 0.564908
vt 0.109597 0.590547
vt 0.109646 0.564908
vt 0.116131 0.651641
vt 0.116654 0.626002
vt 0.116628 0.651641
vt 0.106321 0.564908
vt 0.105326 0.590547
vt 0.105375 0.564908
vt 0.117813 0.651641
vt 0.118310 0.651641
vt 0.115571 0.651641
vt 0.116068 0.651641
vt 0.115010 0.651641
vt 0.115507 0.651641
vt 0.113889 0.651641
vt 0.114386 0.651641
vt 0.107389 0.564908
vt 0.106394 0.590547
vt 0.106443 0.564908
vt 0.116130 0.605652
vt 0.116660 0.582630
vt 0.116629 0.605652
vt 0.110594 0.610897
vt 0.109585 0.633918
vt 0.109644 0.610897
vt 0.111662 0.610897
vt 0.110653 0.633918
vt 0.110712 0.610897
vt 0.112730 0.610897
vt 0.111721 0.633918
vt 0.111780 0.610897
vt 0.107438 0.590547
vt 0.106441 0.610897
vt 0.114424 0.626002
vt 0.114947 0.605652
vt 0.108506 0.590547
vt 0.107509 0.610897
vt 0.109574 0.590547
vt 0.108577 0.610897
vt 0.117227 0.626002
vt 0.117751 0.605652
vt 0.113845 0.590547
vt 0.112848 0.610897
vt 0.116666 0.626002
vt 0.117190 0.605652
vt 0.112777 0.590547
vt 0.111709 0.590547
vt 0.110642 0.590547
vt 0.116106 0.626002
vt 0.106370 0.590547
vt 0.105373 0.610897
vt 0.117221 0.582630
vt 0.117781 0.564908
vt 0.117781 0.582630
vt 0.109585 0.633918
vt 0.108518 0.651641
vt 0.108518 0.633918
vt 0.108518 0.633918
vt 0.107450 0.651641
vt 0.107450 0.633918
vt 0.114417 0.582630
vt 0.114978 0.564908
vt 0.114978 0.582630
vt 0.106323 0.610897
vt 0.105314 0.633918
vt 0.117812 0.605652
vt 0.118342 0.582630
vt 0.115570 0.605652
vt 0.116099 0.582630
vt 0.115009 0.605652
vt 0.115539 0.582630
vt 0.113888 0.605652
vt 0.114417 0.582630
vt 0.107391 0.610897
vt 0.106382 0.633918
vt 0.114448 0.605652
vt 0.108459 0.610897
vt 0.109527 0.610897
vt 0.117252 0.605652
vt 0.113798 0.610897
vt 0.112789 0.633918
vt 0.116691 0.605652
vt 0.117221 0.582630
vt 0.921856 0.655970
vt 0.922554 0.655707
vt 0.922417 0.655970
vt 0.922417 0.657038
vt 0.921718 0.657300
vt 0.921856 0.657038
vt 0.921580 0.655444
vt 0.920881 0.655707
vt 0.921019 0.655444
vt 0.921856 0.654376
vt 0.922554 0.654113
vt 0.922417 0.654376
vt 0.113857 0.633918
vt 0.112789 0.651641
vt 0.116660 0.582630
vt 0.117221 0.564908
vt 0.112789 0.633918
vt 0.111721 0.651641
vt 0.111721 0.633918
vt 0.110653 0.651641
vt 0.110653 0.633918
vt 0.109585 0.651641
vt 0.116099 0.582630
vt 0.116660 0.564908
vt 0.106382 0.633918
vt 0.105314 0.651641
vt 0.117781 0.582630
vt 0.118342 0.564908
vt 0.115539 0.582630
vt 0.116099 0.564908
vt 0.114978 0.582630
vt 0.115539 0.564908
vt 0.113857 0.582630
vt 0.114417 0.564908
vt 0.107450 0.633918
vt 0.106382 0.651641
vt 0.913944 0.664237
vt 0.914781 0.654058
vt 0.914781 0.664237
vt 0.924825 0.654113
vt 0.926419 0.643934
vt 0.926419 0.654113
vt 0.921638 0.654113
vt 0.923232 0.643934
vt 0.923232 0.654113
vt 0.928012 0.654113
vt 0.929606 0.643934
vt 0.929606 0.654113
vt 0.921718 0.655707
vt 0.922417 0.655444
vt 0.921718 0.655707
vt 0.921856 0.655444
vt 0.921580 0.657038
vt 0.921718 0.655707
vt 0.921718 0.657300
vt 0.922554 0.657300
vt 0.921019 0.655970
vt 0.921580 0.655970
vt 0.921580 0.654376
vt 0.921718 0.655707
vt 0.921019 0.654376
vt 0.921718 0.654113
vt 0.921019 0.657038
vt 0.920881 0.655707
vt 0.921718 0.654113
vt 0.920881 0.654113
vt 0.920881 0.657300
vt 0.922554 0.655707
vt 0.923391 0.654113
vt 0.922554 0.655707
vt 0.922554 0.654113
vt 0.923391 0.655707
vt 0.922554 0.657300
vt 0.922554 0.655707
vt 0.920881 0.654113
vt 0.920044 0.655707
vt 0.920044 0.654113
vt 0.920881 0.655707
vt 0.920044 0.657300
vt 0.920044 0.655707
vt 0.923232 0.654113
vt 0.924825 0.643934
vt 0.924825 0.654113
vt 0.917291 0.664237
vt 0.918127 0.654058
vt 0.918127 0.664237
vt 0.918127 0.664237
vt 0.918964 0.654058
vt 0.918964 0.664237
vt 0.918964 0.664237
vt 0.919801 0.654058
vt 0.919801 0.664237
vt 0.915617 0.664237
vt 0.916454 0.654058
vt 0.916454 0.664237
vt 0.926419 0.654113
vt 0.928012 0.643934
vt 0.928012 0.654113
vt 0.913107 0.664237
vt 0.913944 0.654058
vt 0.913944 0.664237
vt 0.911514 0.664237
vt 0.913107 0.654058
vt 0.913107 0.664237
vt 0.909920 0.664237
vt 0.911514 0.654058
vt 0.911514 0.664237
vt 0.916454 0.664237
vt 0.917291 0.654058
vt 0.917291 0.664237
vt 0.920044 0.654113
vt 0.921638 0.643934
vt 0.921638 0.654113
vt 0.914781 0.664237
vt 0.915617 0.654058
vt 0.915617 0.664237
vt 0.074942 0.575032
vt 0.074942 0.585156
vt 0.085066 0.575032
vt 0.095190 0.564908
vt 0.095190 0.585156
vt 0.117221 0.564908
vt 0.109585 0.651641
vt 0.108518 0.651641
vt 0.114417 0.564908
vt 0.113857 0.651641
vt 0.116660 0.564908
vt 0.112789 0.651641
vt 0.111721 0.651641
vt 0.110653 0.651641
vt 0.116099 0.564908
vt 0.106382 0.651641
vt 0.117781 0.564908
vt 0.115539 0.564908
vt 0.114978 0.564908
vt 0.113857 0.564908
vt 0.107450 0.651641
vt 0.913944 0.654058
vt 0.924825 0.643934
vt 0.921638 0.643934
vt 0.928012 0.643934
vt 0.923391 0.655707
vt 0.923391 0.657300
vt 0.920881 0.655707
vt 0.920881 0.657300
vt 0.923232 0.643934
vt 0.917291 0.654058
vt 0.918127 0.654058
vt 0.918964 0.654058
vt 0.915617 0.654058
vt 0.926419 0.643934
vt 0.913107 0.654058
vt 0.911514 0.654058
vt 0.909920 0.654058
vt 0.916454 0.654058
vt 0.920044 0.643934
vt 0.914781 0.654058
vn -1.0000 0.0000 0.0000
vn 0.0000 0.0000 -1.0000
vn 1.0000 0.0000 0.0000
vn 0.0000 0.0000 1.0000
vn 0.0000 0.0267 -0.9996
vn 0.0000 1.0000 0.0000
vn -0.9996 0.0266 0.0000
vn 0.0000 -1.0000 0.0000
vn 0.0000 0.0267 0.9996
vn 0.0000 -0.0323 -0.9995
vn 0.0000 -0.0323 0.9995
vn 0.9996 0.0266 0.0000
vn 0.0000 0.0357 0.9994
vn 0.9994 0.0356 0.0000
vn 0.9995 -0.0322 0.0000
vn -0.9995 -0.0322 0.0000
vn -0.9994 0.0356 0.0000
vn 0.0000 0.0357 -0.9994
usemtl Material.084
s off
f 20/1/1 36/2/1 45/3/1
f 12/4/2 38/5/2 41/6/2
f 24/7/3 40/8/3 46/9/3
f 16/10/4 34/11/4 42/12/4
f 21/13/5 60/14/5 32/15/5
f 19/16/6 16/17/6 28/18/6
f 26/19/6 6/20/6 24/21/6
f 28/18/6 15/22/6 26/19/6
f 18/23/7 50/24/7 1/25/7
f 44/26/8 42/27/8 43/28/8
f 6/29/4 39/30/4 40/31/4
f 15/32/4 42/12/4 39/30/4
f 4/33/2 35/34/2 36/35/2
f 11/36/2 41/6/2 35/34/2
f 41/37/8 47/38/8 35/39/8
f 48/40/8 43/28/8 47/38/8
f 32/41/7 55/42/7 14/43/7
f 47/38/8 33/44/8 45/45/8
f 11/46/6 25/47/6 12/48/6
f 27/49/6 26/19/6 25/47/6
f 12/48/6 23/50/6 8/51/6
f 25/47/6 24/21/6 23/50/6
f 4/52/6 27/49/6 11/46/6
f 20/53/6 28/18/6 27/49/6
f 31/54/9 53/55/9 22/56/9
f 37/57/8 44/26/8 48/40/8
f 8/58/3 37/59/3 38/60/3
f 23/61/3 46/9/3 37/59/3
f 2/62/1 33/63/1 34/64/1
f 19/65/1 45/3/1 33/63/1
f 1/66/8 33/44/8 18/67/8
f 3/68/8 35/39/8 10/69/8
f 7/70/8 37/57/8 22/71/8
f 5/72/8 39/73/8 14/74/8
f 9/75/8 38/76/8 7/70/8
f 13/77/8 34/78/8 1/66/8
f 30/79/8 42/27/8 13/77/8
f 14/74/8 44/26/8 32/80/8
f 17/81/8 36/82/8 3/68/8
f 21/83/8 40/84/8 5/72/8
f 10/69/8 47/38/8 29/85/8
f 31/86/8 41/37/8 9/75/8
f 29/85/8 45/45/8 17/81/8
f 18/67/8 43/28/8 30/79/8
f 22/71/8 48/40/8 31/86/8
f 32/80/8 46/87/8 21/83/8
f 59/88/10 65/89/10 49/90/10
f 50/91/11 74/92/11 58/93/11
f 61/94/11 79/95/11 63/96/11
f 54/97/10 73/98/10 57/99/10
f 3/100/7 61/101/7 17/102/7
f 10/103/5 52/104/5 3/105/5
f 5/106/12 62/107/12 21/108/12
f 22/109/12 54/110/12 7/111/12
f 29/112/12 51/113/12 10/114/12
f 14/115/9 56/116/9 5/117/9
f 9/118/7 64/119/7 31/120/7
f 7/121/5 57/99/5 9/122/5
f 17/123/9 63/96/9 29/124/9
f 1/125/9 58/93/9 13/126/9
f 30/127/5 49/90/5 18/128/5
f 13/129/12 59/130/12 30/131/12
f 71/132/13 88/133/13 72/134/13
f 79/135/14 83/136/14 67/137/14
f 69/138/14 86/139/14 70/140/14
f 72/141/14 94/142/14 78/143/14
f 58/144/15 75/145/15 59/130/15
f 64/146/11 69/147/11 53/55/11
f 60/148/16 71/149/16 55/42/16
f 49/150/16 66/151/16 50/24/16
f 62/152/10 76/153/10 60/14/10
f 52/154/16 77/155/16 61/101/16
f 51/156/10 68/157/10 52/104/10
f 56/158/15 78/143/15 62/107/15
f 53/159/15 70/140/15 54/110/15
f 63/160/15 67/137/15 51/113/15
f 55/161/11 72/134/11 56/116/11
f 57/162/16 80/163/16 64/119/16
f 94/164/2 108/165/2 92/166/2
f 81/167/1 98/168/1 82/169/1
f 92/170/1 103/171/1 87/172/1
f 96/173/4 101/174/4 85/175/4
f 73/176/17 96/177/17 80/163/17
f 70/178/18 89/179/18 73/98/18
f 77/180/13 95/181/13 79/95/13
f 66/182/13 90/183/13 74/92/13
f 75/184/18 81/185/18 65/89/18
f 74/186/14 91/187/14 75/145/14
f 80/188/13 85/175/13 69/147/13
f 76/189/17 87/172/17 71/149/17
f 65/190/17 82/169/17 66/151/17
f 78/191/18 92/166/18 76/153/18
f 68/192/17 93/193/17 77/155/17
f 67/194/18 84/195/18 68/157/18
f 107/196/6 113/197/6 97/198/6
f 98/199/6 122/200/6 106/201/6
f 109/202/6 127/203/6 111/204/6
f 102/205/6 121/206/6 105/207/6
f 84/208/1 109/209/1 93/193/1
f 83/210/2 100/211/2 84/195/2
f 88/212/3 110/213/3 94/142/3
f 85/214/3 102/215/3 86/139/3
f 95/216/3 99/217/3 83/136/3
f 87/218/4 104/219/4 88/133/4
f 89/220/1 112/221/1 96/177/1
f 86/222/2 105/223/2 89/179/2
f 93/224/4 111/225/4 95/181/4
f 82/226/4 106/227/4 90/183/4
f 91/228/2 97/229/2 81/185/2
f 90/230/3 107/231/3 91/187/3
f 119/232/4 136/233/4 120/234/4
f 127/235/3 131/236/3 115/237/3
f 117/238/3 134/239/3 118/240/3
f 120/241/3 142/242/3 126/243/3
f 106/201/6 123/244/6 107/196/6
f 112/245/6 117/246/6 101/247/6
f 103/248/6 124/249/6 119/250/6
f 98/199/6 113/197/6 114/251/6
f 110/252/6 124/249/6 108/253/6
f 100/254/6 125/255/6 109/202/6
f 99/256/6 116/257/6 100/254/6
f 104/258/6 126/259/6 110/252/6
f 101/247/6 118/260/6 102/205/6
f 111/204/6 115/261/6 99/256/6
f 103/248/6 120/262/6 104/258/6
f 105/207/6 128/263/6 112/245/6
f 142/264/8 135/265/8 140/266/8
f 139/267/8 130/268/8 129/269/8
f 131/270/8 141/271/8 132/272/8
f 134/273/8 144/274/8 137/275/8
f 121/276/1 144/277/1 128/278/1
f 118/279/2 137/280/2 121/281/2
f 125/282/4 143/283/4 127/284/4
f 114/285/4 138/286/4 122/287/4
f 123/288/2 129/289/2 113/290/2
f 122/291/3 139/292/3 123/293/3
f 128/294/4 133/295/4 117/296/4
f 124/297/1 135/298/1 119/299/1
f 113/300/1 130/301/1 114/302/1
f 126/303/2 140/304/2 124/305/2
f 116/306/1 141/307/1 125/308/1
f 115/309/2 132/310/2 116/311/2
f 20/1/1 4/312/1 36/2/1
f 12/4/2 8/313/2 38/5/2
f 24/7/3 6/314/3 40/8/3
f 16/10/4 2/315/4 34/11/4
f 21/13/5 62/152/5 60/14/5
f 19/16/6 2/316/6 16/17/6
f 26/19/6 15/22/6 6/20/6
f 28/18/6 16/17/6 15/22/6
f 18/23/7 49/150/7 50/24/7
f 44/26/8 39/73/8 42/27/8
f 6/29/4 15/32/4 39/30/4
f 15/32/4 16/10/4 42/12/4
f 4/33/2 11/36/2 35/34/2
f 11/36/2 12/4/2 41/6/2
f 41/37/8 48/40/8 47/38/8
f 48/40/8 44/26/8 43/28/8
f 32/41/7 60/148/7 55/42/7
f 47/38/8 43/28/8 33/44/8
f 11/46/6 27/49/6 25/47/6
f 27/49/6 28/18/6 26/19/6
f 12/48/6 25/47/6 23/50/6
f 25/47/6 26/19/6 24/21/6
f 4/52/6 20/53/6 27/49/6
f 20/53/6 19/16/6 28/18/6
f 31/54/9 64/146/9 53/55/9
f 37/57/8 46/87/8 44/26/8
f 8/58/3 23/61/3 37/59/3
f 23/61/3 24/7/3 46/9/3
f 2/62/1 19/65/1 33/63/1
f 19/65/1 20/1/1 45/3/1
f 1/66/8 34/78/8 33/44/8
f 3/68/8 36/82/8 35/39/8
f 7/70/8 38/76/8 37/57/8
f 5/72/8 40/84/8 39/73/8
f 9/75/8 41/37/8 38/76/8
f 13/77/8 42/27/8 34/78/8
f 30/79/8 43/28/8 42/27/8
f 14/74/8 39/73/8 44/26/8
f 17/81/8 45/45/8 36/82/8
f 21/83/8 46/87/8 40/84/8
f 10/69/8 35/39/8 47/38/8
f 31/86/8 48/40/8 41/37/8
f 29/85/8 47/38/8 45/45/8
f 18/67/8 33/44/8 43/28/8
f 22/71/8 37/57/8 48/40/8
f 32/80/8 44/26/8 46/87/8
f 59/88/10 75/184/10 65/89/10
f 50/91/11 66/182/11 74/92/11
f 61/94/11 77/180/11 79/95/11
f 54/97/10 70/178/10 73/98/10
f 3/100/7 52/154/7 61/101/7
f 10/103/5 51/156/5 52/104/5
f 5/106/12 56/158/12 62/107/12
f 22/109/12 53/159/12 54/110/12
f 29/112/12 63/160/12 51/113/12
f 14/115/9 55/161/9 56/116/9
f 9/118/7 57/162/7 64/119/7
f 7/121/5 54/97/5 57/99/5
f 17/123/9 61/94/9 63/96/9
f 1/125/9 50/91/9 58/93/9
f 30/127/5 59/88/5 49/90/5
f 13/129/12 58/144/12 59/130/12
f 71/132/13 87/218/13 88/133/13
f 79/135/14 95/216/14 83/136/14
f 69/138/14 85/214/14 86/139/14
f 72/141/14 88/212/14 94/142/14
f 58/144/15 74/186/15 75/145/15
f 64/146/11 80/188/11 69/147/11
f 60/148/16 76/189/16 71/149/16
f 49/150/16 65/190/16 66/151/16
f 62/152/10 78/191/10 76/153/10
f 52/154/16 68/192/16 77/155/16
f 51/156/10 67/194/10 68/157/10
f 56/158/15 72/141/15 78/143/15
f 53/159/15 69/138/15 70/140/15
f 63/160/15 79/135/15 67/137/15
f 55/161/11 71/132/11 72/134/11
f 57/162/16 73/176/16 80/163/16
f 94/164/2 110/317/2 108/165/2
f 81/167/1 97/318/1 98/168/1
f 92/170/1 108/319/1 103/171/1
f 96/173/4 112/320/4 101/174/4
f 73/176/17 89/220/17 96/177/17
f 70/178/18 86/222/18 89/179/18
f 77/180/13 93/224/13 95/181/13
f 66/182/13 82/226/13 90/183/13
f 75/184/18 91/228/18 81/185/18
f 74/186/14 90/230/14 91/187/14
f 80/188/13 96/173/13 85/175/13
f 76/189/17 92/170/17 87/172/17
f 65/190/17 81/167/17 82/169/17
f 78/191/18 94/164/18 92/166/18
f 68/192/17 84/208/17 93/193/17
f 67/194/18 83/210/18 84/195/18
f 107/196/6 123/244/6 113/197/6
f 98/199/6 114/251/6 122/200/6
f 109/202/6 125/255/6 127/203/6
f 102/205/6 118/260/6 121/206/6
f 84/208/1 100/321/1 109/209/1
f 83/210/2 99/322/2 100/211/2
f 88/212/3 104/323/3 110/213/3
f 85/214/3 101/324/3 102/215/3
f 95/216/3 111/325/3 99/217/3
f 87/218/4 103/326/4 104/219/4
f 89/220/1 105/327/1 112/221/1
f 86/222/2 102/328/2 105/223/2
f 93/224/4 109/329/4 111/225/4
f 82/226/4 98/330/4 106/227/4
f 91/228/2 107/331/2 97/229/2
f 90/230/3 106/332/3 107/231/3
f 119/232/4 135/333/4 136/233/4
f 127/235/3 143/334/3 131/236/3
f 117/238/3 133/335/3 134/239/3
f 120/241/3 136/336/3 142/242/3
f 106/201/6 122/200/6 123/244/6
f 112/245/6 128/263/6 117/246/6
f 103/248/6 108/253/6 124/249/6
f 98/199/6 97/198/6 113/197/6
f 110/252/6 126/259/6 124/249/6
f 100/254/6 116/257/6 125/255/6
f 99/256/6 115/261/6 116/257/6
f 104/258/6 120/262/6 126/259/6
f 101/247/6 117/246/6 118/260/6
f 111/204/6 127/203/6 115/261/6
f 103/248/6 119/250/6 120/262/6
f 105/207/6 121/206/6 128/263/6
f 142/264/8 136/337/8 135/265/8
f 139/267/8 138/338/8 130/268/8
f 131/270/8 143/339/8 141/271/8
f 134/273/8 133/340/8 144/274/8
f 121/276/1 137/341/1 144/277/1
f 118/279/2 134/342/2 137/280/2
f 125/282/4 141/343/4 143/283/4
f 114/285/4 130/344/4 138/286/4
f 123/288/2 139/345/2 129/289/2
f 122/291/3 138/346/3 139/292/3
f 128/294/4 144/347/4 133/295/4
f 124/297/1 140/348/1 135/298/1
f 113/300/1 129/349/1 130/301/1
f 126/303/2 142/350/2 140/304/2
f 116/306/1 132/351/1 141/307/1
f 115/309/2 131/352/2 132/310/2
