# Blender v2.92.0 OBJ File: 'airShipStuff.blend'
# www.blender.org
mtllib sandDigSpot.mtl
o Icosphere
v 1.151276 0.006599 -0.572829
v -0.667633 0.048602 1.183579
v -0.042428 0.008510 -1.288153
v 0.016186 0.472891 0.696006
v -0.449498 0.376926 0.561504
v -0.533702 0.458191 -0.377198
v 0.511026 -0.016289 -1.144955
v -0.901685 0.021295 -0.935007
v -1.177949 0.012515 0.578940
v -0.127088 0.008168 1.272942
v 1.182508 -0.032226 0.299059
v -0.987392 0.008585 0.814340
v 1.265316 -0.004670 -0.112320
v 0.480130 0.297472 0.671230
v -0.904677 0.128005 -0.357594
v -0.132968 0.223749 0.901850
v -0.066512 0.465627 -0.557348
v -0.309868 0.514855 -0.036647
v -0.635815 0.337621 0.232429
v -0.339762 0.563054 0.286898
v 0.182197 0.564525 0.390270
v 0.642864 0.308565 -0.657545
v -0.408651 0.285331 -0.705984
v -1.195009 -0.035928 -0.189208
v 0.937387 -0.016567 0.824415
v 0.783488 0.199393 0.481744
v -1.164870 0.014164 -0.549276
v 0.671179 0.002328 1.079045
v 0.668873 0.473004 0.031067
v 0.415716 0.539382 -0.297629
v -0.085101 0.651825 0.152281
v 0.970117 0.104788 -0.344323
v 0.977619 0.015281 -0.871389
v -0.224259 0.234542 -0.936143
v -0.537954 -0.015918 -1.140174
v -0.805919 0.360357 -0.036479
v -1.270188 0.008660 0.159396
v -0.548187 0.245250 0.873200
v 1.168824 0.033532 0.603880
v 0.303447 0.219094 -0.889293
v -0.861497 0.228679 -0.611705
v -0.742863 0.121013 0.639598
v 0.182090 -0.036263 1.197424
v 1.066841 0.212778 0.173881
v 0.421984 0.079917 1.320487
vt 0.276993 0.591390
vt 0.293400 0.594269
vt 0.287227 0.598301
vt 0.299190 0.646687
vt 0.303420 0.651268
vt 0.297671 0.653790
vt 0.309030 0.644124
vt 0.311545 0.651612
vt 0.272110 0.638169
vt 0.272110 0.648297
vt 0.268706 0.642517
vt 0.284813 0.624233
vt 0.284813 0.640338
vt 0.280028 0.630303
vt 0.262757 0.640241
vt 0.268706 0.627240
vt 0.268706 0.641007
vt 0.277449 0.639773
vt 0.315002 0.590075
vt 0.302402 0.596852
vt 0.305283 0.586128
vt 0.328687 0.606689
vt 0.318129 0.606627
vt 0.323456 0.597448
vt 0.310942 0.598668
vt 0.307967 0.610801
vt 0.317111 0.612662
vt 0.330526 0.615133
vt 0.319132 0.631053
vt 0.306224 0.638345
vt 0.314065 0.626776
vt 0.306248 0.630109
vt 0.297132 0.638350
vt 0.324415 0.638143
vt 0.286209 0.623648
vt 0.297132 0.615249
vt 0.296965 0.624233
vt 0.288994 0.613980
vt 0.278309 0.605846
vt 0.271430 0.602784
vt 0.291387 0.639144
vt 0.284813 0.624579
vt 0.291387 0.624233
vt 0.289201 0.605716
vt 0.295454 0.624233
vt 0.295454 0.635004
vt 0.291387 0.628832
vt 0.300445 0.628244
vt 0.319589 0.646015
vt 0.319211 0.653194
vt 0.260000 0.632979
vt 0.263934 0.624233
vt 0.296890 0.642354
vt 0.291387 0.642354
vt 0.294818 0.635004
vt 0.297500 0.606885
vt 0.297132 0.621034
vt 0.312183 0.620134
vt 0.322922 0.620291
vt 0.307660 0.622734
vt 0.304475 0.621034
vt 0.296916 0.607417
vt 0.297132 0.599248
vt 0.271769 0.630021
vt 0.276672 0.624233
vt 0.277449 0.638169
vt 0.326231 0.643935
vt 0.260000 0.593854
vt 0.266295 0.596027
vt 0.261137 0.601547
vt 0.282670 0.586128
vt 0.279833 0.621564
vt 0.268706 0.638169
vt 0.265840 0.611239
vt 0.271051 0.616496
vt 0.299495 0.621034
vt 0.262107 0.605589
vt 0.328124 0.653790
vt 0.276644 0.620482
vn 0.2425 0.9667 0.0822
vn -0.4038 0.8987 -0.1712
vn -0.6149 0.7448 0.2592
vn 0.3128 0.9371 -0.1547
vn 0.6060 0.7861 -0.1217
vn 0.5755 0.7652 -0.2887
vn 0.6076 0.7844 -0.1246
vn 0.2910 0.7579 -0.5839
vn -0.2183 0.7660 -0.6046
vn 0.0706 0.8555 -0.5129
vn 0.0726 0.8377 -0.5413
vn -0.3509 0.8151 -0.4610
vn -0.2058 0.8317 -0.5157
vn -0.2773 0.8672 -0.4136
vn -0.6477 0.7256 -0.2325
vn -0.6411 0.7018 -0.3107
vn -0.2972 0.9541 0.0366
vn -0.5677 0.8148 0.1173
vn -0.0239 0.8486 0.5285
vn 0.0101 0.8647 0.5022
vn 0.4600 0.8339 0.3048
vn -0.5172 0.8244 0.2299
vn 0.2429 0.5273 0.8142
vn 0.4348 0.8841 -0.1712
vn 0.1856 0.7934 -0.5798
vn -0.6483 0.7392 0.1827
vn -0.6338 0.7638 0.1220
vn 0.5929 0.7591 -0.2689
vn 0.5118 0.8170 -0.2658
vn 0.3989 0.9138 -0.0764
vn 0.1248 0.8691 -0.4786
vn 0.1864 0.7935 -0.5793
vn -0.0111 0.9671 -0.2541
vn -0.2125 0.8293 -0.5168
vn -0.2104 0.8345 -0.5092
vn -0.2114 0.8297 -0.5166
vn -0.5549 0.8159 -0.1624
vn -0.3446 0.9058 -0.2467
vn -0.5985 0.7618 0.2479
vn -0.1070 0.8424 0.5282
vn -0.2423 0.9577 0.1555
vn -0.0873 0.8995 0.4280
vn -0.2656 0.9361 0.2306
vn 0.8414 0.5009 0.2029
vn 0.2333 0.9723 0.0167
vn -0.0633 0.9904 -0.1232
vn -0.5765 0.7987 -0.1723
vn 0.1574 0.8186 0.5524
vn -0.3265 0.7105 0.6234
vn 0.0203 0.9187 0.3945
vn 0.4639 0.8285 0.3138
vn 0.4296 0.8151 0.3887
vn 0.3388 0.8347 0.4341
vn -0.5912 0.7926 -0.1495
vn 0.2331 0.8665 0.4414
vn -0.4852 0.8555 0.1810
vn -0.3122 0.8860 0.3428
vn 0.5433 0.7802 0.3101
vn 0.1183 0.8557 -0.5037
vn -0.2871 0.9221 0.2596
vn 0.4796 0.7388 0.4735
vn 0.4361 0.8142 0.3834
usemtl Material.064
s off
f 29/1/1 31/2/1 21/3/1
f 18/4/2 20/5/2 31/6/2
f 20/5/3 19/7/3 5/8/3
f 33/9/4 32/10/4 1/11/4
f 30/12/5 32/13/5 22/14/5
f 29/15/6 32/16/6 30/17/6
f 22/14/7 32/13/7 33/18/7
f 7/19/8 22/20/8 33/21/8
f 35/22/9 34/23/9 3/24/9
f 3/24/10 34/23/10 40/25/10
f 40/25/11 34/23/11 17/26/11
f 35/22/12 23/27/12 34/23/12
f 8/28/13 23/27/13 35/22/13
f 34/23/14 23/27/14 17/26/14
f 37/29/15 36/30/15 24/31/15
f 15/32/16 36/30/16 6/33/16
f 6/33/17 36/30/17 18/4/17
f 9/34/18 36/30/18 37/29/18
f 10/35/19 38/36/19 2/37/19
f 16/38/20 38/36/20 10/35/20
f 14/39/21 26/40/21 21/3/21
f 14/41/22 43/42/22 45/43/22
f 14/39/23 4/44/23 16/38/23
f 11/45/24 26/46/24 39/47/24
f 3/24/25 40/25/25 7/19/25
f 41/48/26 15/32/26 6/33/26
f 42/49/27 38/50/27 5/8/27
f 44/51/28 32/16/28 29/15/28
f 13/52/29 32/16/29 44/51/29
f 1/53/30 32/54/30 13/55/30
f 30/56/31 22/20/31 17/26/31
f 40/25/32 22/20/32 7/19/32
f 17/26/33 31/57/33 30/56/33
f 17/26/34 23/27/34 6/58/34
f 41/59/35 23/27/35 8/28/35
f 6/58/36 23/27/36 41/59/36
f 36/30/37 15/32/37 27/60/37 24/31/37
f 18/61/38 31/57/38 17/26/38
f 5/8/39 19/7/39 42/49/39
f 5/62/40 21/3/40 20/63/40
f 4/64/41 21/65/41 5/66/41
f 20/63/42 21/3/42 31/2/42
f 12/67/43 42/49/43 9/34/43
f 13/68/44 44/69/44 11/70/44
f 30/71/45 31/2/45 29/1/45
f 17/26/46 6/58/46 18/61/46
f 19/7/47 20/5/47 18/4/47
f 16/38/48 10/35/48 43/72/48 14/39/48
f 4/64/49 5/66/49 16/73/49
f 5/62/50 38/36/50 16/38/50
f 25/74/51 26/40/51 14/39/51
f 28/75/52 25/74/52 14/39/52
f 14/39/53 21/3/53 4/44/53
f 15/32/54 41/48/54 8/76/54 27/60/54
f 25/74/55 39/77/55 26/40/55
f 12/67/56 2/78/56 38/50/56 42/49/56
f 36/30/57 9/34/57 42/49/57 19/7/57
f 28/75/58 14/39/58 45/79/58
f 40/25/59 17/26/59 22/20/59
f 18/4/60 36/30/60 19/7/60
f 26/40/61 11/70/61 44/69/61 29/1/61
f 21/3/62 26/40/62 29/1/62
