# Blender v2.92.0 OBJ File: 'airShipStuff.blend'
# www.blender.org
mtllib shovel.mtl
o Cylinder
v 0.000000 -1.579653 -0.028289
v 0.000000 0.073654 -0.073654
v 0.063786 -1.579653 -0.028484
v 0.063786 0.073654 -0.036827
v 0.063786 -1.579653 0.028482
v 0.063786 0.073654 0.036827
v -0.000000 -1.579653 0.028283
v -0.000000 0.073654 0.073654
v -0.063786 -1.579653 0.028482
v -0.063786 0.073654 0.036827
v -0.063786 -1.579653 -0.028484
v -0.063786 0.073654 -0.036827
v 0.000000 -1.484394 -0.073654
v 0.063786 -1.484394 -0.036827
v 0.063786 -1.484394 0.036827
v -0.000000 -1.484394 0.073654
v -0.063786 -1.484394 0.036827
v -0.063786 -1.484394 -0.036827
v -0.078837 0.035542 0.078832
v -0.078837 0.497567 0.078832
v -0.078837 0.035542 -0.078841
v -0.078837 0.497567 -0.078841
v 0.078837 0.035542 0.078832
v 0.078837 0.497567 0.078832
v 0.078837 0.035542 -0.078841
v 0.078837 0.497567 -0.078841
v -0.358457 -1.695539 0.077353
v -0.358457 -1.578856 0.078832
v -0.358457 -1.695539 -0.077362
v -0.358457 -1.578856 -0.078841
v -0.300522 -2.099049 0.057193
v -0.300522 -2.099049 -0.057202
v -0.157914 -2.298373 0.042067
v -0.157914 -2.298373 -0.042076
v -0.238971 -1.695539 0.075487
v -0.119486 -1.695539 0.073975
v -0.119486 -1.695539 -0.073984
v -0.238971 -1.695539 -0.075496
v 0.358457 -1.695539 0.077353
v 0.358457 -1.578856 0.078832
v 0.358457 -1.695539 -0.077362
v 0.358457 -1.578856 -0.078841
v 0.000000 -1.695539 -0.073412
v 0.000000 -1.578856 -0.077750
v 0.000000 -1.695539 0.073403
v 0.000000 -1.578856 0.077741
v 0.300522 -2.099049 0.057193
v 0.300522 -2.099049 -0.057202
v 0.157914 -2.298373 0.042067
v 0.157914 -2.298373 -0.042076
v 0.000000 -2.395604 0.036923
v 0.000000 -2.395604 -0.036932
v 0.238971 -1.695539 0.075487
v 0.119486 -1.695539 0.073975
v 0.119486 -1.695539 -0.073984
v 0.238971 -1.695539 -0.075496
vt 0.087912 0.658459
vt 0.084458 0.572099
vt 0.087891 0.572140
vt 0.102691 0.658388
vt 0.098609 0.572089
vt 0.102691 0.572089
vt 0.091540 0.566834
vt 0.095075 0.653142
vt 0.091540 0.653164
vt 0.095075 0.566813
vt 0.098609 0.653164
vt 0.045451 0.626256
vt 0.041917 0.632378
vt 0.038382 0.626256
vt 0.106772 0.658388
vt 0.102691 0.572089
vt 0.106772 0.572089
vt 0.091540 0.658422
vt 0.091519 0.572104
vt 0.083669 0.610027
vt 0.080534 0.610027
vt 0.083680 0.606493
vt 0.088010 0.566815
vt 0.091540 0.566817
vt 0.106310 0.566813
vt 0.103153 0.566813
vt 0.095075 0.658447
vt 0.098609 0.658447
vt 0.091540 0.658447
vt 0.099072 0.566813
vt 0.102228 0.566813
vt 0.084479 0.566813
vt 0.061412 0.387142
vt 0.059960 0.382890
vt 0.061412 0.382890
vt 0.068002 0.387948
vt 0.066553 0.383694
vt 0.068002 0.383695
vt 0.065335 0.385795
vt 0.063883 0.381543
vt 0.065335 0.381543
vt 0.065335 0.381543
vt 0.063883 0.377290
vt 0.065335 0.377290
vt 0.069454 0.383694
vt 0.068002 0.385146
vt 0.070911 0.383853
vt 0.069460 0.385305
vt 0.069460 0.383853
vt 0.068688 0.419397
vt 0.061513 0.429007
vt 0.061513 0.419488
vt 0.070849 0.404026
vt 0.078029 0.389325
vt 0.078030 0.396675
vt 0.125000 0.425833
vt 0.115367 0.403780
vt 0.124933 0.403780
vt 0.134311 0.396429
vt 0.125208 0.396429
vt 0.125115 0.389078
vt 0.088530 0.374792
vt 0.073845 0.381972
vt 0.081192 0.374791
vt 0.061330 0.419397
vt 0.060090 0.394481
vt 0.053052 0.394481
vt 0.059160 0.381974
vt 0.053983 0.381974
vt 0.087731 0.401404
vt 0.092908 0.401404
vt 0.092591 0.391689
vt 0.138884 0.345020
vt 0.138881 0.337672
vt 0.114085 0.341317
vt 0.138886 0.352367
vt 0.101843 0.350137
vt 0.095870 0.359863
vt 0.138888 0.359712
vt 0.092344 0.349951
vt 0.095867 0.374795
vt 0.095870 0.387705
vt 0.098232 0.424770
vt 0.105583 0.424771
vt 0.087731 0.410558
vt 0.094907 0.420167
vt 0.087731 0.420076
vt 0.070849 0.426079
vt 0.078029 0.418728
vt 0.125000 0.381728
vt 0.125115 0.418482
vt 0.125208 0.411131
vt 0.134311 0.411131
vt 0.051814 0.381974
vt 0.059160 0.374792
vt 0.061330 0.419397
vt 0.070849 0.419397
vt 0.069609 0.394481
vt 0.062571 0.394481
vt 0.068678 0.381974
vt 0.092908 0.381974
vt 0.087731 0.381974
vt 0.138887 0.374390
vt 0.114089 0.378252
vt 0.138885 0.381728
vt 0.138888 0.367052
vt 0.101845 0.369545
vt 0.051812 0.374795
vt 0.055409 0.349951
vt 0.066507 0.374791
vt 0.064205 0.337672
vt 0.115300 0.387706
vt 0.105585 0.381728
vt 0.084479 0.658418
vt 0.098609 0.658388
vt 0.098609 0.566834
vt 0.041917 0.624215
vt 0.045451 0.630337
vt 0.038382 0.630337
vt 0.102691 0.658388
vt 0.083680 0.613562
vt 0.080523 0.613562
vt 0.080523 0.606493
vt 0.059960 0.387142
vt 0.066553 0.387947
vt 0.063883 0.385795
vt 0.063883 0.381543
vt 0.069454 0.385146
vt 0.070911 0.385305
vt 0.068688 0.429098
vt 0.078030 0.404026
vt 0.070849 0.381974
vt 0.078028 0.381974
vt 0.115300 0.425833
vt 0.125000 0.381728
vt 0.134519 0.381728
vt 0.134404 0.389078
vt 0.134276 0.403780
vt 0.125243 0.403780
vt 0.095870 0.381974
vt 0.073851 0.374790
vt 0.051812 0.419397
vt 0.088047 0.391689
vt 0.083613 0.337672
vt 0.094907 0.410467
vt 0.078030 0.411377
vt 0.078028 0.426079
vt 0.115300 0.381728
vt 0.134404 0.418482
vt 0.134519 0.425833
vt 0.125000 0.425833
vt 0.063501 0.381974
vt 0.112934 0.424771
vn 0.5000 0.0000 -0.8660
vn 1.0000 0.0000 0.0000
vn 0.5000 0.0000 0.8660
vn -0.5000 0.0000 0.8660
vn 0.0000 1.0000 0.0000
vn -1.0000 0.0000 0.0000
vn -0.5000 0.0000 -0.8660
vn 0.0000 -1.0000 0.0000
vn 0.0030 -0.0873 -0.9962
vn 0.0031 -0.0873 0.9962
vn -0.0031 -0.0873 0.9962
vn -0.0030 -0.0873 -0.9962
vn 0.0000 0.0000 -1.0000
vn 0.0000 0.0000 1.0000
vn 0.0126 -0.0452 0.9989
vn 0.0126 -0.0452 -0.9989
vn -0.9898 -0.1421 0.0000
vn -0.8133 -0.5819 0.0000
vn -0.5243 -0.8515 0.0000
vn 0.0156 -0.0477 0.9987
vn 0.0126 -0.0472 0.9988
vn 0.0005 -0.0520 0.9986
vn 0.0156 -0.0477 -0.9987
vn 0.0126 -0.0472 -0.9988
vn 0.0048 -0.0532 -0.9986
vn -0.0030 -0.0255 0.9997
vn -0.0030 -0.0255 -0.9997
vn 0.9898 -0.1421 0.0000
vn 0.8133 -0.5819 0.0000
vn 0.5243 -0.8515 0.0000
vn -0.0156 -0.0477 0.9987
vn -0.0294 -0.0547 0.9981
vn -0.0005 -0.0520 0.9986
vn -0.0156 -0.0477 -0.9987
vn -0.0294 -0.0547 -0.9981
vn -0.0005 -0.0520 -0.9986
vn -0.4622 -0.3813 -0.8006
vn -0.4622 -0.3813 0.8006
vn 0.4622 -0.3813 0.8006
vn 0.4622 -0.3813 -0.8006
vn 0.0048 -0.0371 0.9993
vn 0.0030 -0.0255 0.9997
vn 0.0156 -0.0127 0.9998
vn 0.0156 -0.0127 -0.9998
vn 0.0030 -0.0255 -0.9997
vn 0.0048 -0.0371 -0.9993
vn 0.0294 -0.0547 0.9981
vn 0.0048 -0.0532 0.9986
vn 0.0294 -0.0547 -0.9981
vn 0.0005 -0.0520 -0.9986
vn -0.0048 -0.0371 0.9993
vn -0.0126 -0.0452 0.9989
vn -0.0156 -0.0127 0.9998
vn -0.0156 -0.0127 -0.9998
vn -0.0126 -0.0452 -0.9989
vn -0.0048 -0.0371 -0.9993
vn -0.0126 -0.0472 0.9988
vn -0.0048 -0.0532 0.9986
vn -0.0126 -0.0472 -0.9988
vn -0.0048 -0.0532 -0.9986
usemtl Material.055
s off
f 2/1/1 14/2/1 13/3/1
f 4/4/2 15/5/2 14/6/2
f 6/7/3 16/8/3 15/9/3
f 8/10/4 17/11/4 16/8/4
f 2/12/5 10/13/5 6/14/5
f 10/15/6 18/16/6 17/17/6
f 12/18/7 13/3/7 18/19/7
f 1/20/8 7/21/8 11/22/8
f 18/19/9 1/23/9 11/24/9
f 9/25/6 18/16/6 11/26/6
f 7/27/10 17/11/10 9/28/10
f 15/9/11 7/27/11 5/29/11
f 14/6/2 5/30/2 3/31/2
f 1/23/12 14/2/12 3/32/12
f 20/33/6 21/34/6 19/35/6
f 22/36/13 25/37/13 21/38/13
f 26/39/2 23/40/2 25/41/2
f 24/42/14 19/43/14 23/44/14
f 25/45/8 19/46/8 21/38/8
f 22/47/5 24/48/5 26/49/5
f 28/50/6 29/51/6 27/52/6
f 46/53/15 35/54/15 36/55/15
f 30/56/5 46/57/5 44/58/5
f 37/59/8 36/60/8 35/61/8
f 38/62/16 44/63/16 37/64/16
f 29/65/17 32/66/17 31/67/17
f 32/66/18 34/68/18 33/69/18
f 33/70/19 34/71/19 52/72/19
f 35/73/20 27/74/20 31/75/20
f 36/76/21 35/73/21 31/75/21
f 33/77/22 51/78/22 45/79/22
f 38/62/23 32/80/23 29/81/23
f 37/64/24 32/80/24 38/62/24
f 34/82/25 37/83/25 43/84/25
f 41/85/2 40/86/2 39/87/2
f 40/88/26 46/53/26 53/89/26
f 46/57/5 42/90/5 44/58/5
f 53/91/8 54/92/8 55/93/8
f 44/63/27 42/94/27 56/95/27
f 41/96/28 39/97/28 47/98/28
f 48/99/29 47/98/29 49/100/29
f 52/72/30 50/101/30 49/102/30
f 53/103/31 47/104/31 39/105/31
f 54/106/32 49/107/32 47/104/32
f 45/79/33 51/78/33 49/107/33
f 56/95/34 41/108/34 48/109/34
f 55/110/35 48/109/35 50/111/35
f 50/112/36 52/113/36 43/84/36
f 2/1/1 4/114/1 14/2/1
f 4/4/2 6/115/2 15/5/2
f 6/7/3 8/10/3 16/8/3
f 8/10/4 10/116/4 17/11/4
f 6/14/5 4/117/5 2/12/5
f 2/12/5 12/118/5 10/13/5
f 10/13/5 8/119/5 6/14/5
f 10/15/6 12/120/6 18/16/6
f 12/18/7 2/1/7 13/3/7
f 1/20/8 3/121/8 7/21/8
f 3/121/8 5/122/8 7/21/8
f 7/21/8 9/123/8 11/22/8
f 18/19/37 13/3/37 1/23/37
f 9/25/6 17/17/6 18/16/6
f 7/27/38 16/8/38 17/11/38
f 15/9/39 16/8/39 7/27/39
f 14/6/2 15/5/2 5/30/2
f 1/23/40 13/3/40 14/2/40
f 20/33/6 22/124/6 21/34/6
f 22/36/13 26/125/13 25/37/13
f 26/39/2 24/126/2 23/40/2
f 24/42/14 20/127/14 19/43/14
f 25/45/8 23/128/8 19/46/8
f 22/47/5 20/129/5 24/48/5
f 28/50/6 30/130/6 29/51/6
f 36/55/41 45/131/41 46/53/41
f 46/53/42 28/132/42 35/54/42
f 28/132/43 27/133/43 35/54/43
f 30/56/5 28/134/5 46/57/5
f 27/135/8 29/136/8 38/137/8
f 37/59/8 43/138/8 45/139/8
f 27/135/8 38/137/8 35/61/8
f 38/137/8 37/59/8 35/61/8
f 37/59/8 45/139/8 36/60/8
f 38/62/44 29/81/44 30/140/44
f 30/140/45 44/63/45 38/62/45
f 44/63/46 43/141/46 37/64/46
f 29/65/17 31/67/17 27/142/17
f 32/66/18 33/69/18 31/67/18
f 33/70/19 52/72/19 51/143/19
f 36/76/47 31/75/47 33/77/47
f 33/77/48 45/79/48 36/76/48
f 37/64/49 34/144/49 32/80/49
f 34/82/50 43/84/50 52/113/50
f 41/85/2 42/145/2 40/86/2
f 46/53/51 45/131/51 54/146/51
f 54/146/52 53/89/52 46/53/52
f 53/89/53 39/147/53 40/88/53
f 46/57/5 40/148/5 42/90/5
f 56/149/8 41/150/8 39/151/8
f 56/149/8 39/151/8 53/91/8
f 45/139/8 43/138/8 55/93/8
f 55/93/8 56/149/8 53/91/8
f 54/92/8 45/139/8 55/93/8
f 42/94/54 41/108/54 56/95/54
f 56/95/55 55/110/55 44/63/55
f 55/110/56 43/141/56 44/63/56
f 41/96/28 47/98/28 48/99/28
f 48/99/29 49/100/29 50/152/29
f 52/72/30 49/102/30 51/143/30
f 54/106/57 47/104/57 53/103/57
f 45/79/58 49/107/58 54/106/58
f 55/110/59 56/95/59 48/109/59
f 50/112/60 43/84/60 55/153/60
