# Blender v2.92.0 OBJ File: 'airShipStuff.blend'
# www.blender.org
mtllib DeadBush1.mtl
o Cube.011_Cube.004
v -0.113341 -0.006857 0.050972
v -0.036332 1.509408 0.520807
v -0.240389 1.416123 -0.424294
v 0.609337 1.362328 0.085282
v 0.558349 1.403897 0.035355
v -0.050627 -0.006857 -0.113495
v 0.113341 0.006857 -0.050972
v 0.050627 0.006857 0.113495
v -0.150303 0.584361 0.028730
v 0.033275 0.652464 0.093968
v -0.023010 0.971961 0.403582
v -0.122692 0.804667 0.022334
v -0.142057 0.977103 0.398909
v -0.134733 1.044629 0.299984
v -0.015553 1.045851 0.305978
v -0.039572 1.485627 0.582458
v -0.076447 0.648081 -0.148960
v -0.315784 0.947258 -0.300707
v 0.012956 0.794220 -0.074947
v -0.209058 0.942751 -0.367752
v -0.146745 1.010347 -0.276906
v -0.251432 1.004325 -0.204651
v -0.296634 1.422007 -0.390098
v 0.081389 0.640822 -0.062090
v 0.403628 0.877201 0.035452
v 0.008979 0.807553 0.060712
v 0.381759 0.886837 0.164340
v 0.286388 0.972941 0.139051
v 0.309440 0.965146 0.011790
v 0.617769 1.350796 0.013675
vt 0.883083 0.871515
vt 0.880447 0.865710
vt 0.887042 0.865831
vt 0.906685 0.904524
vt 0.911759 0.905509
vt 0.907509 0.906887
vt 0.921076 0.908961
vt 0.914628 0.902277
vt 0.921076 0.902289
vt 0.905466 0.874026
vt 0.900591 0.880350
vt 0.897336 0.860778
vt 0.929324 0.852223
vt 0.933677 0.841188
vt 0.933677 0.851345
vt 0.893906 0.876374
vt 0.913997 0.875539
vt 0.913997 0.889173
vt 0.911759 0.877731
vt 0.895575 0.894098
vt 0.890791 0.879165
vt 0.877477 0.910119
vt 0.871290 0.909757
vt 0.872519 0.894797
vt 0.905466 0.894120
vt 0.871386 0.878016
vt 0.867704 0.874697
vt 0.869905 0.914312
vt 0.868527 0.912464
vt 0.871290 0.912349
vt 0.922154 0.881341
vt 0.928923 0.899805
vt 0.922557 0.900949
vt 0.885766 0.841188
vt 0.879165 0.841777
vt 0.922110 0.841609
vt 0.928619 0.865674
vt 0.922098 0.865674
vt 0.915515 0.902271
vt 0.922154 0.879840
vt 0.922154 0.902277
vt 0.860023 0.907417
vt 0.866326 0.895757
vt 0.866326 0.912050
vt 0.922098 0.845523
vt 0.914628 0.857865
vt 0.917911 0.841188
vt 0.928619 0.842371
vt 0.901726 0.861079
vt 0.903108 0.841188
vt 0.905466 0.841902
vt 0.887064 0.894471
vt 0.887064 0.914094
vt 0.882817 0.912953
vt 0.919264 0.858174
vt 0.919652 0.877828
vt 0.931877 0.870280
vt 0.894446 0.905320
vt 0.890086 0.900418
vt 0.894446 0.894471
vt 0.877477 0.905214
vt 0.882817 0.894471
vt 0.882817 0.911723
vt 0.922098 0.874048
vt 0.925665 0.865674
vt 0.925665 0.876722
vt 0.897336 0.894471
vt 0.887064 0.910759
vt 0.890086 0.894801
vt 0.890086 0.912094
vt 0.914628 0.871840
vt 0.905466 0.860002
vt 0.910422 0.859977
vt 0.905324 0.903544
vt 0.897336 0.888783
vt 0.901965 0.888975
vt 0.877477 0.894471
vt 0.871290 0.894674
vt 0.866326 0.894471
vt 0.910328 0.894576
vt 0.911746 0.841188
vt 0.914628 0.841468
vt 0.860023 0.892352
vt 0.911759 0.875539
vt 0.914628 0.908949
vt 0.928923 0.877828
vt 0.928237 0.841188
vt 0.914628 0.877828
vt 0.862304 0.894471
vt 0.922098 0.877306
vt 0.897228 0.876836
vt 0.905324 0.880350
vt 0.888488 0.894471
vt 0.909829 0.875539
vt 0.862014 0.894471
vn 0.4823 0.1427 -0.8643
vn 0.0066 0.9952 -0.0976
vn 0.0728 -0.9970 0.0278
vn -0.9870 0.1206 -0.1060
vn 0.0251 0.7569 -0.6531
vn 0.7547 -0.1368 -0.6416
vn 0.3365 0.7636 0.5511
vn 0.8287 -0.0120 -0.5595
vn 0.5312 -0.8169 0.2247
vn -0.4887 0.8668 -0.0995
vn 0.2667 0.0264 -0.9634
vn 0.6568 0.7528 -0.0439
vn -0.9320 -0.0716 -0.3554
vn 0.3562 0.0016 -0.9344
vn 0.9330 0.0533 0.3558
vn -0.3572 0.0128 0.9339
vn -0.0042 -0.6858 0.7277
vn 0.9873 0.1582 0.0163
vn 0.1813 0.7143 -0.6759
vn -0.9803 0.1961 0.0241
vn -0.9980 0.0198 -0.0604
vn -0.0512 -0.3299 0.9426
vn 0.9968 0.0044 0.0795
vn 0.0412 0.4216 -0.9058
vn -0.5535 -0.6839 -0.4753
vn -0.8280 0.1197 0.5478
vn 0.3970 0.7890 0.4689
vn -0.5250 -0.1351 -0.8403
vn 0.8072 0.0467 -0.5884
vn 0.5063 0.3951 0.7665
vn -0.2656 -0.0111 0.9640
vn -0.8575 0.1284 0.4982
vn 0.2644 0.0372 -0.9637
vn 0.5302 -0.8341 0.1523
vn 0.8984 -0.3997 0.1823
vn -0.4642 0.8750 -0.1377
vn -0.4102 0.4498 0.7934
vn 0.1440 -0.1103 -0.9834
vn -0.8506 0.4925 -0.1842
vn -0.9144 -0.0577 -0.4008
vn 0.4810 -0.0285 -0.8763
vn 0.9558 0.0345 0.2921
vn -0.3411 0.0193 0.9398
vn -0.0582 -0.7000 0.7118
vn 0.9962 0.0136 0.0864
vn -0.9824 0.1799 0.0501
vn 0.9981 0.0173 0.0591
vn -0.4215 -0.6552 -0.6269
vn -0.8452 0.0589 0.5312
vn -0.5311 -0.1360 -0.8363
vn 0.5070 0.3952 0.7660
vn -0.2952 0.1559 0.9426
vn 0.9008 -0.3995 0.1704
vn -0.0785 0.1999 0.9767
vn -0.2029 0.1669 -0.9649
usemtl Material.033
s off
f 19/1/1 24/2/1 17/3/1
f 26/4/2 19/5/2 12/6/2
f 8/7/3 6/8/3 7/9/3
f 12/10/4 9/11/4 13/12/4
f 15/13/5 12/14/5 14/15/5
f 19/1/6 17/3/6 20/16/6
f 22/17/7 19/18/7 21/19/7
f 3/20/8 21/21/8 20/16/8
f 10/22/9 24/23/9 25/24/9
f 19/5/10 26/4/10 28/25/10
f 29/26/11 25/27/11 19/1/11
f 5/28/12 4/29/12 30/30/12
f 9/31/13 6/32/13 1/33/13
f 6/34/14 24/2/14 7/35/14
f 24/36/15 8/37/15 7/38/15
f 8/39/16 9/40/16 1/41/16
f 10/42/17 13/43/17 9/44/17
f 26/45/18 11/46/18 10/47/18
f 12/14/19 15/13/19 26/48/19
f 14/49/20 16/50/20 2/51/20
f 13/12/21 14/49/21 12/10/21
f 16/52/22 13/53/22 11/54/22
f 15/55/23 16/56/23 11/46/23
f 2/57/24 15/13/24 14/15/24
f 18/58/25 17/59/25 9/60/25
f 12/61/26 18/62/26 9/63/26
f 19/64/27 22/65/27 12/66/27
f 20/16/28 23/67/28 3/20/28
f 21/21/29 19/1/29 20/16/29
f 21/68/30 23/69/30 22/70/30
f 26/71/31 27/72/31 28/73/31
f 23/74/32 18/75/32 22/76/32
f 19/1/33 25/27/33 24/2/33
f 27/77/34 10/22/34 25/24/34
f 25/78/35 4/29/35 27/79/35
f 29/80/36 19/5/36 28/25/36
f 28/73/37 4/81/37 5/82/37
f 29/26/38 30/83/38 25/27/38
f 5/84/39 29/80/39 28/25/39
f 8/7/3 1/85/3 6/8/3
f 9/31/40 17/86/40 6/32/40
f 6/34/41 17/3/41 24/2/41
f 24/36/42 10/87/42 8/37/42
f 8/39/43 10/88/43 9/40/43
f 10/42/44 11/89/44 13/43/44
f 26/45/45 15/55/45 11/46/45
f 14/49/46 13/12/46 16/50/46
f 15/55/47 2/90/47 16/56/47
f 18/91/48 20/16/48 17/3/48
f 12/92/49 22/76/49 18/75/49
f 20/16/50 18/91/50 23/67/50
f 21/68/51 3/93/51 23/69/51
f 26/71/52 10/94/52 27/72/52
f 25/78/53 30/30/53 4/29/53
f 28/73/54 27/72/54 4/81/54
f 29/26/55 5/95/55 30/83/55
