# Blender v2.92.0 OBJ File: 'airShipStuff.blend'
# www.blender.org
mtllib Island2BridgeCollision.mtl
o Cube.012_Cube.005
v -0.943870 -6.921314 1.854975
v -0.658759 -6.143019 1.819271
v -0.820697 -7.141906 -1.970024
v -0.535586 -6.363611 -2.005728
v 0.939492 -7.606646 1.955147
v 1.224603 -6.828351 1.919443
v 1.062665 -7.827237 -1.869852
v 1.347776 -7.030392 -1.905556
v 3.778185 -7.776057 -1.776287
v 3.493074 -8.711633 -1.740584
v 3.369901 -8.491041 2.084416
v 3.655012 -7.712746 2.048712
v 7.510356 -8.452174 -1.776288
v 7.225245 -9.363281 -1.740584
v 7.102073 -9.142690 2.084415
v 7.387183 -8.364395 2.048712
v 9.958976 -8.328566 -1.776287
v 9.673865 -9.244800 -1.740583
v 9.550693 -9.024208 2.084415
v 9.835803 -8.245914 2.048712
v 12.427344 -8.107216 -1.776287
v 12.142233 -9.067078 -1.740584
v 12.019060 -8.846486 2.084415
v 12.304172 -8.068192 2.048712
v 14.816725 -7.674620 -1.776287
v 14.531614 -8.711633 -1.740583
v 14.408441 -8.491041 2.084416
v 14.693551 -7.712746 2.048712
v 18.147146 -6.620185 -1.687197
v 17.862036 -7.398480 -1.651493
v 17.738863 -7.177889 2.173506
v 18.245028 -6.953184 2.343443
v -1.516364 -7.260613 -1.822845
v -1.639537 -7.040022 2.002154
v -1.354426 -6.261727 1.966450
v -1.231253 -6.482319 -1.858549
v 18.735447 -6.767337 -1.728254
v 18.450336 -7.545632 -1.692550
v 18.327164 -7.325040 2.132449
v 18.833326 -7.100336 2.302386
vt 0.095882 0.671902
vt 0.104276 0.671804
vt 0.103894 0.674686
vt 0.095500 0.674785
vt 0.080611 0.592794
vt 0.083903 0.593947
vt 0.081198 0.601900
vt 0.077828 0.600748
vt 0.103951 0.663780
vt 0.095552 0.663876
vt 0.095127 0.653518
vt 0.103562 0.653445
vt 0.089234 0.664919
vt 0.092554 0.663862
vt 0.095096 0.671894
vt 0.091775 0.672951
vt 0.104458 0.672909
vt 0.104532 0.664902
vt 0.112962 0.664980
vt 0.112888 0.672987
vt 0.089275 0.653497
vt 0.085954 0.654554
vt 0.083903 0.638780
vt 0.087224 0.637723
vt 0.078189 0.612156
vt 0.074236 0.611013
vt 0.104627 0.654571
vt 0.113057 0.654649
vt 0.112857 0.638898
vt 0.104427 0.638820
vt 0.104364 0.628557
vt 0.112794 0.628635
vt 0.095096 0.637750
vt 0.103525 0.637673
vt 0.075579 0.627866
vt 0.071729 0.626720
vt 0.103648 0.627418
vt 0.095218 0.627494
vt 0.095356 0.617164
vt 0.103798 0.617095
vt 0.076248 0.638142
vt 0.072377 0.636997
vt 0.084849 0.628526
vt 0.088169 0.627469
vt 0.089367 0.617143
vt 0.086046 0.618200
vt 0.087974 0.608236
vt 0.091295 0.607179
vt 0.077329 0.648495
vt 0.073274 0.647353
vt 0.104308 0.618219
vt 0.112738 0.618297
vt 0.104000 0.607138
vt 0.095538 0.607195
vt 0.095217 0.592379
vt 0.104202 0.593322
vt 0.104276 0.608235
vt 0.112706 0.608313
vt 0.079291 0.658506
vt 0.074913 0.657367
vt 0.095292 0.589891
vt 0.104276 0.590834
vt 0.083903 0.672442
vt 0.080611 0.671289
vt 0.094081 0.594482
vt 0.095096 0.592381
vt 0.104530 0.594413
vt 0.112960 0.594491
vt 0.116707 0.598321
vt 0.113218 0.598321
vt 0.113218 0.589891
vt 0.116707 0.589891
vt 0.113218 0.675873
vt 0.104788 0.675795
vt 0.080038 0.589891
vt 0.083331 0.591043
vt 0.094454 0.674778
vt 0.091133 0.675835
vt 0.104403 0.591930
vt 0.104413 0.590838
vt 0.113218 0.589891
vt 0.112833 0.592008
vt 0.083330 0.674917
vt 0.080038 0.673764
vt 0.093576 0.591992
vt 0.094591 0.589891
vn -0.1807 0.9816 -0.0624
vn 0.0326 -0.0570 -0.9978
vn 0.3189 0.9475 -0.0226
vn -0.0321 0.0575 0.9978
vn -0.3437 -0.9381 0.0430
vn 0.3395 0.9397 -0.0410
vn 0.0075 0.0431 0.9990
vn 0.0354 -0.0528 -0.9980
vn 0.0482 -0.9971 0.0591
vn -0.1718 -0.9838 0.0512
vn 0.1751 0.9845 -0.0138
vn -0.0065 -0.0366 -0.9993
vn -0.0806 0.9966 -0.0184
vn -0.0494 0.9985 -0.0238
vn 0.0020 -0.0397 -0.9992
vn -0.0023 0.0467 0.9989
vn -0.0072 0.0485 0.9988
vn 0.0032 -0.0390 -0.9992
vn -0.0034 0.0471 0.9989
vn 0.0717 -0.9956 0.0597
vn -0.2570 0.9654 0.0448
vn 0.1469 -0.9872 0.0617
vn -0.1627 0.9867 -0.0054
vn 0.0062 -0.0375 -0.9993
vn 0.2468 0.9662 0.0738
vn 0.0457 -0.0536 -0.9975
vn -0.0201 -0.1170 0.9929
vn 0.3645 -0.9289 0.0653
vn -0.9385 0.3415 -0.0499
vn 0.1807 -0.9816 0.0624
vn -0.2122 0.0329 -0.9767
vn 0.2122 -0.0329 0.9767
vn 0.7855 -0.6188 -0.0063
vn -0.0742 -0.0185 -0.9971
vn -0.0658 -0.5034 0.8616
vn -0.2392 -0.9698 0.0482
usemtl None
s off
f 2/1/1 4/2/1 36/3/1 35/4/1
f 3/5/2 4/6/2 8/7/2 7/8/2
f 8/9/3 6/10/3 12/11/3 9/12/3
f 5/13/4 6/14/4 2/15/4 1/16/4
f 3/17/5 7/18/5 5/19/5 1/20/5
f 8/9/6 4/2/6 2/1/6 6/10/6
f 12/21/7 11/22/7 15/23/7 16/24/7
f 7/8/8 8/7/8 9/25/8 10/26/8
f 6/14/4 5/13/4 11/22/4 12/21/4
f 5/19/5 7/18/5 10/27/5 11/28/5
f 15/29/9 14/30/9 18/31/9 19/32/9
f 11/28/10 10/27/10 14/30/10 15/29/10
f 9/12/11 12/11/11 16/33/11 13/34/11
f 10/26/12 9/25/12 13/35/12 14/36/12
f 17/37/13 20/38/13 24/39/13 21/40/13
f 13/34/14 16/33/14 20/38/14 17/37/14
f 14/36/15 13/35/15 17/41/15 18/42/15
f 16/24/16 15/23/16 19/43/16 20/44/16
f 24/45/17 23/46/17 27/47/17 28/48/17
f 18/42/18 17/41/18 21/49/18 22/50/18
f 20/44/19 19/43/19 23/46/19 24/45/19
f 19/32/20 18/31/20 22/51/20 23/52/20
f 25/53/21 28/54/21 32/55/21 29/56/21
f 23/52/22 22/51/22 26/57/22 27/58/22
f 21/40/23 24/39/23 28/54/23 25/53/23
f 22/50/24 21/49/24 25/59/24 26/60/24
f 29/56/25 32/55/25 40/61/25 37/62/25
f 26/60/26 25/59/26 29/63/26 30/64/26
f 28/48/27 27/47/27 31/65/27 32/66/27
f 27/58/28 26/57/28 30/67/28 31/68/28
f 34/69/29 35/70/29 36/71/29 33/72/29
f 3/17/30 1/20/30 34/73/30 33/74/30
f 4/6/31 3/5/31 33/75/31 36/76/31
f 1/16/32 2/15/32 35/77/32 34/78/32
f 38/79/33 37/80/33 40/81/33 39/82/33
f 30/64/34 29/63/34 37/83/34 38/84/34
f 32/66/35 31/65/35 39/85/35 40/86/35
f 31/68/36 30/67/36 38/79/36 39/82/36
