# Blender v2.92.0 OBJ File: 'airShipStuff.blend'
# www.blender.org
mtllib Rock2.mtl
o Mball.003_Mesh.002
v 0.777038 1.088026 -0.063305
v -1.104083 0.550583 -0.394205
v -0.460539 -0.683955 -1.587701
v 0.340993 -0.880299 -2.318079
v 0.973321 -0.142166 -2.470311
v -0.256898 -1.140213 1.034942
v -1.221779 -0.386730 -0.328853
v 0.109127 1.193926 -0.605278
v -1.297431 0.260737 0.107811
v -1.068702 0.557468 0.587725
v 1.238218 -1.074941 0.609079
v 0.815923 -1.292992 0.343603
v 1.153799 -0.868247 -0.484715
v 0.192491 -1.174459 -1.703078
v 1.394449 0.486670 0.933716
v -1.087902 -0.491292 0.376915
v -0.902401 -0.955970 -0.158789
v 1.045839 0.778099 0.980871
v 0.463772 -1.286514 1.118756
v -0.626174 1.076774 -0.488010
v 1.211963 0.282687 -1.949866
v 0.125289 -0.290423 1.833539
v 0.905374 0.080637 1.817111
v 1.434414 -0.131938 -0.315117
v 1.503537 -0.449281 -1.632222
v 0.555282 0.084174 -2.451779
v -0.296751 0.456411 -1.665884
v 1.616991 -0.021384 0.671788
v 0.076087 -0.850962 1.707888
v 0.127386 -0.326207 -2.462229
v -0.744747 1.132029 0.314010
v -0.553781 -0.282092 1.341872
v 0.355962 0.591646 1.467236
v 1.467453 -0.313635 1.498563
v 0.583960 0.559022 -1.943704
v 1.235961 -0.833409 -1.952318
v 1.515077 -0.763429 1.105593
v 0.322202 1.069103 0.797962
v -1.215678 0.079754 -0.457744
v 1.081957 -1.077195 -1.652138
v 0.924203 -1.058378 1.518975
v -0.079829 -1.282372 -0.118723
v -0.259275 0.406213 1.324383
v -0.131524 1.365621 0.111039
v 0.784335 -0.569089 1.848065
v 1.294645 0.332629 -0.603213
v 0.528210 -1.232200 -0.670659
vt 0.117962 0.378792
vt 0.115905 0.366541
vt 0.126946 0.373836
vt 0.059967 0.306112
vt 0.046969 0.318143
vt 0.051849 0.301438
vt 0.106805 0.415194
vt 0.115934 0.413929
vt 0.120317 0.417004
vt 0.060350 0.355052
vt 0.068260 0.355264
vt 0.067928 0.365564
vt 0.048997 0.382269
vt 0.037649 0.381757
vt 0.041936 0.369032
vt 0.042139 0.342110
vt 0.032606 0.337279
vt 0.038039 0.405509
vt 0.028511 0.396372
vt 0.045380 0.399701
vt 0.024320 0.340237
vt 0.028066 0.332683
vt 0.026596 0.405509
vt 0.034237 0.347904
vt 0.050120 0.358882
vt 0.091132 0.369540
vt 0.096684 0.361511
vt 0.105434 0.362995
vt 0.068835 0.388946
vt 0.082265 0.390070
vt 0.079723 0.402872
vt 0.032732 0.367827
vt 0.122557 0.330536
vt 0.111369 0.326069
vt 0.122557 0.304203
vt 0.110568 0.309834
vt 0.103500 0.330608
vt 0.102223 0.306029
vt 0.090868 0.323290
vt 0.095891 0.375661
vt 0.106552 0.375355
vt 0.106537 0.397376
vt 0.121171 0.353156
vt 0.109308 0.361511
vt 0.115697 0.346752
vt 0.068086 0.300603
vt 0.080316 0.305218
vt 0.076196 0.310086
vt 0.079891 0.346126
vt 0.076684 0.361178
vt 0.072154 0.342325
vt 0.086834 0.353904
vt 0.068297 0.326513
vt 0.060400 0.336201
vt 0.090868 0.379131
vt 0.060350 0.297759
vt 0.090868 0.360581
vt 0.055547 0.342139
vt 0.060350 0.358826
vt 0.053997 0.401819
vt 0.054498 0.374798
vt 0.079868 0.366990
vt 0.060228 0.317320
vt 0.063780 0.310477
vt 0.126946 0.407626
vt 0.119897 0.403716
vt 0.103265 0.352037
vt 0.064224 0.394675
vt 0.069592 0.409374
vt 0.050117 0.362263
vt 0.039996 0.359838
vt 0.080003 0.328847
vt 0.087713 0.310230
vt 0.090868 0.331667
vt 0.024320 0.376794
vt 0.083254 0.297759
vt 0.115534 0.297759
vt 0.060350 0.375501
vt 0.072892 0.366990
vt 0.075243 0.378921
vt 0.082265 0.367150
vt 0.081409 0.410401
vt 0.031631 0.358882
vn 0.2647 0.9541 -0.1398
vn -0.6658 -0.4175 -0.6184
vn -0.0195 0.0458 -0.9988
vn -0.2278 -0.8486 0.4775
vn -0.5640 0.2612 0.7834
vn -0.7728 -0.5354 -0.3409
vn -0.8804 -0.0779 0.4678
vn -0.9905 -0.0244 -0.1354
vn -0.9649 -0.2147 0.1512
vn -0.7219 -0.6267 0.2936
vn -0.8503 0.5195 0.0841
vn 0.2594 0.7198 0.6439
vn -0.5826 -0.1287 0.8025
vn 0.9311 -0.3108 -0.1910
vn 0.9630 -0.2219 -0.1533
vn 0.8907 0.4429 -0.1022
vn 0.7804 0.6151 -0.1123
vn -0.6907 0.5420 -0.4787
vn 0.8221 -0.1067 -0.5592
vn 0.2575 -0.8105 -0.5261
vn 0.3790 -0.9136 0.1474
vn 0.5476 -0.8115 0.2038
vn 0.0223 -0.9976 -0.0661
vn -0.8087 0.1424 -0.5707
vn 0.0421 -0.2363 -0.9708
vn 0.3263 -0.9323 0.1560
vn 0.6516 -0.4588 0.6041
vn -0.2080 -0.9742 0.0881
vn -0.3536 0.6709 0.6518
vn -0.3258 0.4340 0.8399
vn -0.7449 0.6490 -0.1548
vn 0.5286 -0.3645 0.7666
vn -0.5836 -0.6686 -0.4607
vn 0.1223 -0.9065 -0.4041
vn 0.3835 0.8780 -0.2864
vn 0.2968 0.6893 -0.6609
vn 0.8586 0.1264 -0.4969
vn 0.7984 0.5979 -0.0712
vn 0.9658 0.1681 -0.1975
vn -0.1955 0.9368 -0.2902
vn -0.8305 0.0031 -0.5571
vn -0.3607 -0.9243 -0.1249
vn -0.6040 -0.7276 -0.3253
vn -0.3879 0.9138 -0.1203
vn -0.9428 0.2528 -0.2172
vn -0.8429 0.5380 -0.0140
vn -0.8801 -0.4645 0.0981
vn 0.6247 0.5182 0.5841
vn -0.8640 -0.0840 0.4964
vn -0.1796 0.4170 0.8910
vn -0.1095 -0.2083 0.9719
vn -0.3802 0.6056 -0.6991
vn -0.2345 0.8379 -0.4929
vn 0.5400 -0.8178 -0.1991
vn 0.8285 -0.5578 0.0489
vn 0.9141 -0.3806 0.1397
vn -0.7316 -0.4395 0.5211
vn 0.3548 -0.4706 -0.8079
vn 0.8507 -0.5006 -0.1603
vn 0.9856 -0.0393 0.1644
vn 0.3221 0.9274 0.1905
vn -0.1958 0.8198 0.5382
vn 0.1809 0.8049 0.5651
vn 0.9262 0.2701 0.2630
vn 0.6450 0.7618 0.0601
vn 0.4684 -0.0452 0.8824
vn -0.8618 -0.1246 -0.4917
vn -0.8057 0.2626 -0.5309
vn 0.4702 -0.8733 0.1274
vn -0.0773 -0.8253 0.5593
vn -0.3706 -0.9270 0.0573
vn -0.0131 -0.9999 0.0024
vn -0.6163 0.2824 0.7352
vn -0.0018 0.0479 0.9988
vn 0.0523 -0.5470 0.8355
vn 0.3725 0.8827 -0.2866
vn 0.8303 -0.5567 -0.0261
vn 0.3241 0.6546 -0.6830
vn 0.9603 0.2785 -0.0167
vn 0.9368 0.3427 -0.0702
vn 0.1135 -0.9893 -0.0922
vn 0.0245 -0.9977 -0.0637
vn -0.4842 0.5836 0.6519
usemtl Material.030
s off
f 8/1/1 44/2/1 1/3/1
f 4/4/2 3/5/2 30/6/2
f 30/7/3 26/8/3 5/9/3
f 6/10/4 19/11/4 29/12/4
f 43/13/5 32/14/5 22/15/5
f 17/16/6 7/17/6 3/5/6
f 9/18/7 16/19/7 10/20/7
f 7/17/8 9/21/8 39/22/8
f 7/23/9 16/19/9 9/18/9
f 16/24/10 17/16/10 6/25/10
f 9/26/11 10/27/11 31/28/11
f 18/29/12 33/30/12 23/31/12
f 32/14/13 29/32/13 22/15/13
f 13/33/14 24/34/14 37/35/14
f 37/35/15 24/34/15 28/36/15
f 46/37/16 15/38/16 28/36/16
f 1/39/17 15/38/17 46/37/17
f 2/40/18 20/41/18 27/42/18
f 36/43/19 5/44/19 25/45/19
f 4/46/20 36/47/20 40/48/20
f 11/49/21 41/50/21 12/51/21
f 11/49/22 37/52/22 41/50/22
f 47/53/23 12/51/23 42/54/23
f 39/55/24 27/42/24 30/7/24
f 4/4/25 30/6/25 5/56/25
f 41/50/26 19/11/26 12/51/26
f 41/50/27 37/52/27 34/57/27
f 6/25/28 42/58/28 19/59/28
f 31/60/29 43/13/29 33/61/29
f 33/61/30 43/13/30 22/15/30
f 31/28/31 20/41/31 2/40/31
f 34/57/32 45/62/32 41/50/32
f 4/4/33 14/63/33 3/5/33
f 40/48/34 14/64/34 4/46/34
f 21/65/35 35/66/35 1/3/35
f 21/65/36 26/8/36 35/66/36
f 5/44/37 21/67/37 25/45/37
f 1/39/38 46/37/38 21/67/38
f 28/36/39 24/34/39 46/37/39
f 20/41/40 44/2/40 8/1/40
f 39/22/41 30/6/41 3/5/41
f 42/58/42 17/16/42 14/63/42
f 3/5/43 14/63/43 17/16/43
f 20/41/44 31/28/44 44/2/44
f 9/26/45 2/40/45 39/55/45
f 31/28/46 2/40/46 9/26/46
f 16/24/47 7/17/47 17/16/47
f 15/68/48 18/29/48 23/31/48 34/69/48
f 10/20/49 16/19/49 32/14/49
f 22/15/50 23/70/50 33/61/50
f 22/15/51 29/32/51 45/71/51
f 35/66/52 26/8/52 30/7/52 27/42/52
f 8/1/53 35/66/53 27/42/53 20/41/53
f 12/51/54 47/53/54 13/72/54 11/49/54
f 25/73/55 13/72/55 40/48/55
f 24/74/56 13/72/56 25/73/56
f 32/14/57 16/19/57 6/75/57 29/32/57
f 4/46/58 5/76/58 36/47/58
f 13/72/59 37/52/59 11/49/59
f 28/36/60 34/77/60 37/35/60
f 18/29/61 1/78/61 44/79/61 38/80/61
f 38/80/62 44/79/62 31/81/62 33/30/62
f 18/29/63 38/80/63 33/30/63
f 28/36/64 15/38/64 34/77/64
f 15/68/65 1/78/65 18/29/65
f 34/69/66 23/31/66 45/82/66
f 3/5/67 7/17/67 39/22/67
f 2/40/68 27/42/68 39/55/68
f 47/53/69 40/48/69 13/72/69
f 29/12/70 19/11/70 41/50/70
f 17/16/71 42/58/71 6/25/71
f 19/11/72 42/54/72 12/51/72
f 32/14/73 43/13/73 10/20/73
f 22/15/74 45/71/74 23/70/74
f 41/83/75 45/71/75 29/32/75
f 1/3/76 35/66/76 8/1/76
f 40/48/77 36/47/77 25/73/77
f 26/8/78 21/65/78 5/9/78
f 24/34/79 25/45/79 46/37/79
f 21/67/80 46/37/80 25/45/80
f 40/48/81 47/53/81 14/64/81
f 42/54/82 14/64/82 47/53/82
f 31/60/83 10/20/83 43/13/83
