# Blender v2.92.0 OBJ File: 'airShipStuff.blend'
# www.blender.org
mtllib rockPlatformSmall.mtl
o Cube.019
v -1.812279 -0.187370 -1.053371
v -0.374497 0.727959 -1.822887
v -0.364895 0.637698 2.843397
v 0.287636 0.707504 2.268841
v -1.644268 0.419538 0.052233
v 0.631746 0.624584 -2.179770
v 0.802068 -0.531180 -1.695534
v 1.036645 0.570584 0.996128
v 0.817132 -0.147703 2.390785
v -0.421372 -0.580044 1.326554
v 0.069073 -0.494801 2.732203
v -1.857643 -0.243579 2.116173
v -0.883426 -0.004554 -3.010935
v 0.398458 -0.647275 -2.063121
v 0.568072 0.545896 -2.508083
v -1.513995 -0.269979 -2.405042
v -1.045054 0.559345 -2.441362
v -0.934256 -0.386604 -2.632835
v 1.440681 0.026506 -0.296676
v 1.347311 -0.102341 1.153872
v -0.818434 -0.115800 3.373021
v -1.477320 -0.207499 3.038545
v -0.510569 0.639465 0.609771
v 0.710003 -0.690846 -1.466510
v -0.250924 -0.779905 -0.699826
v -1.610042 -0.394867 0.666265
v -1.591014 -0.457091 2.056036
v 1.105481 0.519099 -1.707492
v -1.545499 0.186018 -2.784855
v 1.208451 -0.511262 0.856985
v 0.730753 -0.503950 2.410096
v 0.693534 -0.683345 1.397425
v -0.961994 0.429263 3.004833
v -1.391552 0.559603 -0.097658
v -1.800564 0.134600 -1.561700
v 1.038895 0.635235 -0.855177
vt 0.909195 0.659683
vt 0.906377 0.651846
vt 0.909512 0.645194
vt 0.902113 0.622638
vt 0.904540 0.637353
vt 0.895081 0.618679
vt 0.905631 0.606641
vt 0.907055 0.596971
vt 0.908555 0.612845
vt 0.856967 0.596590
vt 0.861979 0.594583
vt 0.867141 0.604986
vt 0.861240 0.610519
vt 0.877816 0.620160
vt 0.877816 0.635749
vt 0.874495 0.625447
vt 0.886751 0.600710
vt 0.894489 0.608100
vt 0.883553 0.612472
vt 0.897879 0.616357
vt 0.921569 0.643279
vt 0.920074 0.655779
vt 0.860702 0.592439
vt 0.883955 0.639411
vt 0.893006 0.624995
vt 0.883553 0.598241
vt 0.877030 0.605143
vt 0.881419 0.593096
vt 0.886351 0.625935
vt 0.869825 0.640717
vt 0.856967 0.639337
vt 0.857410 0.631344
vt 0.906911 0.641547
vt 0.905880 0.638747
vt 0.912218 0.629027
vt 0.906066 0.620577
vt 0.910036 0.618679
vt 0.918853 0.631401
vt 0.917409 0.638458
vt 0.924717 0.632495
vt 0.924717 0.638654
vt 0.865904 0.621333
vt 0.860684 0.625628
vt 0.887310 0.620569
vt 0.875893 0.641876
vt 0.868597 0.615353
vt 0.881430 0.613891
vt 0.867967 0.593721
vt 0.886470 0.643186
vt 0.883553 0.643007
vt 0.883553 0.610693
vt 0.914939 0.668404
vt 0.921569 0.668022
vt 0.914507 0.662472
vt 0.907287 0.666055
vt 0.908555 0.597493
vt 0.863568 0.616549
vt 0.905880 0.638076
vt 0.904732 0.643186
vt 0.900911 0.593230
vt 0.904779 0.592439
vt 0.897210 0.618679
vt 0.905880 0.645487
vt 0.918491 0.619947
vt 0.867071 0.645735
vt 0.871149 0.620160
vt 0.910576 0.641547
vt 0.884225 0.606921
vt 0.892413 0.593379
vn -0.6150 -0.7882 -0.0228
vn -0.0240 0.6941 -0.7195
vn 0.0042 0.9636 -0.2673
vn 0.0482 -0.9694 0.2407
vn -0.1594 -0.9805 0.1151
vn -0.0856 -0.9050 0.4167
vn -0.1426 0.9894 0.0280
vn -0.1383 0.9885 0.0607
vn -0.6878 0.7088 0.1566
vn -0.5659 -0.7811 0.2639
vn 0.4260 -0.3687 -0.8262
vn -0.0311 0.7176 -0.6958
vn -0.2381 -0.9647 -0.1121
vn 0.1576 -0.7051 -0.6913
vn 0.7573 0.5244 0.3893
vn 0.7822 -0.6128 -0.1128
vn 0.8383 0.5452 -0.0088
vn 0.9396 -0.3410 0.0302
vn 0.9035 -0.1985 0.3800
vn 0.0261 0.5643 0.8252
vn -0.4008 -0.6094 -0.6841
vn 0.4986 0.2771 0.8213
vn 0.3843 -0.4568 0.8023
vn -0.0978 -0.9907 0.0942
vn 0.0948 -0.9955 0.0032
vn -0.0458 -0.9945 0.0942
vn -0.3079 -0.9507 -0.0383
vn 0.5278 -0.7815 -0.3327
vn -0.1254 -0.9799 -0.1551
vn -0.1139 0.9930 0.0298
vn -0.5564 0.8263 -0.0874
vn -0.5799 0.8101 -0.0869
vn -0.9998 0.0142 -0.0141
vn -0.4727 -0.8797 -0.0506
vn -0.0015 0.9725 -0.2328
vn 0.0699 -0.9827 0.1715
vn 0.4752 0.8303 -0.2912
vn 0.3139 0.9437 -0.1041
vn -0.4373 0.8940 0.0981
vn 0.6850 -0.3380 -0.6454
vn -0.6284 -0.7774 -0.0262
vn -0.3170 -0.9472 -0.0484
vn -0.9465 -0.2528 -0.2004
vn -0.2966 0.9540 -0.0440
vn 0.8949 0.4357 0.0963
vn 0.8102 0.4594 0.3641
vn 0.8256 0.5639 0.0207
vn 0.7882 -0.6031 -0.1225
vn 0.8027 -0.2381 -0.5468
vn 0.9124 -0.2671 -0.3101
vn 0.4433 -0.8853 0.1405
vn 0.3210 -0.9471 0.0043
vn 0.8406 -0.4748 0.2608
vn -0.4574 0.4119 0.7881
vn -0.7388 0.6127 0.2807
vn 0.5122 -0.0778 0.8554
vn -0.0975 -0.9912 0.0896
vn 0.5634 0.4478 0.6943
vn -0.3242 0.9457 0.0219
vn 0.0242 -0.9961 -0.0854
vn -0.1000 0.9950 0.0073
vn 0.2357 0.9712 0.0342
vn -0.9275 0.3730 0.0240
vn 0.0896 0.9953 -0.0356
vn 0.0698 0.9975 -0.0063
usemtl Material.047
s off
f 1/1/1 26/2/1 12/3/1
f 17/4/2 15/5/2 29/6/2
f 2/7/3 6/8/3 17/9/3
f 22/10/4 27/11/4 10/12/4
f 10/12/5 11/13/5 22/10/5
f 22/14/6 11/15/6 21/16/6
f 4/17/7 2/7/7 23/18/7
f 33/19/8 23/18/8 34/20/8
f 12/3/9 33/21/9 5/22/9
f 22/10/10 12/23/10 27/11/10
f 14/24/11 13/25/11 15/5/11
f 13/25/12 29/6/12 15/5/12
f 18/26/13 25/27/13 16/28/13
f 18/29/14 13/25/14 14/24/14
f 9/30/15 8/31/15 4/32/15
f 24/33/16 7/34/16 19/35/16
f 28/36/17 36/37/17 19/35/17
f 19/35/18 20/38/18 30/39/18
f 20/38/19 9/40/19 31/41/19
f 33/42/20 21/16/20 3/43/20
f 13/25/21 18/29/21 16/44/21 29/6/21
f 9/30/22 3/43/22 21/16/22
f 11/15/23 31/45/23 21/16/23
f 11/13/24 10/12/24 32/46/24
f 25/27/25 24/47/25 32/46/25
f 25/27/26 10/12/26 27/11/26
f 26/48/27 25/27/27 27/11/27
f 7/49/28 24/50/28 14/24/28
f 14/51/29 25/27/29 18/26/29
f 23/18/30 2/7/30 34/20/30
f 29/52/31 5/22/31 17/53/31
f 35/54/32 5/22/32 29/52/32
f 1/1/33 12/3/33 35/54/33
f 26/2/34 1/1/34 16/55/34
f 17/9/35 6/8/35 15/56/35
f 31/57/36 11/13/36 32/46/36
f 15/5/37 6/58/37 28/59/37
f 36/60/38 28/61/38 6/8/38
f 5/62/39 33/19/39 34/20/39
f 7/49/40 14/24/40 15/5/40
f 27/63/41 12/3/41 26/2/41
f 16/28/42 25/27/42 26/48/42
f 29/52/43 16/55/43 1/1/43 35/54/43
f 34/20/44 2/7/44 17/9/44 5/62/44
f 8/64/45 20/38/45 19/35/45
f 9/30/46 20/65/46 8/31/46
f 8/64/47 19/35/47 36/37/47
f 30/39/48 24/33/48 19/35/48
f 28/59/49 7/49/49 15/5/49
f 19/35/50 7/34/50 28/36/50
f 32/46/51 30/66/51 31/57/51
f 32/46/52 24/47/52 30/66/52
f 30/39/53 20/38/53 31/41/53
f 33/42/54 22/14/54 21/16/54
f 12/3/55 22/67/55 33/21/55
f 21/16/56 31/45/56 9/30/56
f 32/46/57 10/12/57 25/27/57
f 9/30/58 4/32/58 3/43/58
f 23/18/59 33/19/59 3/68/59
f 14/51/60 24/47/60 25/27/60
f 3/68/61 4/17/61 23/18/61
f 8/69/62 36/60/62 4/17/62
f 35/54/63 12/3/63 5/22/63
f 2/7/64 36/60/64 6/8/64
f 4/17/65 36/60/65 2/7/65
