# Blender v2.92.0 OBJ File: 'airShipStuff.blend'
# www.blender.org
mtllib rockPlatformShort.mtl
o Cube.018
v -0.952604 -2.607558 -0.342986
v 0.924383 -4.192728 -0.566881
v -1.620155 -0.102900 -0.468497
v -0.543900 -0.502318 -1.589954
v 0.703954 -0.198498 -1.316340
v 0.734068 -0.349365 1.132464
v -1.138413 0.272881 0.809451
v -0.772732 -2.494691 -0.082921
v 1.013857 -0.763182 0.752109
v 0.704219 -0.971400 1.058634
v -1.074396 -0.621595 0.848177
v 1.014171 -5.523515 0.084956
v 0.596514 -5.976207 0.673762
v 0.912026 -3.034924 -0.498900
v -0.341541 -5.501148 -0.510373
v 0.162731 -8.914545 0.484698
v -0.131410 0.079587 -1.945250
v -0.943208 -0.300169 1.136044
v -1.405547 -0.354558 -0.355136
v 0.897122 -0.610069 -0.973237
v 0.599408 -0.586954 1.189062
v -0.742707 -2.141518 0.812892
v 0.062707 -5.732230 -0.738508
v 0.666389 -3.599114 0.453991
v -0.648135 -3.657409 -0.949483
v 0.377183 -9.070834 -0.314980
v -0.206619 -9.247129 0.377744
v -0.191895 -9.032377 -0.413431
v 1.526521 0.131520 -0.204678
v 0.863768 0.011371 1.466082
v -0.350057 -0.190478 1.514354
v 1.001573 -1.916727 0.305989
v 0.997956 -2.310243 0.047168
v 1.530785 0.200687 -1.045063
v 0.068003 0.340634 1.009703
v 1.266932 -2.744256 0.080839
v 0.722395 -4.215975 0.259559
v 0.453576 -2.410393 0.968127
v -0.002637 -2.265832 -1.078631
v -1.286579 -0.895423 0.030968
v -0.750971 -7.074735 0.000586
v -0.561746 -5.591022 0.294609
v 0.417964 -5.399355 0.311293
v -1.010315 -0.038186 0.647120
v -0.962637 -0.128114 -1.098776
v 0.308358 -0.373046 -1.406518
v 1.149883 -0.274113 1.114319
v 1.506050 -0.612249 -0.167186
v -1.186267 0.278226 -0.764081
v -0.247685 -0.819665 1.483916
v -0.841582 -1.798264 -1.182747
v -0.256862 -7.560010 -0.310854
v -0.872059 -4.192618 0.010564
v -0.896429 -2.675471 0.428306
v 0.217515 -4.246356 0.796468
v -0.382246 -5.125804 0.645596
v 0.310038 -3.912823 -0.693092
v 0.048279 -9.297636 -0.058446
v 0.542806 -7.513549 0.481523
v -0.318912 -7.186049 0.766316
v -0.150372 -7.411497 -0.717437
v 0.709103 -7.245162 -0.044774
v -0.408046 -2.916512 0.637379
vt 0.901688 0.631120
vt 0.898603 0.630473
vt 0.899321 0.628573
vt 0.902059 0.626678
vt 0.902705 0.629173
vt 0.904544 0.630084
vt 0.910439 0.644436
vt 0.911453 0.643068
vt 0.913245 0.646545
vt 0.892505 0.643801
vt 0.894120 0.646728
vt 0.890977 0.648170
vt 0.896487 0.645069
vt 0.896471 0.647034
vt 0.895097 0.649865
vt 0.913645 0.642002
vt 0.920074 0.643028
vt 0.916655 0.645686
vt 0.917292 0.641889
vt 0.906978 0.631688
vt 0.904447 0.634113
vt 0.904906 0.625277
vt 0.916033 0.645036
vt 0.915453 0.647849
vt 0.918882 0.630008
vt 0.918296 0.633039
vt 0.916162 0.640278
vt 0.909485 0.641269
vt 0.907689 0.628159
vt 0.911539 0.628535
vt 0.926682 0.576527
vt 0.926682 0.581404
vt 0.923278 0.577315
vt 0.906987 0.624874
vt 0.908574 0.622694
vt 0.917481 0.606369
vt 0.918832 0.605508
vt 0.918020 0.615446
vt 0.916908 0.602044
vt 0.913860 0.641305
vt 0.915716 0.643205
vt 0.913645 0.632015
vt 0.894161 0.633959
vt 0.897326 0.640910
vt 0.896419 0.627786
vt 0.903841 0.609148
vt 0.903176 0.615073
vt 0.902391 0.610941
vt 0.920186 0.601024
vt 0.921885 0.586778
vt 0.921885 0.612288
vt 0.920746 0.584317
vt 0.898035 0.604927
vt 0.897490 0.615666
vt 0.895875 0.605587
vt 0.897991 0.593646
vt 0.903786 0.588657
vt 0.904593 0.592261
vt 0.902234 0.599300
vt 0.916091 0.615180
vt 0.917497 0.620162
vt 0.916023 0.629246
vt 0.919183 0.626752
vt 0.894159 0.617588
vt 0.894843 0.603751
vt 0.910139 0.615946
vt 0.912710 0.617814
vt 0.911233 0.603716
vt 0.893328 0.630227
vt 0.894866 0.619727
vt 0.896735 0.578605
vt 0.897266 0.576527
vt 0.898603 0.576953
vt 0.916743 0.579532
vt 0.917277 0.590288
vt 0.915421 0.592656
vt 0.924293 0.595880
vt 0.922897 0.595447
vt 0.924293 0.584317
vt 0.910601 0.602034
vt 0.908025 0.590466
vt 0.908991 0.576527
vt 0.901583 0.633508
vt 0.898603 0.649783
vt 0.908209 0.647546
vt 0.922897 0.600652
vt 0.923631 0.597619
vt 0.924865 0.600652
vt 0.920186 0.648700
vt 0.907051 0.646899
vt 0.906978 0.641213
vt 0.913645 0.646088
vt 0.920186 0.615567
vt 0.920009 0.624403
vt 0.900367 0.624486
vt 0.925104 0.597442
vt 0.924293 0.596580
vt 0.925104 0.584317
vt 0.895595 0.590974
vt 0.896704 0.589853
vt 0.905560 0.576527
vt 0.905838 0.599032
vt 0.906978 0.585816
vt 0.918707 0.592306
vt 0.918866 0.578289
vt 0.925969 0.583585
vt 0.922731 0.584317
vt 0.920186 0.580644
vt 0.906049 0.613099
vt 0.908533 0.613867
vt 0.907305 0.603627
vt 0.923671 0.597619
vt 0.917822 0.576527
vt 0.921045 0.576727
vt 0.898107 0.627241
vt 0.896729 0.628608
vt 0.922897 0.584317
vt 0.922897 0.609827
vt 0.921885 0.596556
vt 0.916471 0.576914
vt 0.910906 0.589186
vt 0.896166 0.578200
vn -0.7699 -0.4551 0.4473
vn -0.9486 0.1279 0.2894
vn -0.9203 0.2779 0.2752
vn -0.4412 0.7644 0.4701
vn 0.3999 -0.5144 -0.7586
vn -0.7217 0.0928 -0.6859
vn -0.5219 -0.6782 -0.5174
vn -0.6716 0.2145 -0.7092
vn 0.2536 -0.6286 -0.7352
vn 0.8026 -0.4828 0.3504
vn -0.0931 0.7234 0.6842
vn -0.5170 -0.1251 0.8468
vn 0.1571 -0.7004 0.6962
vn 0.3360 -0.5197 0.7855
vn 0.6967 -0.3383 -0.6326
vn 0.2856 0.9411 0.1810
vn -0.7236 0.1556 -0.6724
vn 0.6913 0.3808 -0.6141
vn 0.3458 -0.0480 0.9371
vn 0.3924 0.5734 0.7192
vn 0.4188 0.4965 0.7603
vn 0.7599 -0.2415 0.6035
vn 0.6667 -0.2073 0.7159
vn 0.3797 -0.1482 -0.9132
vn -0.0432 -0.2904 -0.9559
vn -0.8196 0.0083 -0.5729
vn -0.9464 -0.2977 -0.1255
vn -0.9583 -0.1316 -0.2535
vn -0.5195 -0.3958 0.7572
vn -0.5923 -0.0833 0.8014
vn -0.3409 0.0772 0.9369
vn -0.9230 -0.2620 -0.2817
vn -0.9552 0.1698 -0.2423
vn -0.8417 -0.0783 0.5342
vn -0.7968 -0.0071 0.6042
vn 0.7315 -0.1561 0.6637
vn 0.7248 -0.1464 0.6733
vn 0.6906 -0.1794 0.7006
vn -0.4530 0.0837 -0.8876
vn 0.2076 -0.1854 -0.9605
vn 0.2049 -0.1944 -0.9593
vn -0.6464 0.2324 -0.7268
vn -0.5499 -0.8034 -0.2283
vn 0.2869 -0.0757 0.9550
vn 0.2667 -0.1288 0.9551
vn 0.1750 0.0761 -0.9816
vn 0.7054 -0.0234 -0.7084
vn -0.7327 -0.5267 0.4311
vn -0.6511 0.7586 0.0224
vn 0.4571 -0.4108 -0.7888
vn 0.4524 -0.8890 -0.0709
vn 0.9625 -0.0128 0.2709
vn 0.8428 0.3975 0.3629
vn 0.8136 -0.0962 -0.5734
vn 0.7968 -0.0523 -0.6020
vn 0.3334 0.0086 0.9428
vn -0.1503 0.7406 0.6549
vn -0.7165 -0.5311 0.4523
vn -0.6207 -0.3671 0.6928
vn 0.3171 0.0459 0.9473
vn 0.8792 -0.1800 0.4412
vn 0.7003 0.3748 -0.6076
vn 0.9126 -0.2305 0.3376
vn 0.9697 0.0012 0.2443
vn 0.3880 -0.1250 0.9131
vn -0.3102 -0.3354 0.8895
vn 0.8553 -0.1795 0.4860
vn -0.9653 -0.0270 0.2597
vn -0.7290 -0.2788 0.6252
vn -0.8775 -0.0871 0.4716
vn -0.7586 -0.5224 -0.3895
vn -0.7688 -0.0076 -0.6395
vn -0.4798 -0.2401 0.8439
vn -0.3070 0.0463 0.9506
vn 0.1493 -0.0374 0.9881
vn 0.9673 0.2208 -0.1251
vn 0.7239 -0.1569 0.6718
vn -0.4697 0.0485 -0.8815
vn 0.9586 -0.2037 0.1990
vn 0.9220 -0.2495 0.2960
vn -0.8150 -0.1964 -0.5452
vn 0.1451 -0.6146 0.7754
vn 0.7607 -0.3003 -0.5755
vn 0.2075 0.9749 0.0813
vn 0.0121 0.9878 -0.1553
vn -0.2928 -0.0234 0.9559
vn -0.1416 -0.3613 0.9217
vn 0.6660 -0.1712 -0.7261
vn 0.4028 -0.6501 0.6443
vn -0.2886 -0.6701 -0.6839
vn -0.5061 0.0377 -0.8617
vn -0.9626 -0.2564 -0.0875
vn -0.8900 -0.0006 0.4560
vn 0.2000 -0.0027 -0.9798
vn 0.0546 -0.7818 -0.6211
vn 0.9113 -0.1386 0.3876
vn -0.9316 -0.1784 -0.3167
vn 0.6923 -0.6503 0.3128
vn 0.3895 -0.4750 -0.7891
vn 0.1441 -0.6993 0.7001
vn -0.0569 0.9984 0.0051
vn 0.0232 0.9984 -0.0515
vn 0.7719 -0.6141 -0.1646
vn 0.9542 0.1811 0.2383
vn -0.6253 -0.1542 0.7650
vn 0.7271 0.4881 0.4829
vn 0.2523 -0.6625 -0.7053
vn -0.9097 -0.2698 -0.3155
vn -0.9271 -0.2095 0.3109
vn -0.9950 0.0625 0.0780
vn 0.4581 -0.1192 -0.8809
vn 0.2268 0.0595 -0.9721
vn -0.9405 -0.2198 -0.2592
vn 0.5449 -0.7350 0.4036
vn 0.4582 -0.0693 -0.8862
vn -0.8615 -0.3606 -0.3574
usemtl Material.049
s off
f 44/1/1 3/2/1 19/3/1
f 11/4/2 18/5/2 19/3/2
f 18/5/3 44/1/3 19/3/3
f 31/6/4 44/1/4 18/5/4
f 5/7/5 46/8/5 17/9/5
f 4/10/6 45/11/6 17/12/6
f 45/11/7 19/13/7 3/14/7
f 49/15/8 45/11/8 3/14/8
f 46/8/9 4/16/9 17/9/9
f 48/17/10 47/18/10 9/19/10
f 30/20/11 35/21/11 31/6/11
f 31/6/12 18/5/12 50/22/12
f 6/23/13 47/18/13 30/24/13
f 33/25/14 32/26/14 10/27/14
f 20/28/15 33/29/15 39/30/15
f 30/31/16 29/32/16 35/33/16
f 49/15/17 17/12/17 45/11/17
f 33/29/18 36/34/18 14/35/18
f 43/36/19 12/37/19 37/38/19
f 12/37/20 43/36/20 13/39/20
f 10/27/21 9/19/21 50/40/21
f 9/19/22 10/27/22 32/26/22
f 6/23/23 21/41/23 9/19/23
f 20/28/24 39/30/24 4/16/24
f 39/30/25 51/42/25 4/16/25
f 4/10/26 51/43/26 19/13/26
f 19/13/27 51/43/27 40/44/27
f 40/44/28 51/43/28 1/45/28
f 63/46/29 22/47/29 54/48/29
f 41/49/30 16/50/30 42/51/30
f 27/52/31 16/50/31 41/49/31
f 42/53/32 53/54/32 15/55/32
f 15/55/33 41/56/33 42/53/33
f 42/57/34 56/58/34 53/59/34
f 53/59/35 56/58/35 63/46/35
f 55/60/36 24/61/36 38/62/36
f 24/61/37 55/60/37 37/38/37
f 38/62/38 24/61/38 36/63/38
f 15/55/39 57/64/39 23/65/39
f 57/66/40 25/67/40 39/30/40
f 25/67/41 57/66/41 15/68/41
f 39/69/42 25/70/42 1/45/42
f 28/71/43 58/72/43 27/73/43
f 16/74/44 59/75/44 60/76/44
f 60/76/45 59/75/45 13/39/45
f 26/77/46 28/78/46 52/79/46
f 23/80/47 62/81/47 26/82/47
f 7/83/48 3/2/48 44/1/48
f 49/15/49 3/14/49 7/84/49
f 5/7/50 17/9/50 34/85/50
f 29/86/51 5/87/51 34/88/51
f 29/89/52 47/18/52 48/17/52
f 47/18/53 29/89/53 30/24/53
f 5/7/54 29/90/54 20/28/54
f 20/28/55 29/90/55 48/91/55
f 6/23/56 31/92/56 50/40/56
f 31/6/57 35/21/57 7/83/57
f 7/83/58 44/1/58 31/6/58
f 18/5/59 11/4/59 50/22/59
f 50/40/60 21/41/60 6/23/60
f 9/19/61 32/26/61 48/17/61
f 39/30/62 33/29/62 14/35/62
f 32/26/63 33/25/63 48/17/63
f 2/93/64 14/94/64 24/61/64 37/38/64
f 38/62/65 10/27/65 50/40/65
f 50/22/66 22/47/66 63/46/66
f 38/62/67 33/25/67 10/27/67
f 40/95/68 11/4/68 19/3/68
f 1/96/69 8/97/69 40/98/69
f 22/47/70 40/95/70 54/48/70
f 41/56/71 61/99/71 52/100/71
f 15/55/72 61/99/72 41/56/72
f 63/46/73 54/48/73 53/59/73
f 60/101/74 55/102/74 56/58/74
f 13/103/75 55/102/75 60/101/75
f 43/36/76 55/60/76 13/39/76
f 37/38/77 55/60/77 43/36/77
f 15/55/78 23/65/78 61/99/78
f 62/104/79 59/75/79 26/105/79
f 26/105/80 59/75/80 16/74/80
f 19/13/81 45/11/81 4/10/81
f 6/23/82 9/19/82 47/18/82
f 48/91/83 33/29/83 20/28/83
f 35/33/84 29/32/84 34/106/84
f 34/106/85 17/107/85 49/108/85
f 63/46/86 56/58/86 55/102/86 38/109/86
f 50/22/87 63/46/87 38/109/87
f 62/81/88 23/80/88 2/110/88 12/111/88
f 50/40/89 9/19/89 21/41/89
f 1/45/90 51/43/90 39/69/90
f 52/100/91 28/71/91 41/56/91
f 27/73/92 41/56/92 28/71/92
f 42/57/93 60/101/93 56/58/93
f 2/110/94 23/80/94 57/66/94
f 58/112/95 28/78/95 26/77/95
f 62/104/96 12/37/96 13/39/96 59/75/96
f 53/54/97 1/45/97 25/70/97 15/55/97
f 16/74/98 58/113/98 26/105/98
f 5/7/99 20/28/99 46/8/99
f 6/23/100 30/24/100 31/92/100
f 49/108/101 7/114/101 35/33/101
f 34/106/102 49/108/102 35/33/102
f 14/94/103 36/63/103 24/61/103
f 2/93/104 37/38/104 12/37/104
f 50/22/105 11/4/105 22/47/105
f 36/63/106 33/25/106 38/62/106
f 4/16/107 46/8/107 20/28/107
f 54/115/108 40/44/108 8/116/108
f 22/47/109 11/4/109 40/95/109
f 54/115/110 8/116/110 1/45/110 53/54/110
f 57/66/111 39/30/111 14/35/111
f 14/35/112 2/110/112 57/66/112
f 42/117/113 16/118/113 60/119/113
f 27/120/114 58/113/114 16/74/114
f 26/82/115 61/121/115 23/80/115
f 52/100/116 61/99/116 26/122/116
