# Blender v2.92.0 OBJ File: 'airShipStuff.blend'
# www.blender.org
mtllib Rock1.mtl
o Rock_Mesh.001
v 1.668872 -0.005062 1.526665
v -0.583982 0.685218 0.643907
v 0.006872 0.009666 -1.127628
v 0.940931 0.153578 1.541394
v -0.780000 -0.390005 -0.617635
v 1.090688 -1.382682 -0.917174
v 1.341044 -1.547856 0.110605
v 0.724075 -1.187690 1.258776
v -0.995901 0.212802 0.018706
v -0.877924 -0.561369 0.136496
v 2.199125 -0.454688 1.155201
v 0.190360 1.002308 0.198308
v -0.260062 0.905915 -0.422118
v -0.648394 0.472109 -0.578909
v 1.540698 -1.297556 1.266917
v 0.284656 -1.348543 -0.429733
v 1.616226 0.529243 0.582236
v -0.284291 -0.128229 1.114413
v 0.677519 0.209434 -1.000668
v 1.787288 -0.645342 -0.599438
v 1.529098 -0.713695 1.779582
v 2.038765 -1.082684 0.447282
v 0.903990 -1.098186 -1.236506
vt 0.100099 0.384846
vt 0.084987 0.388005
vt 0.102852 0.363680
vt 0.148696 0.372270
vt 0.177578 0.380417
vt 0.150716 0.388418
vt 0.159266 0.411202
vt 0.184619 0.411348
vt 0.184619 0.444188
vt 0.056429 0.464149
vt 0.033928 0.445067
vt 0.067285 0.447112
vt 0.102852 0.434177
vt 0.116660 0.407889
vt 0.119791 0.457874
vt 0.103598 0.385721
vt 0.139466 0.368436
vt 0.166313 0.347096
vt 0.160469 0.372270
vt 0.045596 0.404611
vt 0.069885 0.397266
vt 0.065965 0.383199
vt 0.040473 0.349910
vt 0.069885 0.472043
vt 0.089218 0.418774
vt 0.069885 0.408869
vt 0.075185 0.388005
vt 0.142565 0.328718
vt 0.166313 0.319696
vt 0.161587 0.307980
vt 0.109344 0.309327
vt 0.033928 0.319502
vt 0.071104 0.320758
vt 0.056029 0.307980
vt 0.071082 0.438157
vt 0.138845 0.439351
vt 0.140297 0.455072
vt 0.086173 0.357126
vt 0.170649 0.390585
vt 0.102852 0.329272
vt 0.140297 0.384547
vt 0.123431 0.372270
vt 0.140297 0.406509
vt 0.041516 0.388005
vt 0.102852 0.324918
vt 0.044265 0.475472
vt 0.097200 0.459512
vt 0.079179 0.457507
vt 0.099985 0.442346
vt 0.099985 0.400821
vt 0.098246 0.315947
vn -0.2829 0.5398 -0.7928
vn -0.7054 0.7055 -0.0683
vn -0.4279 -0.2615 -0.8652
vn 0.1966 0.8580 0.4745
vn -0.3353 0.0312 0.9416
vn -0.3794 0.3545 0.8546
vn -0.1320 -0.9639 0.2314
vn 0.0751 0.8614 0.5023
vn 0.3846 0.8281 -0.4078
vn 0.0887 0.3193 0.9435
vn 0.6208 -0.7361 -0.2695
vn -0.1197 -0.9844 -0.1290
vn -0.4876 -0.6548 -0.5775
vn 0.8899 0.3814 -0.2503
vn 0.9732 0.0102 -0.2295
vn 0.5205 -0.8487 0.0938
vn -0.0960 -0.6578 0.7470
vn 0.6352 0.5918 -0.4963
vn -0.8818 0.1546 -0.4456
vn -0.7178 0.6859 -0.1198
vn -0.6233 -0.7412 -0.2494
vn -0.2608 -0.9523 0.1586
vn -0.8415 -0.0213 0.5399
vn -0.4069 -0.2683 0.8732
vn -0.9709 -0.1731 -0.1654
vn -0.3305 0.9391 0.0940
vn -0.3401 -0.7921 -0.5069
vn -0.0328 0.6122 -0.7901
vn 0.3790 0.8374 -0.3939
vn 0.1254 0.1971 -0.9723
vn -0.4780 -0.8539 0.2057
vn -0.6187 -0.5070 0.6001
vn 0.7311 0.6105 0.3046
vn 0.6453 0.1407 0.7509
vn 0.6925 -0.4682 0.5489
vn 0.7458 -0.5317 -0.4013
vn -0.5836 0.1251 -0.8024
vn 0.7667 -0.5565 0.3200
vn 0.4860 0.2359 -0.8415
vn 0.6575 -0.3292 -0.6777
usemtl Material.011
s off
f 14/1/1 13/2/1 3/3/1
f 2/4/2 13/5/2 9/6/2
f 5/7/3 3/8/3 23/9/3
f 1/10/4 17/11/4 4/12/4
f 4/13/5 18/14/5 21/15/5
f 2/16/6 18/14/6 4/13/6
f 8/17/7 7/18/7 15/19/7
f 12/20/8 2/21/8 4/12/8 17/11/8
f 13/2/9 12/22/9 17/23/9
f 21/24/10 1/10/10 4/12/10
f 22/25/11 7/26/11 6/27/11
f 16/28/12 6/29/12 7/18/12
f 23/30/13 16/28/13 5/31/13
f 11/32/14 20/33/14 17/23/14
f 22/34/15 20/33/15 11/32/15
f 22/25/16 15/35/16 7/26/16
f 8/36/17 15/37/17 21/15/17
f 20/33/18 19/38/18 17/23/18
f 9/6/19 14/39/19 5/7/19
f 9/6/20 13/5/20 14/39/20
f 10/40/21 5/31/21 16/28/21
f 8/17/22 16/28/22 7/18/22
f 10/41/23 18/14/23 2/16/23 9/42/23
f 21/15/24 18/14/24 8/36/24
f 5/7/25 10/43/25 9/6/25
f 2/21/26 12/20/26 13/44/26
f 16/28/27 23/30/27 6/29/27
f 3/3/28 13/2/28 19/38/28
f 13/2/29 17/23/29 19/38/29
f 23/45/30 3/3/30 19/38/30
f 8/17/31 10/40/31 16/28/31
f 18/14/32 10/41/32 8/36/32
f 1/10/33 11/46/33 17/11/33
f 1/47/34 21/48/34 11/49/34
f 15/35/35 11/49/35 21/48/35
f 20/50/36 22/25/36 6/27/36
f 3/8/37 5/7/37 14/39/37
f 15/35/38 22/25/38 11/49/38
f 19/38/39 20/33/39 23/45/39
f 6/51/40 23/45/40 20/33/40
