# Blender v2.92.0 OBJ File: 'airShipStuff.blend'
# www.blender.org
mtllib snowRock1.mtl
o Mball.004_Mesh.004
v 1.633973 0.870666 -0.871709
v 1.414942 1.042517 0.874853
v 2.063673 0.547227 0.792253
v 2.161786 0.234761 1.115510
v 2.261089 0.647472 -0.195035
v 2.569240 -0.810864 -0.393254
v 2.175872 -0.974654 0.407522
v 2.731314 -0.020850 -0.163637
v 2.023869 -0.790728 1.087002
v 0.997249 -0.148795 1.404794
v 0.702157 0.824843 1.021941
v 1.874526 1.115661 -0.107316
v 0.539580 1.124046 -0.889360
v -0.357902 0.531439 -0.914214
v -0.618599 0.973196 0.187428
v 0.154584 1.084547 0.654311
v -0.335616 0.571178 1.094095
v -0.351992 -0.465747 1.231649
v -0.722123 -1.069580 0.046717
v 0.184785 -1.484361 -0.219521
v -0.492328 -0.901009 -0.625938
v -0.450442 -0.238076 -1.046651
v 0.901432 -0.023819 -1.354060
v -1.050685 -0.450943 -0.287812
v -1.105806 0.562914 -0.440978
v -1.074953 0.014750 0.469699
v 2.156974 -0.169643 -1.174649
v 0.864870 -0.906335 -1.351180
v 1.898844 -0.948958 -0.886707
v 1.651770 -1.458323 -0.625543
v 1.837656 -1.432202 0.301000
v 1.298780 -1.461030 0.499611
v 0.420490 -0.972036 1.066442
v 0.552560 -1.556405 0.568208
vt 0.723772 0.670631
vt 0.713681 0.670847
vt 0.723748 0.663545
vt 0.667178 0.648179
vt 0.656468 0.656215
vt 0.660186 0.642685
vt 0.668660 0.657615
vt 0.661211 0.663026
vt 0.676256 0.650791
vt 0.673072 0.655876
vt 0.666972 0.638912
vt 0.671795 0.640117
vt 0.693118 0.645275
vt 0.696759 0.646268
vt 0.688120 0.658665
vt 0.718702 0.649855
vt 0.723772 0.655039
vt 0.702130 0.657475
vt 0.722257 0.643004
vt 0.711765 0.642048
vt 0.713267 0.609443
vt 0.704149 0.604879
vt 0.715091 0.600440
vt 0.676863 0.626132
vt 0.678533 0.635271
vt 0.664216 0.638382
vt 0.661572 0.627655
vt 0.656851 0.635279
vt 0.721520 0.615365
vt 0.716743 0.622862
vt 0.702565 0.616173
vt 0.723494 0.604131
vt 0.692143 0.600440
vt 0.690234 0.608590
vt 0.684706 0.605537
vt 0.683456 0.637564
vt 0.678533 0.621261
vt 0.687813 0.624461
vt 0.696958 0.634768
vt 0.650596 0.667262
vt 0.664351 0.667262
vt 0.668891 0.609157
vt 0.678533 0.607851
vt 0.670703 0.615473
vt 0.723494 0.607894
vt 0.728322 0.600440
vt 0.728322 0.616557
vt 0.670809 0.624038
vt 0.683950 0.673809
vt 0.678533 0.664600
vt 0.699276 0.662165
vt 0.695891 0.673981
vt 0.702565 0.603227
vt 0.698613 0.611888
vt 0.681307 0.646358
vt 0.655749 0.638382
vt 0.649655 0.645365
vt 0.670746 0.605518
vt 0.658136 0.610550
vt 0.702565 0.623584
vt 0.723494 0.622293
vt 0.690835 0.637564
vt 0.702130 0.653987
vt 0.662046 0.600440
vt 0.702565 0.629990
vt 0.707503 0.622862
vt 0.707503 0.634737
vt 0.649655 0.619171
vt 0.702130 0.668239
vt 0.704386 0.669558
vt 0.703368 0.637564
vn 0.5984 0.7281 0.3343
vn 0.7261 0.4881 -0.4843
vn 0.5886 -0.4445 -0.6753
vn 0.8921 -0.3442 0.2927
vn 0.8812 -0.2894 0.3737
vn 0.8131 0.5219 0.2577
vn -0.0588 0.7088 0.7030
vn 0.1603 0.9028 0.3990
vn -0.0076 0.9997 0.0237
vn -0.3987 0.7858 0.4729
vn -0.7476 0.4885 0.4499
vn -0.3916 -0.7646 0.5119
vn -0.2818 -0.8725 0.3992
vn -0.4736 -0.8025 -0.3629
vn -0.8806 -0.2500 0.4025
vn -0.7403 -0.5830 0.3347
vn -0.9985 -0.0541 0.0013
vn -0.6788 -0.3624 -0.6386
vn 0.1404 -0.0090 -0.9901
vn 0.1725 0.3543 -0.9191
vn 0.3562 -0.4254 -0.8320
vn 0.3229 -0.5511 -0.7694
vn 0.2535 -0.7780 0.5749
vn -0.8147 -0.4717 0.3372
vn 0.1126 -0.9834 -0.1425
vn -0.0355 -0.3585 0.9328
vn -0.0231 0.3598 0.9328
vn -0.6750 0.0056 -0.7378
vn -0.4180 -0.4678 -0.7788
vn -0.6870 0.1062 0.7188
vn 0.0335 -0.3999 0.9159
vn 0.7937 0.5686 0.2164
vn 0.7725 0.5975 0.2151
vn 0.7109 0.5011 -0.4935
vn 0.6644 0.6253 -0.4095
vn 0.7221 -0.6098 0.3266
vn 0.0187 -0.9998 0.0035
vn 0.0699 -0.6992 0.7115
vn -0.1844 0.3183 -0.9299
vn -0.3967 0.6288 -0.6688
vn -0.7094 -0.5874 -0.3895
vn 0.8712 -0.0364 -0.4896
vn 0.8954 -0.1322 0.4251
vn 0.2597 -0.0617 0.9637
vn 0.1803 0.0725 0.9809
vn -0.2466 0.1931 -0.9497
vn 0.6576 -0.7531 0.0190
vn -0.8163 0.4823 0.3180
vn -0.2226 0.0060 -0.9749
vn 0.0594 -0.9981 0.0162
vn 0.1501 -0.6216 0.7688
vn -0.1261 -0.8507 -0.5103
vn -0.3094 -0.7586 -0.5734
vn -0.1567 0.1323 0.9787
vn -0.1260 0.7121 0.6907
vn -0.1373 0.9905 -0.0089
vn 0.2331 0.4162 0.8789
vn -0.3049 0.9497 -0.0719
vn 0.5580 -0.5766 -0.5967
vn 0.1078 0.4021 -0.9092
vn 0.2160 0.9080 -0.3590
vn -0.3777 0.8817 -0.2828
usemtl Material.068
s off
f 3/1/1 12/2/1 2/3/1
f 8/4/2 27/5/2 5/6/2
f 6/7/3 29/8/3 27/5/3
f 8/4/4 9/9/4 7/10/4
f 6/7/5 8/4/5 7/10/5
f 8/4/6 3/11/6 4/12/6
f 4/13/7 3/14/7 10/15/7
f 12/2/8 16/16/8 11/17/8
f 12/2/9 13/18/9 16/16/9
f 17/19/10 16/16/10 15/20/10
f 26/21/11 17/22/11 15/23/11
f 33/24/12 18/25/12 19/26/12
f 20/27/13 33/24/13 19/26/13
f 21/28/14 20/27/14 19/26/14
f 24/29/15 19/30/15 18/31/15
f 26/21/16 24/29/16 18/31/16
f 25/32/17 24/29/17 26/21/17
f 24/33/18 22/34/18 21/35/18
f 27/36/19 28/37/19 23/38/19
f 1/39/20 27/36/20 23/38/20
f 27/5/21 29/8/21 28/40/21
f 29/8/22 30/41/22 28/40/22
f 31/42/23 9/43/23 32/44/23
f 34/45/24 33/46/24 20/47/24
f 20/27/25 32/44/25 34/48/25
f 10/15/26 18/49/26 33/50/26
f 11/51/27 17/52/27 10/15/27
f 22/34/28 24/33/28 25/53/28 14/54/28
f 28/37/29 21/35/29 22/34/29
f 26/21/30 18/31/30 17/22/30
f 33/50/31 9/55/31 10/15/31
f 5/6/32 3/11/32 8/4/32
f 3/11/33 5/6/33 12/56/33
f 27/5/34 1/57/34 5/6/34
f 5/6/35 1/57/35 12/56/35
f 7/58/36 9/43/36 31/42/36
f 30/59/37 32/44/37 20/27/37
f 32/44/38 9/43/38 33/24/38
f 13/60/39 23/38/39 14/54/39
f 13/60/40 14/54/40 25/53/40
f 24/29/41 21/61/41 19/30/41
f 27/5/42 8/4/42 6/7/42
f 8/62/43 4/13/43 9/55/43
f 4/13/44 10/15/44 9/55/44
f 3/14/45 2/63/45 11/51/45
f 14/54/46 23/38/46 22/34/46
f 7/58/47 31/42/47 30/59/47 6/64/47
f 15/23/48 25/32/48 26/21/48
f 22/34/49 23/38/49 28/37/49
f 30/59/50 31/42/50 32/44/50
f 34/65/51 32/66/51 33/67/51
f 28/68/52 30/59/52 20/27/52
f 21/28/53 28/68/53 20/27/53
f 10/15/54 17/52/54 18/49/54
f 11/51/55 16/69/55 17/52/55
f 13/18/56 15/20/56 16/16/56
f 3/14/57 11/51/57 10/15/57
f 2/3/58 12/2/58 11/17/58
f 29/8/59 6/7/59 30/41/59
f 13/60/60 1/39/60 23/38/60
f 12/2/61 1/70/61 13/18/61
f 15/20/62 13/18/62 25/71/62
