# Blender v2.92.0 OBJ File: 'airShipStuff.blend'
# www.blender.org
mtllib snowTree1.mtl
o Cone.002_Cone.001
v 0.000000 -1.622174 -1.622174
v 1.147050 -1.622174 -1.147050
v 1.622174 -1.622174 0.000000
v 1.147050 -1.622174 1.147050
v -0.000000 -1.622174 1.622174
v -1.147051 -1.622174 1.147050
v -1.622174 -1.622174 -0.000000
v -1.147051 -1.622174 -1.147050
v 0.000000 1.622174 0.000000
v -0.268031 -9.223705 0.242617
v -0.027188 -9.223705 -0.195555
v 0.409751 -9.186225 0.044610
v 0.168909 -9.186225 0.482782
v -0.375282 -6.650072 0.131425
v -0.178544 -6.650072 -0.226507
v 0.178381 -6.619456 -0.030322
v -0.018357 -6.619456 0.327610
v -0.289093 -8.718294 0.220781
v -0.056912 -8.718294 -0.201633
v 0.364315 -8.682162 0.029895
v 0.132133 -8.682162 0.452309
v -0.307565 -8.275043 0.201631
v -0.082979 -8.275043 -0.206964
v 0.324466 -8.240093 0.016989
v 0.099881 -8.240093 0.425584
v -0.325170 -7.852572 0.183378
v -0.107825 -7.852572 -0.212045
v 0.286486 -7.818749 0.004689
v 0.069141 -7.818749 0.400112
v -0.342236 -7.443054 0.165685
v -0.131909 -7.443054 -0.216970
v 0.249670 -7.410324 -0.007234
v 0.039343 -7.410324 0.375421
v -0.358912 -7.042908 0.148397
v -0.155441 -7.042908 -0.221783
v 0.213697 -7.011244 -0.018885
v 0.010227 -7.011244 0.351295
v 0.000000 -3.372407 -1.901387
v 1.344484 -3.372407 -1.344484
v 1.901387 -3.372407 0.000000
v 1.344484 -3.372407 1.344484
v -0.000000 -3.372407 1.901387
v -1.344484 -3.372407 1.344483
v -1.901387 -3.372407 -0.000000
v -1.344484 -3.372407 -1.344483
v 0.000000 0.430367 0.000000
v 0.000000 -5.061057 -1.950507
v 1.379217 -5.061057 -1.379217
v 1.950507 -5.061057 0.000000
v 1.379217 -5.061057 1.379217
v -0.000000 -5.061057 1.950507
v -1.379217 -5.061057 1.379217
v -1.950507 -5.061057 -0.000000
v -1.379217 -5.061057 -1.379217
v 0.000000 -1.160042 0.000000
v 0.000000 -6.820912 -2.263640
v 1.600635 -6.820912 -1.600635
v 2.263640 -6.820912 0.000000
v 1.600635 -6.820912 1.600635
v -0.000000 -6.820912 2.263640
v -1.600635 -6.820912 1.600635
v -2.263640 -6.820912 -0.000000
v -1.600635 -6.820912 -1.600635
v 0.000000 -2.293633 0.000000
vt 0.657349 0.664753
vt 0.657349 0.690896
vt 0.648344 0.666516
vt 0.641787 0.669010
vt 0.739221 0.680708
vt 0.754472 0.659167
vt 0.747571 0.684513
vt 0.754472 0.686034
vt 0.736070 0.659961
vt 0.736070 0.686106
vt 0.727067 0.661727
vt 0.720502 0.664226
vt 0.700984 0.654549
vt 0.710179 0.654549
vt 0.716681 0.661052
vt 0.716681 0.670248
vt 0.710178 0.676751
vt 0.700983 0.676751
vt 0.694481 0.670248
vt 0.694481 0.661052
vt 0.752637 0.586007
vt 0.767687 0.564999
vt 0.761005 0.589770
vt 0.767687 0.591793
vt 0.900810 0.908866
vt 0.900810 0.915094
vt 0.894593 0.915094
vt 0.894593 0.908866
vt 0.663028 0.635489
vt 0.660003 0.635489
vt 0.660003 0.632464
vt 0.663028 0.632464
vt 0.894755 0.902679
vt 0.900754 0.902679
vt 0.900816 0.908866
vt 0.894593 0.908866
vt 0.906901 0.851766
vt 0.900899 0.851766
vt 0.900816 0.845549
vt 0.907042 0.845549
vt 0.900670 0.851797
vt 0.894670 0.851797
vt 0.894593 0.845549
vt 0.906870 0.883431
vt 0.900874 0.883431
vt 0.900816 0.877207
vt 0.907036 0.877207
vt 0.894897 0.897254
vt 0.900700 0.897254
vt 0.906777 0.857218
vt 0.900971 0.857218
vt 0.900541 0.857276
vt 0.894738 0.857276
vt 0.906724 0.888889
vt 0.900924 0.888889
vt 0.895033 0.892083
vt 0.900649 0.892083
vt 0.906659 0.862415
vt 0.901040 0.862415
vt 0.900419 0.862499
vt 0.894803 0.862499
vt 0.906585 0.894091
vt 0.900972 0.894091
vt 0.895164 0.887070
vt 0.900599 0.887070
vt 0.906545 0.867453
vt 0.901107 0.867453
vt 0.900300 0.867561
vt 0.894865 0.867561
vt 0.906450 0.899133
vt 0.901018 0.899133
vt 0.895292 0.882172
vt 0.900550 0.882172
vt 0.906433 0.872375
vt 0.901173 0.872375
vt 0.900184 0.872508
vt 0.894926 0.872508
vt 0.906318 0.904060
vt 0.901064 0.904060
vt 0.895418 0.877364
vt 0.900502 0.877364
vt 0.906323 0.877207
vt 0.901237 0.877207
vt 0.900070 0.877364
vt 0.894986 0.877364
vt 0.906189 0.908898
vt 0.901108 0.908898
vt 0.757461 0.628525
vt 0.757461 0.659167
vt 0.746906 0.630591
vt 0.739221 0.633514
vt 0.672766 0.663557
vt 0.690641 0.638309
vt 0.682553 0.668018
vt 0.690641 0.669800
vt 0.734871 0.589968
vt 0.752637 0.564999
vt 0.744669 0.594400
vt 0.752637 0.596475
vt 0.702102 0.628525
vt 0.712881 0.628525
vt 0.720502 0.636147
vt 0.720502 0.646926
vt 0.712881 0.654548
vt 0.702102 0.654549
vt 0.694481 0.646927
vt 0.694481 0.636147
vt 0.758228 0.597452
vt 0.758228 0.627742
vt 0.747686 0.599578
vt 0.739937 0.602212
vt 0.641787 0.658082
vt 0.660003 0.632464
vt 0.651840 0.662630
vt 0.660003 0.664753
vt 0.734871 0.564999
vt 0.734871 0.596734
vt 0.724033 0.567066
vt 0.716204 0.570368
vt 0.739221 0.628525
vt 0.739221 0.659961
vt 0.728395 0.630648
vt 0.720502 0.633652
vt 0.702300 0.601829
vt 0.713356 0.601829
vt 0.721174 0.609648
vt 0.721174 0.620706
vt 0.713356 0.628525
vt 0.702299 0.628525
vt 0.694481 0.620706
vt 0.694481 0.609648
vt 0.739937 0.597452
vt 0.739937 0.628525
vt 0.729123 0.599633
vt 0.721174 0.602335
vt 0.694481 0.601829
vt 0.694481 0.638309
vt 0.681915 0.604288
vt 0.672766 0.607769
vt 0.694429 0.564999
vt 0.694429 0.601829
vt 0.681851 0.567398
vt 0.672766 0.571230
vt 0.663512 0.595981
vt 0.663512 0.632464
vt 0.650948 0.598445
vt 0.641787 0.601932
vt 0.650861 0.564999
vt 0.663693 0.564999
vt 0.672766 0.574074
vt 0.672766 0.586907
vt 0.663692 0.595981
vt 0.650860 0.595981
vt 0.641787 0.586907
vt 0.641787 0.574074
vt 0.716204 0.564999
vt 0.716204 0.601060
vt 0.703653 0.567530
vt 0.694429 0.570666
vn 0.3474 0.4194 -0.8387
vn 0.8387 0.4194 -0.3474
vn 0.8387 0.4194 0.3474
vn 0.3474 0.4194 0.8387
vn -0.3474 0.4194 0.8387
vn -0.8387 0.4194 0.3474
vn 0.0000 -1.0000 0.0000
vn -0.8387 0.4194 -0.3474
vn -0.3474 0.4194 -0.8387
vn 0.0657 -0.9972 0.0361
vn -0.0657 0.9972 -0.0361
vn -0.8749 -0.0572 -0.4809
vn 0.4804 0.0177 -0.8768
vn 0.8726 0.0927 0.4796
vn -0.4828 0.0177 0.8756
usemtl Material.067
s off
f 1/1/1 9/2/1 2/3/1
f 2/3/2 9/2/2 3/4/2
f 3/5/3 9/6/3 4/7/3
f 4/7/4 9/6/4 5/8/4
f 5/9/5 9/10/5 6/11/5
f 6/11/6 9/10/6 7/12/6
f 1/13/7 2/14/7 3/15/7 4/16/7 5/17/7 6/18/7 7/19/7 8/20/7
f 7/21/8 9/22/8 8/23/8
f 8/23/9 9/22/9 1/24/9
f 10/25/10 11/26/10 12/27/10 13/28/10
f 17/29/11 16/30/11 15/31/11 14/32/11
f 18/33/12 19/34/12 11/35/12 10/36/12
f 19/37/13 20/38/13 12/39/13 11/40/13
f 20/41/14 21/42/14 13/43/14 12/39/14
f 21/44/15 18/45/15 10/46/15 13/47/15
f 22/48/12 23/49/12 19/34/12 18/33/12
f 23/50/13 24/51/13 20/38/13 19/37/13
f 24/52/14 25/53/14 21/42/14 20/41/14
f 25/54/15 22/55/15 18/45/15 21/44/15
f 26/56/12 27/57/12 23/49/12 22/48/12
f 27/58/13 28/59/13 24/51/13 23/50/13
f 28/60/14 29/61/14 25/53/14 24/52/14
f 29/62/15 26/63/15 22/55/15 25/54/15
f 30/64/12 31/65/12 27/57/12 26/56/12
f 31/66/13 32/67/13 28/59/13 27/58/13
f 32/68/14 33/69/14 29/61/14 28/60/14
f 33/70/15 30/71/15 26/63/15 29/62/15
f 34/72/12 35/73/12 31/65/12 30/64/12
f 35/74/13 36/75/13 32/67/13 31/66/13
f 36/76/14 37/77/14 33/69/14 32/68/14
f 37/78/15 34/79/15 30/71/15 33/70/15
f 14/80/12 15/81/12 35/73/12 34/72/12
f 15/82/13 16/83/13 36/75/13 35/74/13
f 16/84/14 17/85/14 37/77/14 36/76/14
f 17/86/15 14/87/15 34/79/15 37/78/15
f 38/88/1 46/89/1 39/90/1
f 39/90/2 46/89/2 40/91/2
f 40/92/3 46/93/3 41/94/3
f 41/94/4 46/93/4 42/95/4
f 42/96/5 46/97/5 43/98/5
f 43/98/6 46/97/6 44/99/6
f 38/100/7 39/101/7 40/102/7 41/103/7 42/104/7 43/105/7 44/106/7 45/107/7
f 44/108/8 46/109/8 45/110/8
f 45/110/9 46/109/9 38/111/9
f 47/112/1 55/113/1 48/114/1
f 48/114/2 55/113/2 49/115/2
f 49/116/3 55/117/3 50/118/3
f 50/118/4 55/117/4 51/119/4
f 51/120/5 55/121/5 52/122/5
f 52/122/6 55/121/6 53/123/6
f 47/124/7 48/125/7 49/126/7 50/127/7 51/128/7 52/129/7 53/130/7 54/131/7
f 53/132/8 55/133/8 54/134/8
f 54/134/9 55/133/9 47/135/9
f 56/136/1 64/137/1 57/138/1
f 57/138/2 64/137/2 58/139/2
f 58/140/3 64/141/3 59/142/3
f 59/142/4 64/141/4 60/143/4
f 60/144/5 64/145/5 61/146/5
f 61/146/6 64/145/6 62/147/6
f 56/148/7 57/149/7 58/150/7 59/151/7 60/152/7 61/153/7 62/154/7 63/155/7
f 62/156/8 64/157/8 63/158/8
f 63/158/9 64/157/9 56/159/9
