# Blender v2.92.0 OBJ File: 'airShipStuff.blend'
# www.blender.org
mtllib torch.mtl
o Cylinder.006_Cylinder.001
v -0.058239 -0.210105 -0.046047
v 0.193867 0.699402 -0.071113
v -0.026862 -0.218803 -0.032560
v 0.242324 0.685970 -0.050284
v -0.013865 -0.222405 0.000000
v 0.262395 0.680406 0.000000
v -0.026862 -0.218803 0.032560
v 0.242324 0.685970 0.050284
v -0.058239 -0.210105 0.046047
v 0.193867 0.699402 0.071113
v -0.089616 -0.201408 0.032560
v 0.145410 0.712834 0.050284
v -0.102613 -0.197805 -0.000000
v 0.125338 0.718397 -0.000000
v -0.089616 -0.201408 -0.032560
v 0.145410 0.712834 -0.050284
v 0.254854 0.682497 -0.063287
v 0.193867 0.699402 -0.089501
v 0.280115 0.675494 0.000000
v 0.254854 0.682497 0.063287
v 0.193867 0.699402 0.089501
v 0.132880 0.716307 0.063287
v 0.107618 0.723309 -0.000000
v 0.132880 0.716307 -0.063287
v 0.308695 0.876738 -0.063287
v 0.247708 0.893643 -0.089501
v 0.333957 0.869736 0.000000
v 0.308695 0.876738 0.063287
v 0.247708 0.893643 0.089501
v 0.186721 0.910548 0.063287
v 0.161460 0.917551 0.000000
v 0.186721 0.910548 -0.063287
v -0.276365 -0.007477 0.101852
v -0.282198 0.078222 0.101852
v -0.276365 -0.007477 -0.101991
v -0.282198 0.078222 -0.101991
v 0.074462 -0.112923 0.101852
v 0.098217 -0.027225 0.101852
v 0.074462 -0.112923 -0.101991
v 0.098217 -0.027225 -0.101991
v -0.308697 0.512525 0.101852
v -0.308686 0.598223 0.101852
v -0.308697 0.512525 -0.101991
v -0.308686 0.598223 -0.101991
v 0.202482 0.348927 0.101852
v 0.226237 0.434625 0.101852
v 0.202482 0.348927 -0.101991
v 0.226237 0.434625 -0.101991
vt 0.904028 0.833368
vt 0.905540 0.894993
vt 0.903027 0.895024
vt 0.902401 0.833388
vt 0.899473 0.895024
vt 0.900100 0.833388
vt 0.896961 0.894993
vt 0.898472 0.833368
vt 0.912021 0.833368
vt 0.912647 0.895004
vt 0.909093 0.895004
vt 0.909720 0.833368
vt 0.895449 0.833368
vt 0.896961 0.894993
vt 0.894448 0.895024
vt 0.893821 0.833388
vt 0.890894 0.895024
vt 0.891520 0.833388
vt 0.069819 0.630232
vt 0.071550 0.630232
vt 0.071774 0.630773
vt 0.069595 0.630773
vt 0.888381 0.894993
vt 0.889893 0.833368
vt 0.908467 0.833368
vt 0.909093 0.895004
vt 0.906166 0.833368
vt 0.916575 0.868162
vt 0.918203 0.869789
vt 0.918203 0.872090
vt 0.916575 0.873717
vt 0.914274 0.873717
vt 0.912647 0.872090
vt 0.912647 0.869789
vt 0.914274 0.868162
vt 0.073315 0.620251
vt 0.071774 0.620233
vt 0.071774 0.613821
vt 0.073315 0.613840
vt 0.069819 0.626052
vt 0.068595 0.627277
vt 0.068054 0.627053
vt 0.069595 0.625512
vt 0.068595 0.629008
vt 0.068054 0.629232
vt 0.071550 0.626052
vt 0.071774 0.625512
vt 0.072774 0.629008
vt 0.073315 0.629232
vt 0.072774 0.627277
vt 0.073315 0.627053
vt 0.068054 0.623971
vt 0.068054 0.621792
vt 0.069595 0.620251
vt 0.071774 0.620251
vt 0.073315 0.621792
vt 0.073315 0.623971
vt 0.071774 0.625512
vt 0.069595 0.625512
vt 0.069595 0.620233
vt 0.068054 0.620251
vt 0.068054 0.613840
vt 0.069595 0.613821
vt 0.074856 0.620233
vt 0.073315 0.620251
vt 0.073315 0.613840
vt 0.074856 0.613821
vt 0.073315 0.620251
vt 0.074856 0.620270
vt 0.074856 0.626682
vt 0.073315 0.626663
vt 0.077035 0.620270
vt 0.077035 0.626682
vt 0.077035 0.620233
vt 0.077035 0.613821
vt 0.073315 0.626682
vt 0.075494 0.626682
vt 0.075494 0.633093
vt 0.073315 0.633093
vt 0.895667 0.897225
vt 0.886183 0.897225
vt 0.886183 0.886934
vt 0.895667 0.886934
vt 0.897350 0.877448
vt 0.906726 0.876009
vt 0.906726 0.895938
vt 0.896436 0.895938
vt 0.927308 0.866249
vt 0.927308 0.876539
vt 0.917017 0.876539
vt 0.917017 0.866249
vt 0.917017 0.894848
vt 0.906726 0.894848
vt 0.906726 0.874919
vt 0.916102 0.876359
vt 0.917017 0.866249
vt 0.917017 0.847740
vt 0.927308 0.847740
vt 0.927308 0.866249
vt 0.886183 0.876644
vt 0.886183 0.896563
vt 0.875892 0.896563
vt 0.875892 0.876644
vt 0.895808 0.886934
vt 0.886183 0.886934
vt 0.886183 0.876644
vt 0.895808 0.876644
vt 0.886966 0.849471
vt 0.896436 0.847740
vt 0.896436 0.876022
vt 0.886164 0.876644
vt 0.927308 0.886830
vt 0.917017 0.886830
vt 0.917017 0.876539
vt 0.927308 0.876539
vt 0.875892 0.847740
vt 0.886164 0.848362
vt 0.886164 0.876644
vt 0.876694 0.874913
vt 0.906726 0.874919
vt 0.906726 0.847740
vt 0.917017 0.847741
vt 0.917017 0.874919
vt 0.906726 0.847740
vt 0.906726 0.876009
vt 0.896436 0.876009
vt 0.896436 0.847740
vn 0.3621 -0.1258 -0.9236
vn 0.8835 -0.2703 -0.3826
vn 0.8835 -0.2703 0.3826
vn 0.3621 -0.1258 0.9236
vn -0.3752 0.0786 0.9236
vn -0.8966 0.2231 0.3826
vn -0.2671 -0.9637 0.0000
vn -0.8966 0.2231 -0.3826
vn -0.3752 0.0786 -0.9236
vn -0.8903 0.2468 -0.3827
vn 0.2671 0.9637 0.0000
vn -0.3688 0.1022 0.9239
vn 0.8903 -0.2468 0.3827
vn 0.3688 -0.1022 -0.9239
vn -0.3688 0.1022 -0.9239
vn -0.8903 0.2468 0.3827
vn 0.3688 -0.1022 0.9239
vn 0.8903 -0.2468 -0.3827
vn -0.9977 -0.0679 0.0000
vn 0.0000 0.0000 -1.0000
vn 0.9637 -0.2671 0.0000
vn 0.0000 0.0000 1.0000
vn -0.2878 -0.9577 0.0000
vn -1.0000 0.0001 0.0000
vn -0.3048 -0.9524 0.0000
vn 0.2925 0.9563 0.0000
usemtl Material.094
s off
f 1/1/1 2/2/1 4/3/1 3/4/1
f 3/4/2 4/3/2 6/5/2 5/6/2
f 5/6/3 6/5/3 8/7/3 7/8/3
f 7/9/4 8/10/4 10/11/4 9/12/4
f 9/13/5 10/14/5 12/15/5 11/16/5
f 11/16/6 12/15/6 14/17/6 13/18/6
f 8/19/7 6/20/7 19/21/7 20/22/7
f 13/18/8 14/17/8 16/23/8 15/24/8
f 15/25/9 16/26/9 2/2/9 1/27/9
f 1/28/7 3/29/7 5/30/7 7/31/7 9/32/7 11/33/7 13/34/7 15/35/7
f 24/36/10 23/37/10 31/38/10 32/39/10
f 14/40/7 12/41/7 22/42/7 23/43/7
f 10/44/7 8/19/7 20/22/7 21/45/7
f 16/46/7 14/40/7 23/43/7 24/47/7
f 6/20/7 4/48/7 17/49/7 19/21/7
f 12/41/7 10/44/7 21/45/7 22/42/7
f 2/50/7 16/46/7 24/47/7 18/51/7
f 4/48/7 2/50/7 18/51/7 17/49/7
f 25/52/11 26/53/11 32/54/11 31/55/11 30/56/11 29/57/11 28/58/11 27/59/11
f 22/60/12 21/61/12 29/62/12 30/63/12
f 20/64/13 19/65/13 27/66/13 28/67/13
f 17/68/14 18/69/14 26/70/14 25/71/14
f 18/69/15 24/72/15 32/73/15 26/70/15
f 23/37/16 22/60/16 30/63/16 31/38/16
f 21/74/17 20/64/17 28/67/17 29/75/17
f 19/76/18 17/77/18 25/78/18 27/79/18
usemtl Material.093
f 33/80/19 34/81/19 36/82/19 35/83/19
f 35/84/20 36/85/20 40/86/20 39/87/20
f 39/88/21 40/89/21 38/90/21 37/91/21
f 37/92/22 38/93/22 34/94/22 33/95/22
f 35/96/23 39/97/23 37/98/23 33/99/23
f 40/100/11 36/101/11 34/102/11 38/103/11
f 41/104/24 42/105/24 44/106/24 43/107/24
f 43/108/20 44/109/20 48/110/20 47/111/20
f 47/112/21 48/113/21 46/114/21 45/115/21
f 45/116/22 46/117/22 42/118/22 41/119/22
f 43/120/25 47/121/25 45/122/25 41/123/25
f 48/124/26 44/125/26 42/126/26 46/127/26
