# Blender v2.92.0 OBJ File: 'airShipStuff.blend'
# www.blender.org
mtllib tree2.mtl
o Cube.002_Cube.024
v 0.080995 -0.043658 0.515504
v -0.516058 -0.043658 0.077385
v -0.080995 0.043658 -0.515504
v 0.516058 0.043658 -0.077385
v -0.120837 2.500304 0.646379
v -0.573438 2.357762 0.296024
v -0.224049 2.409500 -0.176380
v 0.228553 2.552042 0.173975
v -1.620640 5.997117 0.517972
v -1.867089 5.997117 0.332934
v -1.706138 6.149160 0.118566
v -1.459689 6.149160 0.303604
v -0.934106 5.436035 -2.162033
v -0.638724 5.436035 -2.100055
v -0.668957 5.699504 -1.955967
v -0.964339 5.699504 -2.017944
v -0.019495 5.230503 0.039647
v -0.123166 5.225194 0.251763
v -0.287296 5.376818 0.175340
v -0.183625 5.382127 -0.036776
v 0.327960 6.210941 0.273196
v 0.220671 6.198771 0.483219
v 0.024425 6.289505 0.388225
v 0.131714 6.301675 0.178203
v 0.026608 0.665603 0.552953
v -0.535466 0.665603 0.140502
v -0.125892 0.747804 -0.417652
v 0.436183 0.747804 -0.005201
v -0.020371 1.278260 0.585301
v -0.552231 1.278260 0.195022
v -0.164674 1.356042 -0.333129
v 0.367187 1.356042 0.057151
v -0.064909 1.859074 0.615968
v -0.568125 1.859074 0.246708
v -0.201440 1.932667 -0.252998
v 0.301776 1.932667 0.116262
v -0.375352 3.062577 0.482482
v -0.764432 2.796633 0.168239
v -0.423211 2.830195 -0.282648
v -0.034130 3.096138 0.031594
v -0.576717 3.492734 0.349120
v -0.951591 3.236500 0.046352
v -0.622829 3.268836 -0.388073
v -0.247954 3.525070 -0.085304
v -0.769171 3.903856 0.221661
v -1.130468 3.656903 -0.070142
v -0.813613 3.688068 -0.488833
v -0.452316 3.935021 -0.197030
v -0.956059 4.303085 0.097888
v -1.304171 4.065145 -0.183266
v -0.998879 4.095172 -0.586678
v -0.650767 4.333113 -0.305523
v -1.234104 4.883202 0.112621
v -1.585675 4.883202 -0.151344
v -1.356071 5.100099 -0.457150
v -0.992416 5.057511 -0.122596
v -1.342259 5.194881 0.226041
v -1.664416 5.194881 -0.015840
v -1.454021 5.393632 -0.296061
v -1.131865 5.393632 -0.054180
v -1.440431 5.477792 0.328991
v -1.735889 5.477792 0.107156
v -1.542931 5.660072 -0.149841
v -1.247473 5.660072 0.071994
v -1.532635 5.743504 0.425683
v -1.803017 5.743504 0.222675
v -1.626435 5.910313 -0.012511
v -1.356053 5.910313 0.190497
v -1.270727 4.628178 -0.904747
v -0.835859 4.628178 -0.813502
v -0.847566 5.015493 -0.507637
v -1.315237 5.016064 -0.692616
v -1.193117 4.814435 -1.194623
v -0.790408 4.814435 -1.110125
v -0.831626 5.173636 -0.913682
v -1.234335 5.173636 -0.998180
v -1.122912 4.982918 -1.456837
v -0.749294 4.982918 -1.378444
v -0.787535 5.316171 -1.196191
v -1.161153 5.316171 -1.274585
v -1.057123 5.140807 -1.702563
v -0.710766 5.140807 -1.629889
v -0.746217 5.449744 -1.460935
v -1.092573 5.449744 -1.533609
v -0.994432 5.291257 -1.936713
v -0.674053 5.291257 -1.869490
v -0.706844 5.577024 -1.713207
v -1.027224 5.577024 -1.780430
v -0.619301 4.679991 -0.324480
v -0.784869 4.679991 0.037417
v -0.404882 4.876177 -0.193090
v -0.545259 4.876177 0.113745
v -0.710982 5.160150 0.037927
v -0.570605 5.160150 -0.268908
v -0.217705 5.047439 -0.078393
v -0.336091 5.047439 0.180376
v -0.475854 5.286926 0.116434
v -0.357467 5.286926 -0.142334
v 0.064289 5.453692 0.094623
v -0.043000 5.441522 0.304645
v -0.239246 5.532255 0.209652
v -0.131956 5.544425 -0.000371
v 0.130207 5.643004 0.139266
v 0.022918 5.630834 0.349289
v -0.173328 5.721568 0.254295
v -0.066039 5.733737 0.044272
v 0.196125 5.832316 0.183909
v 0.088835 5.820147 0.393932
v -0.107410 5.910880 0.298938
v -0.000121 5.923050 0.088916
v 0.262042 6.021629 0.228553
v 0.154753 6.009459 0.438576
v -0.041493 6.100193 0.343582
v 0.065797 6.112362 0.133559
v 0.104148 7.540339 -2.374162
v -0.139823 5.300574 -2.104699
v 0.513063 6.219191 -1.878206
v 1.270880 6.884179 -0.070997
v 0.995101 7.256723 0.641659
v 0.703902 5.999949 0.380884
v 0.514850 7.462480 1.041999
v -2.217891 7.229676 -2.184247
v -1.457655 8.363731 -1.198389
v -2.084893 5.747541 -2.052886
v -1.043159 5.082924 -2.170516
v -1.365904 6.078044 -3.182417
v 0.172854 6.557012 -2.927480
v -0.930688 7.499169 -3.048739
v -1.256429 5.434004 -0.794504
v -1.380538 5.790820 1.285985
v -1.772962 6.492730 1.456133
v -2.464980 6.160358 0.468025
v -2.107200 7.626652 -0.110606
v -2.188494 6.091711 -0.770718
v -1.450784 5.291254 0.484606
v -0.014701 8.305882 -0.587197
v -1.434831 7.632154 0.852984
v 0.143676 5.682786 -0.926300
vt 0.872871 0.846343
vt 0.876133 0.842094
vt 0.876709 0.843839
vt 0.874557 0.849121
vt 0.890643 0.851513
vt 0.890186 0.847885
vt 0.893539 0.847429
vt 0.894887 0.851384
vt 0.891210 0.875559
vt 0.896441 0.875776
vt 0.896350 0.881893
vt 0.890821 0.881664
vt 0.884006 0.874075
vt 0.889149 0.876011
vt 0.888372 0.882056
vt 0.882936 0.880010
vt 0.924276 0.921644
vt 0.929446 0.922041
vt 0.929536 0.928203
vt 0.924072 0.927783
vt 0.862270 0.893581
vt 0.857142 0.895602
vt 0.856030 0.889705
vt 0.861449 0.887569
vt 0.896253 0.888345
vt 0.890411 0.888104
vt 0.892990 0.843819
vt 0.895809 0.845423
vt 0.932230 0.891693
vt 0.933556 0.896242
vt 0.927025 0.891765
vt 0.930400 0.890227
vt 0.887552 0.888433
vt 0.881807 0.886271
vt 0.929632 0.934703
vt 0.923857 0.934259
vt 0.854857 0.883484
vt 0.860584 0.881226
vt 0.896142 0.895815
vt 0.889935 0.895559
vt 0.886603 0.895815
vt 0.880500 0.893519
vt 0.900017 0.872476
vt 0.903753 0.869803
vt 0.904861 0.874627
vt 0.901555 0.875039
vt 0.857214 0.837592
vt 0.855654 0.831011
vt 0.859079 0.832449
vt 0.860843 0.839089
vt 0.929742 0.942228
vt 0.923608 0.941757
vt 0.853499 0.876281
vt 0.859583 0.873883
vt 0.876999 0.858203
vt 0.878524 0.858168
vt 0.878524 0.861111
vt 0.876999 0.861146
vt 0.853835 0.920752
vt 0.857903 0.921744
vt 0.857111 0.928646
vt 0.853499 0.930060
vt 0.878524 0.860578
vt 0.878524 0.856933
vt 0.880500 0.857502
vt 0.880500 0.861146
vt 0.931532 0.900829
vt 0.927358 0.900208
vt 0.878379 0.865502
vt 0.878379 0.861564
vt 0.880500 0.861146
vt 0.880500 0.865085
vt 0.904861 0.847681
vt 0.904861 0.857177
vt 0.900559 0.855407
vt 0.900559 0.845911
vt 0.863114 0.900246
vt 0.858176 0.900633
vt 0.924444 0.916357
vt 0.929321 0.916915
vt 0.884995 0.869197
vt 0.889935 0.869505
vt 0.891598 0.869012
vt 0.896544 0.869031
vt 0.861563 0.906927
vt 0.857017 0.905818
vt 0.925216 0.912219
vt 0.929881 0.912913
vt 0.883816 0.864202
vt 0.888352 0.863026
vt 0.891312 0.863657
vt 0.896056 0.863513
vt 0.860294 0.912065
vt 0.855913 0.910996
vt 0.925959 0.908054
vt 0.930453 0.908723
vt 0.882666 0.859025
vt 0.887037 0.857892
vt 0.891080 0.859446
vt 0.895651 0.859307
vt 0.859081 0.916975
vt 0.854859 0.915946
vt 0.926668 0.904073
vt 0.931000 0.904718
vt 0.881567 0.854078
vt 0.885780 0.852986
vt 0.890858 0.855421
vt 0.895264 0.855288
vt 0.880500 0.849273
vt 0.884559 0.848221
vt 0.857477 0.932169
vt 0.854168 0.933465
vt 0.926069 0.888217
vt 0.929161 0.886808
vt 0.904826 0.860653
vt 0.901415 0.860920
vt 0.900692 0.857177
vt 0.904861 0.857177
vt 0.893880 0.840263
vt 0.896918 0.842040
vt 0.857810 0.935367
vt 0.854775 0.936555
vt 0.925201 0.884997
vt 0.928037 0.883705
vt 0.904793 0.863807
vt 0.901666 0.864053
vt 0.895139 0.837339
vt 0.897925 0.838968
vt 0.858123 0.938370
vt 0.855345 0.939457
vt 0.924386 0.881972
vt 0.926982 0.880790
vt 0.904763 0.866770
vt 0.901901 0.866995
vt 0.896321 0.834593
vt 0.898871 0.836084
vt 0.858421 0.941237
vt 0.855889 0.942228
vt 0.923608 0.879086
vt 0.925974 0.878008
vt 0.904734 0.869598
vt 0.902125 0.869803
vt 0.897450 0.831972
vt 0.899774 0.833331
vt 0.860215 0.842660
vt 0.856854 0.841274
vt 0.880215 0.881970
vt 0.877341 0.880895
vt 0.877154 0.875855
vt 0.880500 0.877821
vt 0.871824 0.841974
vt 0.874758 0.839034
vt 0.935004 0.890825
vt 0.936232 0.895037
vt 0.859646 0.845891
vt 0.856529 0.844604
vt 0.879957 0.885723
vt 0.877291 0.884725
vt 0.870793 0.838994
vt 0.873515 0.836266
vt 0.937513 0.890040
vt 0.938653 0.893948
vt 0.859114 0.848918
vt 0.856224 0.847725
vt 0.879714 0.889240
vt 0.877243 0.888315
vt 0.869826 0.836201
vt 0.872350 0.833672
vt 0.939864 0.889305
vt 0.940921 0.892927
vt 0.858607 0.851802
vt 0.855933 0.850699
vt 0.879484 0.892591
vt 0.877198 0.891735
vt 0.868905 0.833540
vt 0.871240 0.831201
vt 0.942105 0.888603
vt 0.943082 0.891954
vt 0.858118 0.854578
vt 0.855654 0.853561
vt 0.879262 0.895815
vt 0.877154 0.895027
vt 0.868019 0.830979
vt 0.870172 0.828823
vt 0.944261 0.887929
vt 0.945162 0.891018
vt 0.890182 0.845514
vt 0.893025 0.845127
vt 0.927900 0.860822
vt 0.925443 0.860938
vt 0.924182 0.857012
vt 0.927520 0.857167
vt 0.872517 0.851786
vt 0.870931 0.849585
vt 0.903442 0.879191
vt 0.900999 0.878803
vt 0.890179 0.843444
vt 0.892577 0.843118
vt 0.928231 0.864013
vt 0.926159 0.864110
vt 0.870656 0.853334
vt 0.869318 0.851478
vt 0.902574 0.882416
vt 0.900514 0.882088
vt 0.890149 0.841240
vt 0.892145 0.841032
vt 0.928559 0.867308
vt 0.926784 0.866548
vt 0.869175 0.854578
vt 0.868019 0.853073
vt 0.901820 0.885004
vt 0.900017 0.885556
vt 0.890095 0.838771
vt 0.892093 0.838640
vt 0.927980 0.869724
vt 0.926311 0.868186
vt 0.880500 0.867425
vt 0.878503 0.867302
vt 0.878501 0.865502
vt 0.880497 0.865703
vt 0.902223 0.886767
vt 0.900490 0.888101
vt 0.890055 0.836682
vt 0.892053 0.836551
vt 0.927447 0.871795
vt 0.925779 0.870257
vt 0.880500 0.869532
vt 0.878503 0.869409
vt 0.902657 0.888877
vt 0.900924 0.890211
vt 0.890015 0.834593
vt 0.892013 0.834462
vt 0.926915 0.873866
vt 0.925247 0.872328
vt 0.880499 0.871640
vt 0.878502 0.871517
vt 0.903091 0.890987
vt 0.901358 0.892321
vt 0.889975 0.832504
vt 0.891973 0.832373
vt 0.926383 0.875937
vt 0.924715 0.874399
vt 0.880499 0.873747
vt 0.878502 0.873624
vt 0.903525 0.893097
vt 0.901792 0.894431
vt 0.889935 0.830415
vt 0.891933 0.830284
vt 0.925851 0.878008
vt 0.924182 0.876470
vt 0.880498 0.875855
vt 0.878501 0.875732
vt 0.903959 0.895207
vt 0.902226 0.896541
vt 0.327124 0.820561
vt 0.335044 0.830798
vt 0.321678 0.834496
vt 0.321897 0.867163
vt 0.340093 0.852633
vt 0.325505 0.873320
vt 0.322723 0.890957
vt 0.337024 0.914482
vt 0.327845 0.913437
vt 0.258155 0.890485
vt 0.268309 0.857644
vt 0.270400 0.881682
vt 0.308139 0.795763
vt 0.302129 0.815360
vt 0.296809 0.800309
vt 0.330376 0.795763
vt 0.340093 0.810130
vt 0.310064 0.826060
vt 0.309954 0.839802
vt 0.293099 0.810550
vt 0.297255 0.825186
vt 0.290437 0.836784
vt 0.250920 0.898254
vt 0.243907 0.902091
vt 0.238479 0.882747
vt 0.228960 0.894253
vt 0.281688 0.860573
vt 0.283547 0.884709
vt 0.266019 0.828922
vt 0.284191 0.844698
vt 0.263482 0.857644
vt 0.337024 0.881432
vt 0.311235 0.858627
vt 0.321678 0.856378
vt 0.343168 0.919489
vt 0.343168 0.944605
vt 0.333448 0.931945
vt 0.274578 0.795763
vt 0.280933 0.813400
vt 0.290437 0.857013
vt 0.251449 0.930627
vt 0.278637 0.905824
vt 0.283547 0.921642
vt 0.276409 0.927889
vt 0.251449 0.885576
vt 0.321678 0.873320
vt 0.330728 0.877183
vt 0.334574 0.914482
vt 0.258155 0.855718
vt 0.321678 0.814913
vt 0.318919 0.831726
vt 0.290437 0.828571
vt 0.263710 0.913943
vt 0.345599 0.893090
vt 0.345599 0.910358
vt 0.337047 0.896402
vt 0.337024 0.914482
vt 0.264008 0.809620
vt 0.236447 0.910225
vn 0.1472 0.9770 -0.1544
vn 0.8410 -0.1795 0.5104
vn 0.8037 0.0303 0.5942
vn 0.5851 0.1481 -0.7973
vn -0.8080 0.0303 -0.5884
vn -0.5893 -0.0876 0.8031
vn 0.2810 0.2817 0.9174
vn -0.8940 0.2125 -0.3945
vn 0.9002 0.1372 -0.4132
vn 0.4915 -0.4640 -0.7370
vn 0.3210 0.9218 0.2174
vn -0.5430 -0.2441 0.8035
vn 0.1793 0.4878 -0.8543
vn -0.8320 -0.4180 -0.3648
vn -0.2962 0.8698 0.3945
vn 0.0698 -0.9930 -0.0951
vn -0.5908 -0.0878 0.8021
vn -0.8073 0.0528 -0.5878
vn 0.5805 0.1488 -0.8005
vn 0.8020 0.0405 0.5960
vn -0.6075 -0.0392 0.7934
vn -0.6882 -0.4642 -0.5576
vn 0.5942 0.0781 -0.8005
vn 0.6838 0.4734 0.5552
vn -0.6108 -0.0408 0.7907
vn -0.6953 -0.4509 -0.5597
vn 0.5937 0.0777 -0.8009
vn 0.6782 0.4879 0.5496
vn -0.5372 -0.4468 0.7154
vn -0.8142 0.0459 -0.5788
vn 0.5869 0.4633 -0.6640
vn 0.7194 0.0813 0.6898
vn 0.5059 0.5386 -0.6738
vn 0.7829 0.0459 0.6204
vn 0.1084 -0.8493 -0.5167
vn 0.9958 0.0091 0.0914
vn -0.1198 0.9134 0.3890
vn -0.9693 0.0227 -0.2449
vn 0.9860 0.0227 0.1653
vn -0.0917 0.8947 0.4371
vn 0.5619 -0.7863 0.2571
vn -0.4447 0.0675 0.8931
vn -0.2902 0.9405 -0.1767
vn 0.5860 0.0343 -0.8096
vn -0.3412 0.0515 0.9386
vn -0.4159 0.8893 -0.1903
vn 0.4871 0.0515 -0.8718
vn 0.5671 -0.7820 0.2586
vn -0.3474 0.0658 0.9354
vn -0.3853 0.9067 -0.1715
vn 0.4810 0.0598 -0.8747
vn 0.8246 -0.4046 0.3953
vn -0.4567 -0.0508 0.8882
vn -0.8421 0.3547 -0.4062
vn 0.4564 0.0502 -0.8884
vn 0.8310 -0.3842 0.4023
vn -0.4543 -0.0515 0.8893
vn -0.8310 0.3842 -0.4023
vn 0.4543 0.0515 -0.8893
vn 0.9488 0.2027 -0.2424
vn 0.7503 0.6589 -0.0541
vn 0.2940 -0.8225 0.4870
vn -0.4765 0.7366 -0.4799
vn -0.5002 -0.6918 -0.5208
vn 0.1489 0.0473 -0.9877
vn 0.2088 -0.9439 0.2559
vn -0.5705 -0.8022 -0.1762
vn -0.6243 -0.4955 0.6039
vn -0.8141 0.3740 0.4443
vn -0.8205 -0.1231 -0.5583
vn 0.0339 0.8920 0.4507
vn 0.4035 -0.3331 0.8522
vn 0.3151 -0.9444 0.0941
vn 0.7797 -0.5968 -0.1894
vn 0.7535 -0.6531 -0.0756
vn 0.4729 0.4570 -0.7534
vn 0.1930 0.9089 -0.3697
vn -0.0435 0.4775 0.8776
vn 0.2222 -0.1106 0.9687
vn -0.6463 -0.7562 -0.1024
vn -0.5798 -0.6676 0.4670
vn 0.7619 0.6121 -0.2116
vn 0.8312 -0.2909 0.4737
vn 0.8161 -0.5778 -0.0089
vn 0.5441 0.8041 0.2394
vn 0.7896 -0.4614 -0.4046
vn 0.8990 0.1201 -0.4212
vn 0.5370 -0.2889 0.7926
vn -0.4444 0.8422 0.3053
vn -0.7985 0.5977 -0.0718
vn -0.5754 0.2495 -0.7789
vn 0.2119 -0.6622 -0.7188
vn 0.3045 -0.5737 -0.7603
vn 0.1931 -0.9431 0.2706
vn -0.5704 -0.8127 0.1189
vn -0.9940 -0.0941 -0.0551
vn 0.1666 -0.9824 -0.0843
vn -0.5139 -0.8380 0.1834
vn 0.2075 0.9041 -0.3735
vn -0.1044 0.9364 0.3351
vn -0.9950 0.0789 -0.0609
vn -0.7212 0.4790 0.5005
usemtl Material.021
s off
f 71/1/1 72/2/1 55/3/1 56/4/1
f 52/5/2 89/6/2 90/7/2 49/8/2
f 36/9/3 33/10/3 29/11/3 32/12/3
f 35/13/4 36/14/4 32/15/4 31/16/4
f 34/17/5 35/18/5 31/19/5 30/20/5
f 33/21/6 34/22/6 30/23/6 29/24/6
f 32/12/3 29/11/3 25/25/3 28/26/3
f 90/7/7 56/27/7 53/28/7 49/8/7
f 72/29/8 69/30/8 54/31/8 55/32/8
f 31/16/4 32/15/4 28/33/4 27/34/4
f 30/20/5 31/19/5 27/35/5 26/36/5
f 29/24/6 30/23/6 26/37/6 25/38/6
f 28/26/3 25/25/3 1/39/3 4/40/3
f 27/34/4 28/33/4 4/41/4 3/42/4
f 52/43/9 70/44/9 71/45/9 89/46/9
f 70/47/10 52/48/10 51/49/10 69/50/10
f 26/36/5 27/35/5 3/51/5 2/52/5
f 25/38/6 26/37/6 2/53/6 1/54/6
f 24/55/11 23/56/11 22/57/11 21/58/11
f 50/59/12 49/60/12 53/61/12 54/62/12
f 16/63/13 15/64/13 14/65/13 13/66/13
f 69/30/14 51/67/14 50/68/14 54/31/14
f 12/69/15 11/70/15 10/71/15 9/72/15
f 1/73/16 2/74/16 3/75/16 4/76/16
f 5/77/17 6/78/17 34/22/17 33/21/17
f 6/79/18 7/80/18 35/18/18 34/17/18
f 7/81/19 8/82/19 36/14/19 35/13/19
f 8/83/20 5/84/20 33/10/20 36/9/20
f 37/85/21 38/86/21 6/78/21 5/77/21
f 38/87/22 39/88/22 7/80/22 6/79/22
f 39/89/23 40/90/23 8/82/23 7/81/23
f 40/91/24 37/92/24 5/84/24 8/83/24
f 41/93/25 42/94/25 38/86/25 37/85/25
f 42/95/26 43/96/26 39/88/26 38/87/26
f 43/97/27 44/98/27 40/90/27 39/89/27
f 44/99/28 41/100/28 37/92/28 40/91/28
f 45/101/25 46/102/25 42/94/25 41/93/25
f 46/103/26 47/104/26 43/96/26 42/95/26
f 47/105/27 48/106/27 44/98/27 43/97/27
f 48/107/28 45/108/28 41/100/28 44/99/28
f 49/60/25 50/59/25 46/102/25 45/101/25
f 50/68/26 51/67/26 47/104/26 46/103/26
f 51/109/27 52/110/27 48/106/27 47/105/27
f 52/5/28 49/8/28 45/108/28 48/107/28
f 57/111/29 58/112/29 54/62/29 53/61/29
f 58/113/30 59/114/30 55/32/30 54/31/30
f 59/115/31 60/116/31 56/117/31 55/118/31
f 60/119/32 57/120/32 53/28/32 56/27/32
f 61/121/29 62/122/29 58/112/29 57/111/29
f 62/123/30 63/124/30 59/114/30 58/113/30
f 63/125/33 64/126/33 60/116/33 59/115/33
f 64/127/34 61/128/34 57/120/34 60/119/34
f 65/129/29 66/130/29 62/122/29 61/121/29
f 66/131/30 67/132/30 63/124/30 62/123/30
f 67/133/33 68/134/33 64/126/33 63/125/33
f 68/135/34 65/136/34 61/128/34 64/127/34
f 9/137/29 10/138/29 66/130/29 65/129/29
f 10/139/30 11/140/30 67/132/30 66/131/30
f 11/141/33 12/142/33 68/134/33 67/133/33
f 12/143/34 9/144/34 65/136/34 68/135/34
f 73/145/35 74/146/35 70/47/35 69/50/35
f 74/147/36 75/148/36 71/149/36 70/150/36
f 75/151/37 76/152/37 72/2/37 71/1/37
f 76/153/38 73/154/38 69/30/38 72/29/38
f 77/155/35 78/156/35 74/146/35 73/145/35
f 78/157/39 79/158/39 75/148/39 74/147/39
f 79/159/40 80/160/40 76/152/40 75/151/40
f 80/161/38 77/162/38 73/154/38 76/153/38
f 81/163/35 82/164/35 78/156/35 77/155/35
f 82/165/39 83/166/39 79/158/39 78/157/39
f 83/167/40 84/168/40 80/160/40 79/159/40
f 84/169/38 81/170/38 77/162/38 80/161/38
f 85/171/35 86/172/35 82/164/35 81/163/35
f 86/173/39 87/174/39 83/166/39 82/165/39
f 87/175/40 88/176/40 84/168/40 83/167/40
f 88/177/38 85/178/38 81/170/38 84/169/38
f 13/179/35 14/180/35 86/172/35 85/171/35
f 14/181/39 15/182/39 87/174/39 86/173/39
f 15/183/40 16/184/40 88/176/40 87/175/40
f 16/185/38 13/186/38 85/178/38 88/177/38
f 91/187/41 92/188/41 90/7/41 89/6/41
f 92/189/42 93/190/42 56/191/42 90/192/42
f 93/193/43 94/194/43 71/1/43 56/4/43
f 94/195/44 91/196/44 89/46/44 71/45/44
f 95/197/41 96/198/41 92/188/41 91/187/41
f 96/199/45 97/200/45 93/190/45 92/189/45
f 97/201/46 98/202/46 94/194/46 93/193/46
f 98/203/47 95/204/47 91/196/47 94/195/47
f 17/205/48 18/206/48 96/198/48 95/197/48
f 18/207/49 19/208/49 97/200/49 96/199/49
f 19/209/50 20/210/50 98/202/50 97/201/50
f 20/211/51 17/212/51 95/204/51 98/203/51
f 99/213/52 100/214/52 18/206/52 17/205/52
f 100/215/53 101/216/53 19/208/53 18/207/53
f 101/217/54 102/218/54 20/219/54 19/220/54
f 102/221/55 99/222/55 17/212/55 20/211/55
f 103/223/56 104/224/56 100/214/56 99/213/56
f 104/225/57 105/226/57 101/216/57 100/215/57
f 105/227/58 106/228/58 102/218/58 101/217/58
f 106/229/59 103/230/59 99/222/59 102/221/59
f 107/231/56 108/232/56 104/224/56 103/223/56
f 108/233/57 109/234/57 105/226/57 104/225/57
f 109/235/58 110/236/58 106/228/58 105/227/58
f 110/237/59 107/238/59 103/230/59 106/229/59
f 111/239/56 112/240/56 108/232/56 107/231/56
f 112/241/57 113/242/57 109/234/57 108/233/57
f 113/243/58 114/244/58 110/236/58 109/235/58
f 114/245/59 111/246/59 107/238/59 110/237/59
f 21/247/56 22/248/56 112/240/56 111/239/56
f 22/249/57 23/250/57 113/242/57 112/241/57
f 23/251/58 24/252/58 114/244/58 113/243/58
f 24/253/59 21/254/59 111/246/59 114/245/59
usemtl Material.022
f 127/255/60 115/256/60 117/257/60
f 118/258/61 136/259/61 119/260/61
f 120/261/62 130/262/62 135/263/62
f 123/264/63 128/265/63 122/266/63
f 126/267/64 125/268/64 124/269/64
f 127/255/65 126/270/65 128/271/65
f 125/268/66 116/272/66 138/273/66
f 134/274/67 129/275/67 135/276/67
f 130/277/68 131/278/68 132/279/68
f 133/280/69 132/279/69 131/278/69
f 122/266/70 126/281/70 124/282/70
f 136/283/71 137/284/71 121/285/71
f 120/261/72 121/286/72 130/262/72
f 138/273/73 120/287/73 135/276/73
f 118/288/74 120/287/74 138/273/74
f 117/289/75 118/290/75 138/291/75
f 115/256/76 127/255/76 128/271/76
f 136/283/77 128/292/77 123/293/77
f 121/285/78 137/284/78 131/294/78
f 121/295/79 131/278/79 130/277/79
f 134/296/80 135/297/80 132/298/80
f 135/299/81 130/277/81 132/279/81
f 118/258/82 115/256/82 136/259/82
f 120/261/83 118/300/83 119/301/83
f 117/289/84 138/291/84 116/302/84
f 119/303/85 136/283/85 121/285/85
f 127/304/86 117/305/86 116/272/86
f 117/257/87 115/256/87 118/258/87
f 119/301/88 121/286/88 120/261/88
f 137/284/89 123/293/89 133/306/89
f 133/307/90 123/264/90 122/266/90
f 122/266/91 128/265/91 126/281/91
f 116/272/92 125/268/92 126/267/92
f 126/267/93 127/304/93 116/272/93
f 125/268/94 138/273/94 129/275/94
f 129/308/95 134/309/95 125/310/95
f 134/296/96 122/266/96 124/282/96
f 129/275/97 138/273/97 135/276/97
f 125/310/98 134/309/98 124/311/98
f 115/312/99 128/292/99 136/283/99
f 137/284/100 136/283/100 123/293/100
f 134/296/101 132/298/101 133/307/101 122/266/101
f 137/313/102 133/280/102 131/278/102
