# Blender v2.92.0 OBJ File: 'airShipStuff.blend'
# www.blender.org
mtllib Tree1.mtl
o Cube.001_Cube.003
v 0.572390 -1.074919 0.037674
v 0.036280 -1.074919 -0.572480
v -0.572390 -1.018303 -0.037674
v -0.036280 -1.018303 0.572480
v -1.224814 5.060434 -2.155329
v -0.919754 5.060434 -2.350878
v -0.803333 5.351574 -2.169260
v -1.108393 5.351574 -1.973711
v -1.459866 5.057054 1.467059
v -1.737595 5.057054 1.128544
v -1.529788 5.402705 0.958053
v -1.252059 5.402705 1.296567
v 1.878364 5.694436 -0.278892
v 1.794651 5.694436 -0.731114
v 1.409306 5.935128 -0.659781
v 1.493019 5.935128 -0.207560
v -0.399156 3.679543 -0.676457
v 0.079308 3.679543 -0.983162
v 0.274687 4.179561 -0.608634
v -0.203641 4.120150 -0.315828
v -0.592848 4.003487 -1.023386
v -0.155062 4.003487 -1.304015
v 0.012011 4.421295 -1.043379
v -0.425774 4.421295 -0.762750
v -0.765852 4.292832 -1.333262
v -0.364401 4.292832 -1.590600
v -0.211194 4.675964 -1.351595
v -0.612645 4.675964 -1.094257
v -0.926657 4.561775 -1.621287
v -0.558978 4.561775 -1.856977
v -0.418660 4.912675 -1.638078
v -0.786339 4.912675 -1.402388
v -1.078960 4.816498 -1.894084
v -0.743268 4.816498 -2.109269
v -0.615157 5.136872 -1.909414
v -0.950849 5.136872 -1.694229
v -0.096235 3.637038 0.447780
v -0.471538 3.637038 -0.009664
v 0.289844 4.163537 0.139958
v -0.402591 3.956061 0.676773
v -0.755972 3.956061 0.246048
v -0.491560 4.395866 0.029115
v -0.138178 4.395866 0.459839
v -0.684950 4.250096 0.887829
v -1.018128 4.250096 0.481730
v -0.768833 4.664756 0.277200
v -0.435655 4.664756 0.683299
v -0.952775 4.528996 1.088022
v -1.266789 4.528996 0.705281
v -1.031833 4.919805 0.512515
v -0.717819 4.919805 0.895255
v -1.210286 4.797154 1.280504
v -1.505874 4.797154 0.920223
v -1.284705 5.165031 0.738768
v -0.989117 5.165031 1.099050
v 0.890604 3.913454 -0.029196
v 0.782962 3.913454 -0.610683
v 1.159404 4.398114 -0.097146
v 1.058274 4.398114 -0.643456
v 0.592755 4.688885 -0.557282
v 0.693884 4.688885 -0.010972
v 1.409425 4.848916 -0.160349
v 1.314352 4.848916 -0.673939
v 0.876714 5.122272 -0.592926
v 0.971787 5.122272 -0.079336
v 1.647983 5.279047 -0.220654
v 1.558689 5.279047 -0.703025
v 1.147654 5.535787 -0.626936
v 1.236948 5.535787 -0.144566
v 0.592377 -0.273128 -0.000706
v 0.076913 -0.273128 -0.587363
v -0.508318 -0.218693 -0.073153
v 0.007147 -0.218693 0.513505
v 0.609454 0.411948 -0.033499
v 0.111630 0.411948 -0.600079
v -0.453572 0.464520 -0.103466
v 0.044252 0.464520 0.463114
v 0.625582 1.058939 -0.064469
v 0.144418 1.058939 -0.612089
v -0.401869 1.109752 -0.132095
v 0.079295 1.109752 0.415524
v 0.641123 1.682375 -0.094312
v 0.176012 1.682375 -0.623661
v -0.352049 1.731493 -0.159682
v 0.113062 1.731493 0.369667
v 0.656241 2.288862 -0.123343
v 0.206747 2.288862 -0.634918
v -0.303583 2.336331 -0.186518
v 0.145910 2.336331 0.325057
v 0.671031 2.882176 -0.151744
v 0.236815 2.882176 -0.645931
v -0.256170 2.928031 -0.212772
v 0.178046 2.928031 0.281416
v 2.304589 7.157467 -1.767137
v 2.709190 5.746522 -2.213076
v 1.449093 4.657035 -2.689805
v 1.959313 4.271414 -0.863537
v 0.623629 4.716453 0.513299
v 1.973123 7.237817 -0.665764
v 3.223361 6.136979 -1.076851
v 2.734393 4.553632 -1.370736
v 2.825743 5.759378 0.047915
v 0.173677 7.065097 1.196826
v 1.215654 6.222245 0.893477
v -0.828004 3.934685 1.582901
v -1.429402 5.966338 2.549622
v -1.218337 4.358297 2.521148
v -2.001115 3.638190 0.855645
v -0.844414 4.322429 -0.714797
v -3.172892 4.722467 0.464459
v -2.871108 6.340396 1.010734
v -3.267195 5.260201 1.497638
v -2.523365 4.804112 2.475256
v -2.342187 6.449631 1.962407
v -0.506039 7.721111 0.150386
v -0.982972 6.937283 -1.601761
v -1.865252 5.425539 -1.223697
v -1.593585 6.001548 -3.296362
v -1.176046 4.302883 -3.330519
v -0.437597 4.966718 -4.264293
v -0.642862 6.766792 -3.756634
v 0.517031 6.220926 -4.064354
v 0.624423 4.583810 -3.812971
v 1.070497 6.870680 -2.675068
v -0.263875 3.849787 -2.989091
vt 0.939361 0.901488
vt 0.942308 0.904025
vt 0.940211 0.906343
vt 0.936998 0.903576
vt 0.898281 0.880662
vt 0.902551 0.882935
vt 0.899092 0.884980
vt 0.832634 0.877841
vt 0.834381 0.874190
vt 0.838279 0.875742
vt 0.835967 0.880118
vt 0.926896 0.907725
vt 0.922631 0.907725
vt 0.922267 0.904746
vt 0.926928 0.904746
vt 0.829658 0.875807
vt 0.831259 0.872459
vt 0.901042 0.890098
vt 0.895916 0.891787
vt 0.894483 0.886521
vt 0.914006 0.839673
vt 0.918701 0.848760
vt 0.910350 0.844917
vt 0.913530 0.849916
vt 0.926867 0.910386
vt 0.922956 0.910386
vt 0.933160 0.912700
vt 0.934176 0.906654
vt 0.937658 0.909527
vt 0.855805 0.861400
vt 0.855219 0.868048
vt 0.851249 0.861692
vt 0.849824 0.868028
vt 0.901265 0.876954
vt 0.904741 0.879343
vt 0.855805 0.877317
vt 0.855805 0.873543
vt 0.859227 0.873614
vt 0.859227 0.877389
vt 0.919328 0.840296
vt 0.920582 0.849197
vt 0.890398 0.865348
vt 0.890398 0.861752
vt 0.893493 0.861786
vt 0.893493 0.865382
vt 0.842163 0.877277
vt 0.844443 0.885695
vt 0.839378 0.886330
vt 0.892761 0.865382
vt 0.892761 0.868293
vt 0.890398 0.868671
vt 0.890398 0.865760
vt 0.923776 0.857746
vt 0.930421 0.857745
vt 0.930421 0.864418
vt 0.923776 0.864418
vt 0.903509 0.873944
vt 0.906697 0.876134
vt 0.926841 0.912860
vt 0.923259 0.912860
vt 0.826891 0.873917
vt 0.828358 0.870851
vt 0.941558 0.899548
vt 0.944257 0.901872
vt 0.905596 0.871145
vt 0.908515 0.873151
vt 0.926816 0.915202
vt 0.923545 0.915202
vt 0.824270 0.872126
vt 0.825610 0.869327
vt 0.943639 0.897710
vt 0.946103 0.899832
vt 0.907572 0.868495
vt 0.910237 0.870326
vt 0.926792 0.917446
vt 0.923820 0.917446
vt 0.821761 0.870412
vt 0.822978 0.867868
vt 0.945632 0.895950
vt 0.947871 0.897878
vt 0.909464 0.865956
vt 0.911886 0.867621
vt 0.916725 0.908169
vt 0.912169 0.908062
vt 0.911886 0.904746
vt 0.916725 0.904860
vt 0.890398 0.865853
vt 0.885835 0.866020
vt 0.885213 0.861752
vt 0.890398 0.861763
vt 0.939792 0.912824
vt 0.936425 0.915923
vt 0.908871 0.850983
vt 0.906785 0.846915
vt 0.916725 0.911219
vt 0.912429 0.911118
vt 0.890398 0.869622
vt 0.886096 0.869780
vt 0.941950 0.915320
vt 0.938775 0.918241
vt 0.905467 0.852592
vt 0.903500 0.848756
vt 0.916725 0.914112
vt 0.912676 0.914017
vt 0.890398 0.873198
vt 0.886343 0.873347
vt 0.943996 0.917686
vt 0.941004 0.920440
vt 0.902237 0.854117
vt 0.900384 0.850502
vt 0.916725 0.916894
vt 0.912914 0.916804
vt 0.890398 0.876636
vt 0.886581 0.876776
vt 0.945964 0.919962
vt 0.943147 0.922554
vt 0.899132 0.855584
vt 0.897387 0.852181
vt 0.916725 0.919590
vt 0.913144 0.919505
vt 0.890398 0.879968
vt 0.886812 0.880099
vt 0.947871 0.922168
vt 0.945224 0.924603
vt 0.896123 0.857006
vt 0.894483 0.853808
vt 0.845281 0.877027
vt 0.843402 0.873009
vt 0.846333 0.872775
vt 0.840133 0.871204
vt 0.885213 0.880099
vt 0.890115 0.880701
vt 0.890032 0.885530
vt 0.886050 0.884816
vt 0.920082 0.853051
vt 0.916130 0.854774
vt 0.844556 0.869040
vt 0.847310 0.868819
vt 0.855805 0.861401
vt 0.859779 0.862045
vt 0.859779 0.866043
vt 0.856043 0.865438
vt 0.890061 0.889454
vt 0.886317 0.888783
vt 0.921367 0.857043
vt 0.917651 0.858662
vt 0.845656 0.865252
vt 0.848243 0.865045
vt 0.859778 0.869859
vt 0.856270 0.869290
vt 0.890089 0.893198
vt 0.886572 0.892568
vt 0.922592 0.860852
vt 0.919102 0.862373
vt 0.846719 0.861595
vt 0.849144 0.861401
vt 0.859778 0.873543
vt 0.856489 0.873010
vt 0.890115 0.896814
vt 0.886819 0.896223
vt 0.923776 0.864531
vt 0.920504 0.865956
vt 0.849144 0.917908
vt 0.842890 0.918691
vt 0.842179 0.912134
vt 0.848192 0.911381
vt 0.855805 0.900573
vt 0.849144 0.900549
vt 0.849282 0.893959
vt 0.855686 0.893983
vt 0.911886 0.920770
vt 0.905558 0.922856
vt 0.903604 0.916561
vt 0.909689 0.914555
vt 0.917205 0.807279
vt 0.923776 0.808048
vt 0.922874 0.814582
vt 0.916557 0.813843
vt 0.841570 0.906532
vt 0.847378 0.905804
vt 0.849400 0.888329
vt 0.855585 0.888352
vt 0.901935 0.911182
vt 0.907811 0.909245
vt 0.922104 0.820165
vt 0.916003 0.819451
vt 0.840996 0.901240
vt 0.846609 0.900537
vt 0.849511 0.883012
vt 0.855489 0.883034
vt 0.900359 0.906102
vt 0.906038 0.904230
vt 0.921377 0.825438
vt 0.915480 0.824747
vt 0.840443 0.896142
vt 0.845868 0.895462
vt 0.849618 0.877888
vt 0.855397 0.877910
vt 0.898840 0.901207
vt 0.904330 0.899398
vt 0.920676 0.830519
vt 0.914976 0.829851
vt 0.839904 0.891182
vt 0.845148 0.890525
vt 0.849723 0.872904
vt 0.855307 0.872925
vt 0.897362 0.896446
vt 0.902668 0.894697
vt 0.919995 0.835461
vt 0.914486 0.834816
vt 0.326087 0.885087
vt 0.325587 0.896230
vt 0.318435 0.888058
vt 0.270412 0.876159
vt 0.263352 0.873523
vt 0.267526 0.867593
vt 0.316046 0.881788
vt 0.278439 0.921633
vt 0.280325 0.915408
vt 0.288149 0.919190
vt 0.270756 0.914349
vt 0.276338 0.904359
vt 0.276092 0.884673
vt 0.282778 0.878568
vt 0.286285 0.884922
vt 0.296468 0.872671
vt 0.285189 0.868605
vt 0.293749 0.866622
vt 0.318900 0.868493
vt 0.321759 0.862343
vt 0.328237 0.865661
vt 0.290781 0.878568
vt 0.283386 0.877876
vt 0.278882 0.872695
vt 0.269816 0.851706
vt 0.263929 0.836853
vt 0.270412 0.839449
vt 0.270412 0.898382
vt 0.315791 0.905879
vt 0.326087 0.904215
vt 0.323934 0.911492
vt 0.254097 0.871165
vt 0.262818 0.878299
vt 0.245117 0.874283
vt 0.275697 0.844108
vt 0.284980 0.838063
vt 0.295191 0.843541
vt 0.336541 0.892743
vt 0.326432 0.898190
vt 0.326087 0.889663
vt 0.293448 0.905418
vt 0.293448 0.917101
vt 0.289369 0.911272
vt 0.326359 0.841140
vt 0.328242 0.855054
vt 0.320892 0.856008
vt 0.283593 0.856862
vt 0.319222 0.875500
vt 0.328237 0.873901
vt 0.285525 0.901728
vt 0.289369 0.889985
vt 0.289369 0.913223
vt 0.309795 0.889140
vt 0.276295 0.836853
vt 0.337936 0.900517
vt 0.331847 0.904757
vt 0.261944 0.851893
vt 0.336500 0.841981
vt 0.336500 0.862343
vt 0.251471 0.856885
vt 0.311811 0.898656
vt 0.296468 0.837966
vt 0.295742 0.855777
vt 0.330553 0.836853
vt 0.318900 0.843290
vt 0.257171 0.837997
vt 0.242112 0.866980
vt 0.240778 0.861113
vt 0.270133 0.920319
vt 0.261748 0.914261
vt 0.270133 0.908297
vt 0.337936 0.881788
vt 0.270412 0.846947
vt 0.317745 0.911492
vt 0.317745 0.920139
vt 0.313501 0.916633
vt 0.277431 0.859767
vn 0.3005 0.8307 0.4687
vn -0.8902 0.4506 -0.0679
vn 0.8463 0.0336 -0.5316
vn -0.3414 -0.7745 -0.5326
vn 0.8205 0.0281 -0.5710
vn -0.6862 -0.4069 0.6029
vn 0.4436 -0.0385 0.8954
vn 0.3603 0.2596 0.8960
vn -0.1091 0.9938 0.0235
vn -0.4898 -0.4199 -0.7641
vn -0.5973 -0.5004 -0.6268
vn -0.8776 0.0242 0.4788
vn 0.2098 0.8799 0.4264
vn -0.9102 -0.3430 0.2323
vn 0.5146 0.8521 -0.0953
vn 0.9051 -0.2348 0.3544
vn -0.6103 0.6139 0.5007
vn 0.6162 -0.3014 -0.7276
vn 0.2638 0.5101 -0.8187
vn -0.4336 0.5954 -0.6764
vn -0.0524 -0.9976 0.0460
vn -0.8614 0.0281 0.5071
vn -0.4955 -0.7676 0.4065
vn -0.7155 0.0168 -0.6984
vn 0.3120 0.8866 -0.3415
vn 0.6086 0.0210 0.7932
vn -0.6551 0.0213 -0.7553
vn 0.4531 0.8102 -0.3718
vn 0.6127 0.0213 0.7900
vn 0.8539 -0.4958 -0.1581
vn -0.0594 0.0541 -0.9968
vn -0.8138 0.5756 0.0802
vn 0.2525 0.0413 0.9667
vn -0.1654 0.0273 -0.9858
vn -0.8210 0.5504 0.1520
vn 0.1984 0.0273 0.9797
vn 0.7503 -0.0503 -0.6592
vn -0.6589 0.0194 -0.7520
vn -0.7482 0.0891 0.6574
vn 0.6609 0.0194 0.7502
vn 0.6251 -0.4414 -0.6437
vn 0.6809 0.7163 0.1527
vn 0.9149 -0.2197 -0.3385
vn 0.9208 -0.3245 0.2165
vn 0.5013 0.5932 0.6299
vn -0.0431 -0.0233 0.9988
vn -0.0197 -0.9143 0.4046
vn -0.7948 0.4664 0.3882
vn -0.7306 -0.6307 0.2616
vn 0.0031 0.7744 0.6326
vn 0.4844 0.3035 0.8205
vn 0.3515 -0.1195 -0.9285
vn 0.6336 -0.0767 -0.7699
vn 0.5775 0.6268 -0.5232
vn 0.4491 -0.8406 -0.3029
vn 0.6743 -0.5798 -0.4573
vn -0.7147 -0.1620 -0.6804
vn -0.0350 -0.8012 -0.5973
vn -0.4232 -0.6720 -0.6077
vn 0.3335 -0.9292 -0.1592
vn -0.3912 0.3128 0.8655
vn 0.6689 -0.5324 0.5187
vn 0.7045 -0.4212 0.5712
vn 0.3519 -0.3568 0.8654
vn 0.5690 -0.6443 0.5110
vn 0.7870 0.3794 -0.4865
vn 0.4369 -0.6410 0.6311
vn 0.4487 -0.8506 -0.2740
vn -0.1342 0.2548 -0.9576
vn -0.0071 -0.9794 0.2017
vn -0.0376 0.8355 0.5482
vn -0.7972 0.3407 -0.4984
vn -0.0757 0.9758 -0.2053
vn 0.4864 0.3871 -0.7833
vn 0.1816 -0.9507 -0.2515
vn 0.5941 0.5108 0.6213
vn -0.2967 -0.8178 0.4931
vn -0.0810 0.9179 -0.3886
vn 0.2923 0.8842 0.3644
vn 0.3763 -0.9132 -0.1568
vn -0.9442 0.2490 -0.2158
vn -0.6953 0.2825 0.6608
vn -0.4224 -0.6748 -0.6051
vn -0.8091 0.3178 -0.4943
vn -0.7012 -0.6663 0.2536
vn 0.5262 0.0540 0.8487
vn -0.4562 0.8767 0.1529
vn -0.5491 0.8084 -0.2122
vn -0.6653 0.7287 -0.1627
vn -0.8602 0.5092 0.0288
vn -0.9544 -0.2308 -0.1892
vn -0.0097 0.9967 -0.0804
vn -0.4634 -0.8837 0.0654
vn 0.6709 0.5984 0.4380
vn 0.1864 0.9824 -0.0156
vn 0.2603 0.8306 -0.4922
vn -0.0813 -0.6990 -0.7105
vn -0.5377 0.1715 -0.8255
vn -0.7529 -0.6505 0.1003
vn -0.0011 -0.9518 0.3066
usemtl Material.003
s off
f 27/1/1 28/2/1 24/3/1 23/4/1
f 20/5/2 17/6/2 38/7/2
f 22/8/3 23/9/3 19/10/3 18/11/3
f 21/12/4 22/13/4 18/14/4 17/15/4
f 26/16/5 27/17/5 23/9/5 22/8/5
f 92/18/6 93/19/6 37/20/6
f 93/21/7 56/22/7 37/23/7
f 56/22/8 39/24/8 37/23/8
f 25/25/4 26/26/4 22/13/4 21/12/4
f 39/27/9 19/28/9 20/29/9
f 18/30/10 91/31/10 17/32/10
f 91/31/11 92/33/11 17/32/11
f 24/34/12 21/35/12 17/6/12 20/5/12
f 23/4/13 24/3/13 20/29/13 19/28/13
f 92/18/14 37/20/14 38/7/14 17/6/14
f 13/36/15 14/37/15 15/38/15 16/39/15
f 90/40/16 57/41/16 56/22/16 93/21/16
f 12/42/17 11/43/17 10/44/17 9/45/17
f 57/46/18 90/47/18 91/48/18 18/11/18
f 57/46/19 18/11/19 19/10/19
f 8/49/20 7/50/20 6/51/20 5/52/20
f 4/53/21 3/54/21 2/55/21 1/56/21
f 28/57/22 25/58/22 21/35/22 24/34/22
f 29/59/4 30/60/4 26/26/4 25/25/4
f 30/61/5 31/62/5 27/17/5 26/16/5
f 31/63/1 32/64/1 28/2/1 27/1/1
f 32/65/22 29/66/22 25/58/22 28/57/22
f 33/67/4 34/68/4 30/60/4 29/59/4
f 34/69/5 35/70/5 31/62/5 30/61/5
f 35/71/1 36/72/1 32/64/1 31/63/1
f 36/73/22 33/74/22 29/66/22 32/65/22
f 5/75/4 6/76/4 34/68/4 33/67/4
f 6/77/5 7/78/5 35/70/5 34/69/5
f 7/79/1 8/80/1 36/72/1 35/71/1
f 8/81/22 5/82/22 33/74/22 36/73/22
f 40/83/23 41/84/23 38/85/23 37/86/23
f 41/87/24 42/88/24 20/89/24 38/90/24
f 42/91/25 43/92/25 39/27/25 20/29/25
f 43/93/26 40/94/26 37/23/26 39/24/26
f 44/95/23 45/96/23 41/84/23 40/83/23
f 45/97/27 46/98/27 42/88/27 41/87/27
f 46/99/28 47/100/28 43/92/28 42/91/28
f 47/101/29 44/102/29 40/94/29 43/93/29
f 48/103/23 49/104/23 45/96/23 44/95/23
f 49/105/27 50/106/27 46/98/27 45/97/27
f 50/107/28 51/108/28 47/100/28 46/99/28
f 51/109/29 48/110/29 44/102/29 47/101/29
f 52/111/23 53/112/23 49/104/23 48/103/23
f 53/113/27 54/114/27 50/106/27 49/105/27
f 54/115/28 55/116/28 51/108/28 50/107/28
f 55/117/29 52/118/29 48/110/29 51/109/29
f 9/119/23 10/120/23 53/112/23 52/111/23
f 10/121/27 11/122/27 54/114/27 53/113/27
f 11/123/28 12/124/28 55/116/28 54/115/28
f 12/125/29 9/126/29 52/118/29 55/117/29
f 56/127/30 57/46/30 59/128/30 58/129/30
f 57/46/31 19/10/31 60/130/31 59/128/31
f 19/131/32 39/132/32 61/133/32 60/134/32
f 39/24/33 56/22/33 58/135/33 61/136/33
f 58/129/30 59/128/30 63/137/30 62/138/30
f 59/139/34 60/140/34 64/141/34 63/142/34
f 60/134/35 61/133/35 65/143/35 64/144/35
f 61/136/36 58/135/36 62/145/36 65/146/36
f 62/138/30 63/137/30 67/147/30 66/148/30
f 63/142/34 64/141/34 68/149/34 67/150/34
f 64/144/35 65/143/35 69/151/35 68/152/35
f 65/146/36 62/145/36 66/153/36 69/154/36
f 66/148/30 67/147/30 14/155/30 13/156/30
f 67/150/34 68/149/34 15/157/34 14/158/34
f 68/152/35 69/151/35 16/159/35 15/160/35
f 69/154/36 66/153/36 13/161/36 16/162/36
f 1/163/37 2/164/37 71/165/37 70/166/37
f 2/167/38 3/168/38 72/169/38 71/170/38
f 3/171/39 4/172/39 73/173/39 72/174/39
f 4/175/40 1/176/40 70/177/40 73/178/40
f 70/166/37 71/165/37 75/179/37 74/180/37
f 71/170/38 72/169/38 76/181/38 75/182/38
f 72/174/39 73/173/39 77/183/39 76/184/39
f 73/178/40 70/177/40 74/185/40 77/186/40
f 74/180/37 75/179/37 79/187/37 78/188/37
f 75/182/38 76/181/38 80/189/38 79/190/38
f 76/184/39 77/183/39 81/191/39 80/192/39
f 77/186/40 74/185/40 78/193/40 81/194/40
f 78/188/37 79/187/37 83/195/37 82/196/37
f 79/190/38 80/189/38 84/197/38 83/198/38
f 80/192/39 81/191/39 85/199/39 84/200/39
f 81/194/40 78/193/40 82/201/40 85/202/40
f 82/196/37 83/195/37 87/203/37 86/204/37
f 83/198/38 84/197/38 88/205/38 87/206/38
f 84/200/39 85/199/39 89/207/39 88/208/39
f 85/202/40 82/201/40 86/209/40 89/210/40
f 86/204/37 87/203/37 91/48/37 90/47/37
f 87/206/38 88/205/38 92/33/38 91/31/38
f 88/208/39 89/207/39 93/19/39 92/18/39
f 89/210/40 86/209/40 90/40/40 93/21/40
usemtl Material.004
f 101/211/41 96/212/41 95/213/41
f 100/214/42 94/215/42 99/216/42
f 95/213/43 100/217/43 101/211/43
f 100/218/44 102/219/44 101/220/44
f 102/219/45 99/221/45 104/222/45
f 106/223/46 113/224/46 107/225/46
f 107/226/47 108/227/47 105/228/47
f 114/229/48 111/230/48 112/231/48
f 113/232/49 112/233/49 110/234/49
f 103/235/50 114/236/50 106/237/50
f 104/222/51 103/238/51 106/223/51
f 122/239/52 123/240/52 120/241/52
f 95/213/53 123/240/53 122/239/53
f 124/242/54 95/243/54 122/244/54
f 125/245/55 96/246/55 97/247/55
f 123/240/56 95/213/56 96/212/56
f 118/248/57 120/249/57 119/250/57
f 123/251/58 119/252/58 120/253/58
f 110/254/59 117/255/59 109/256/59
f 109/257/60 105/228/60 108/227/60
f 106/258/61 114/229/61 113/259/61
f 98/260/62 107/225/62 105/261/62
f 104/222/63 107/225/63 98/260/63
f 102/219/64 104/222/64 98/260/64
f 101/220/65 102/219/65 97/262/65
f 94/263/66 100/217/66 95/213/66
f 102/219/67 98/260/67 97/262/67
f 123/264/68 96/246/68 125/245/68
f 121/265/69 122/266/69 120/249/69
f 97/247/70 109/257/70 125/245/70
f 103/235/71 115/267/71 114/236/71
f 111/268/72 116/269/72 117/255/72
f 94/215/73 124/242/73 116/270/73
f 124/271/74 94/263/74 95/213/74
f 101/272/75 97/247/75 96/246/75
f 99/221/76 103/238/76 104/222/76
f 107/226/77 113/232/77 108/227/77
f 116/270/78 115/267/78 94/215/78
f 99/216/79 115/267/79 103/235/79
f 109/257/80 98/273/80 105/228/80
f 110/254/81 112/274/81 111/268/81
f 114/229/82 112/231/82 113/259/82
f 110/254/83 109/256/83 108/275/83
f 110/254/84 111/268/84 117/255/84
f 110/234/85 108/227/85 113/232/85
f 104/222/86 106/223/86 107/225/86
f 115/267/87 111/276/87 114/236/87
f 116/270/88 111/276/88 115/267/88
f 121/277/89 118/278/89 116/270/89
f 118/279/90 117/280/90 116/281/90
f 117/282/91 118/248/91 119/250/91
f 116/270/92 124/242/92 121/277/92
f 109/257/93 119/283/93 125/245/93
f 102/219/94 100/218/94 99/221/94
f 99/216/95 94/215/95 115/267/95
f 124/242/96 122/244/96 121/277/96
f 119/284/97 123/285/97 125/286/97
f 121/265/98 120/249/98 118/248/98
f 119/283/99 109/257/99 117/287/99
f 109/257/100 97/247/100 98/273/100
