# Blender v2.92.0 OBJ File: 'airShipStuff.blend'
# www.blender.org
mtllib airShipInterior.mtl
o Cylinder.008_Cylinder.005
v -4.551537 -2.599349 14.383239
v -5.854907 2.079754 14.383239
v -2.252433 -0.539645 -17.903343
v -3.393009 2.079754 -17.903343
v -4.939846 -2.264851 -9.802890
v -5.892163 2.079754 -9.802890
v -1.938519 2.079754 -21.167753
v -1.473983 0.825542 -21.167753
v -0.716698 2.079754 -22.465178
v -0.638435 1.664802 -22.763060
v -2.046191 -2.636776 16.795341
v -6.271601 2.079754 -9.802890
v -3.841538 2.079754 -17.903343
v -6.243082 2.079754 14.625642
v -2.370636 2.079754 -21.167753
v -0.783102 2.079754 -22.763060
v -3.311455 2.079754 16.795341
v 4.551537 -2.599349 14.383239
v 5.854907 2.079754 14.383239
v 2.252434 -0.539645 -17.903343
v 3.393010 2.079754 -17.903343
v 4.939846 -2.264851 -9.802890
v 5.892163 2.079754 -9.802890
v 1.938520 2.079754 -21.167753
v 1.473983 0.825542 -21.167753
v 0.716698 2.079754 -22.465178
v 0.638436 1.664802 -22.763060
v 2.046192 -2.636776 16.795341
v 0.000000 -1.412162 -17.903343
v 0.000000 2.079754 -17.903343
v 0.000000 -2.559890 14.383239
v 0.000000 2.079754 14.383239
v 0.000000 2.079754 -9.802890
v 0.000000 -2.544619 -9.802890
v 0.000000 -0.046976 -21.167753
v 0.000000 1.341511 -22.763060
v 0.000000 2.079754 -22.763060
v 0.000000 2.079754 17.226372
v 0.000000 -2.646089 17.226372
v 6.271601 2.079754 -9.802890
v 3.841538 2.079754 -17.903343
v 6.243082 2.079754 14.625642
v 2.370636 2.079754 -21.167753
v 0.783103 2.079754 -22.763060
v 3.311456 2.079754 16.795341
v 0.000000 2.079754 -22.465178
v 0.000000 2.079754 -21.171566
vt 0.074631 0.349098
vt 0.071694 0.360684
vt 0.072089 0.378919
vt 0.075273 0.379138
vt 0.082517 0.346321
vt 0.083372 0.342943
vt 0.083419 0.337815
vt 0.082310 0.337874
vt 0.100288 0.394556
vt 0.100288 0.384627
vt 0.095104 0.384627
vt 0.095071 0.394556
vt 0.100288 0.398510
vt 0.097283 0.398510
vt 0.083306 0.378709
vt 0.112495 0.359999
vt 0.114874 0.347827
vt 0.110500 0.337815
vt 0.110500 0.353952
vt 0.074374 0.338398
vt 0.110500 0.363500
vt 0.111805 0.369548
vt 0.112599 0.378241
vt 0.113902 0.378154
vt 0.110500 0.373166
vt 0.111065 0.375407
vt 0.111193 0.378283
vt 0.110500 0.378283
vt 0.100598 0.383529
vt 0.102410 0.378682
vt 0.103530 0.343240
vt 0.100598 0.343239
vt 0.106126 0.343244
vt 0.104628 0.375723
vt 0.098571 0.400103
vt 0.099653 0.400736
vt 0.100288 0.400736
vt 0.100288 0.400105
vt 0.086080 0.372856
vt 0.086895 0.343108
vt 0.083869 0.343517
vt 0.083419 0.361641
vt 0.093953 0.375653
vt 0.093964 0.384368
vt 0.095071 0.384429
vt 0.094937 0.379198
vt 0.105505 0.394556
vt 0.105472 0.384627
vt 0.103292 0.398510
vt 0.094911 0.343558
vt 0.108506 0.359999
vt 0.106126 0.347827
vt 0.086046 0.383826
vt 0.109195 0.369548
vt 0.107099 0.378154
vt 0.108401 0.378241
vt 0.109935 0.375407
vt 0.109807 0.378283
vt 0.097666 0.343240
vt 0.098787 0.378682
vt 0.095071 0.343244
vt 0.096568 0.375723
vt 0.102004 0.400103
vt 0.100922 0.400736
vn 0.8751 0.3670 0.3155
vn -0.0063 0.9996 0.0265
vn 0.0000 -1.0000 0.0000
vn 0.9481 0.3178 -0.0059
vn 0.1551 0.9682 0.1965
vn 0.0253 0.9997 0.0070
vn 0.3897 0.8322 0.3945
vn 0.7806 0.5009 0.3737
vn 0.3966 0.7007 0.5931
vn 0.6678 0.4166 0.6168
vn -0.0000 0.0000 1.0000
vn 0.1589 0.0213 -0.9871
vn 0.6299 0.2175 -0.7456
vn -0.8751 0.3670 0.3155
vn 0.0063 0.9996 0.0265
vn -0.9481 0.3178 -0.0059
vn -0.1551 0.9682 0.1965
vn -0.0253 0.9997 0.0070
vn -0.3897 0.8322 0.3945
vn -0.7806 0.5009 0.3737
vn -0.3966 0.7007 0.5931
vn -0.6678 0.4166 0.6168
vn -0.1589 0.0213 -0.9871
vn -0.6299 0.2175 -0.7456
usemtl Material.061
s off
f 5/1/1 3/2/1 13/3/1 12/4/1
f 1/5/2 11/6/2 39/7/2 31/8/2
f 33/9/3 32/10/3 2/11/3 6/12/3
f 30/13/3 33/9/3 6/12/3 4/14/3
f 1/5/4 5/1/4 12/4/4 14/15/4
f 3/16/5 5/17/5 34/18/5 29/19/5
f 5/1/6 1/5/6 31/8/6 34/20/6
f 29/19/7 35/21/7 8/22/7 3/16/7
f 3/16/8 8/22/8 15/23/8 13/24/8
f 35/21/9 36/25/9 10/26/9 8/22/9
f 8/22/10 10/26/10 16/27/10 15/23/10
f 10/26/11 36/25/11 37/28/11 16/27/11
f 39/29/12 11/30/12 17/31/12 38/32/12
f 14/33/13 17/31/13 11/30/13 1/34/13
f 7/35/3 9/36/3 46/37/3 47/38/3
f 30/13/3 4/14/3 7/35/3 47/38/3
f 22/39/14 40/40/14 41/41/14 20/42/14
f 18/43/15 31/44/15 39/45/15 28/46/15
f 33/9/3 23/47/3 19/48/3 32/10/3
f 30/13/3 21/49/3 23/47/3 33/9/3
f 18/43/16 42/50/16 40/40/16 22/39/16
f 20/51/17 29/19/17 34/18/17 22/52/17
f 22/39/18 34/53/18 31/44/18 18/43/18
f 29/19/19 20/51/19 25/54/19 35/21/19
f 20/51/20 41/55/20 43/56/20 25/54/20
f 35/21/21 25/54/21 27/57/21 36/25/21
f 25/54/22 43/56/22 44/58/22 27/57/22
f 27/57/11 44/58/11 37/28/11 36/25/11
f 39/29/23 38/32/23 45/59/23 28/60/23
f 42/61/24 18/62/24 28/60/24 45/59/24
f 24/63/3 47/38/3 46/37/3 26/64/3
f 30/13/3 47/38/3 24/63/3 21/49/3
f 32/10/3 19/48/3 42/61/3 45/59/3
f 32/10/3 17/31/3 14/33/3 2/11/3
f 17/31/3 32/10/3 38/32/3
f 45/59/3 38/32/3 32/10/3
f 12/4/3 6/12/3 2/11/3 14/33/3
f 40/40/3 42/61/3 19/48/3 23/47/3
f 13/3/3 4/14/3 6/12/3 12/4/3
f 41/41/3 40/40/3 23/47/3 21/49/3
f 43/56/3 41/41/3 21/49/3 24/63/3
f 15/23/3 7/35/3 4/14/3 13/3/3
f 43/56/3 24/63/3 26/64/3 44/58/3
f 15/23/3 16/27/3 9/36/3 7/35/3
f 37/28/3 46/37/3 9/36/3 16/27/3
f 37/28/3 44/58/3 26/64/3 46/37/3
