# Blender v2.92.0 OBJ File: 'airShipStuff.blend'
# www.blender.org
mtllib Display.mtl
o Cube_Cube.012
v -1.246858 0.421122 -3.241160
v -1.246858 0.742549 -3.457294
v -1.330458 0.373381 -3.625967
v -1.330458 0.790290 -3.625967
v -0.761839 0.421122 -3.241160
v -0.761839 0.742549 -3.457294
v -0.678239 0.373381 -3.625967
v -0.678239 0.790290 -3.625967
v -1.330458 0.373381 -3.209057
v -1.330458 0.790290 -3.489396
v -0.678239 0.790290 -3.489396
v -0.678239 0.373381 -3.209057
v -1.246858 0.421122 -3.274327
v -1.246858 0.742549 -3.490461
v -0.761839 0.742549 -3.490461
v -0.761839 0.421122 -3.274327
vt 0.934791 0.583820
vt 0.989363 0.620515
vt 0.989363 0.638391
vt 0.934791 0.638391
vt 0.934791 0.583820
vt 0.934791 0.638391
vt 0.880220 0.638391
vt 0.880220 0.583820
vt 0.880220 0.659556
vt 0.880220 0.714127
vt 0.862344 0.714127
vt 0.825649 0.659556
vt 0.832644 0.591350
vt 0.873225 0.591350
vt 0.873225 0.593773
vt 0.832644 0.593773
vt 0.880220 0.638391
vt 0.934791 0.638391
vt 0.934791 0.692962
vt 0.880220 0.692962
vt 0.880220 0.659556
vt 0.825649 0.659556
vt 0.825649 0.649581
vt 0.880220 0.649581
vt 0.832644 0.642050
vt 0.825649 0.583820
vt 0.873225 0.642050
vt 0.880220 0.583820
vt 0.692112 0.072087
vt 0.692112 0.122787
vt 0.651530 0.122787
vt 0.651530 0.072087
vt 0.934791 0.689091
vt 0.934791 0.638391
vt 0.938394 0.640814
vt 0.938394 0.691514
vt 0.941997 0.678973
vt 0.941997 0.638391
vt 0.946338 0.638391
vt 0.946338 0.678973
vt 0.938394 0.691514
vt 0.938394 0.640814
vt 0.941997 0.638391
vt 0.941997 0.689091
vn -1.0000 -0.0000 0.0000
vn 0.0000 0.0000 -1.0000
vn 1.0000 0.0000 0.0000
vn 0.0000 1.0000 0.0000
vn 0.0000 -1.0000 0.0000
vn 0.0000 0.5580 0.8298
usemtl Material.013
s off
f 9/1/1 10/2/1 4/3/1 3/4/1
f 3/5/2 4/6/2 8/7/2 7/8/2
f 7/9/3 8/10/3 11/11/3 12/12/3
f 1/13/4 5/14/4 16/15/4 13/16/4
f 3/17/5 7/18/5 12/19/5 9/20/5
f 8/21/4 4/22/4 10/23/4 11/24/4
f 1/13/6 2/25/6 10/23/6 9/26/6
f 6/27/6 5/14/6 12/28/6 11/24/6
f 5/14/6 1/13/6 9/26/6 12/28/6
f 2/25/6 6/27/6 11/24/6 10/23/6
f 16/29/6 15/30/6 14/31/6 13/32/6
f 2/33/3 1/34/3 13/35/3 14/36/3
f 6/37/5 2/38/5 14/39/5 15/40/5
f 5/41/1 6/42/1 15/43/1 16/44/1
