# Blender v2.92.0 OBJ File: 'airShipStuff.blend'
# www.blender.org
mtllib LeverBottom.mtl
o LeverBottom_Cube.010
v -0.133585 -0.016181 0.247451
v -0.133585 0.018278 0.247451
v -0.133585 -0.016181 -0.247451
v -0.133585 0.018278 -0.247451
v 0.133585 -0.016181 0.247451
v 0.133585 0.018278 0.247451
v 0.133585 -0.016181 -0.247451
v 0.133585 0.018278 -0.247451
v 0.080151 -0.016181 -0.247451
v 0.026717 -0.016181 -0.247451
v -0.026717 -0.016181 -0.247451
v -0.080151 -0.016181 -0.247451
v -0.080151 0.018278 -0.247451
v -0.026717 0.018278 -0.247451
v 0.026717 0.018278 -0.247451
v 0.080151 0.018278 -0.247451
v -0.080151 -0.016181 0.247451
v -0.026717 -0.016181 0.247451
v 0.026717 -0.016181 0.247451
v 0.080151 -0.016181 0.247451
v 0.080151 0.018278 0.247451
v 0.026717 0.018278 0.247451
v -0.026717 0.018278 0.247451
v -0.080151 0.018278 0.247451
v -0.133585 -0.016181 -0.224759
v -0.133585 -0.016181 0.224759
v -0.133585 0.018278 0.224759
v -0.133585 0.018278 -0.224759
v 0.133585 -0.016181 0.224759
v 0.133585 -0.016181 -0.224759
v 0.133585 0.018278 -0.224759
v 0.133585 0.018278 0.224759
v 0.080151 0.018278 -0.224759
v 0.080151 0.018278 0.224759
v 0.026717 0.018278 -0.224759
v 0.026717 0.018278 0.224759
v -0.026717 0.018278 -0.224759
v -0.026717 0.018278 0.224759
v -0.080151 0.018278 -0.224759
v -0.080151 0.018278 0.224759
v -0.080151 -0.016181 -0.224759
v -0.080151 -0.016181 0.224759
v -0.026717 -0.016181 -0.224759
v -0.026717 -0.016181 0.224759
v 0.026717 -0.016181 -0.224759
v 0.026717 -0.016181 0.224759
v 0.080151 -0.016181 -0.224759
v 0.080151 -0.016181 0.224759
v 0.080151 -0.011627 -0.224759
v 0.080151 -0.011627 0.224759
v 0.026717 -0.011627 -0.224759
v 0.026717 -0.011627 0.224759
v -0.026717 -0.011627 -0.224759
v -0.026717 -0.011627 0.224759
v -0.080151 -0.011627 -0.224759
v -0.080151 -0.011627 0.224759
vt 0.920143 0.163782
vt 0.923829 0.163782
vt 0.923829 0.168787
vt 0.920143 0.168787
vt 0.943997 0.065352
vt 0.940311 0.065352
vt 0.940311 0.059636
vt 0.943997 0.059636
vt 0.923829 0.163782
vt 0.927515 0.163782
vt 0.927515 0.168787
vt 0.923829 0.168787
vt 0.943997 0.093930
vt 0.940311 0.093930
vt 0.940311 0.088215
vt 0.943997 0.088215
vt 0.902996 0.163782
vt 0.908712 0.163782
vt 0.908712 0.168787
vt 0.902996 0.168787
vt 0.874417 0.163782
vt 0.880133 0.163782
vt 0.880133 0.168787
vt 0.874417 0.168787
vt 0.851555 0.163782
vt 0.857270 0.163782
vt 0.857270 0.168787
vt 0.851555 0.168787
vt 0.862986 0.163782
vt 0.862986 0.168787
vt 0.868702 0.163782
vt 0.868702 0.168787
vt 0.880133 0.163782
vt 0.885849 0.163782
vt 0.885849 0.168787
vt 0.880133 0.168787
vt 0.891565 0.163782
vt 0.891565 0.168787
vt 0.897280 0.163782
vt 0.897280 0.168787
vt 0.943997 0.116793
vt 0.940311 0.116793
vt 0.940311 0.111077
vt 0.943997 0.111077
vt 0.940311 0.105362
vt 0.943997 0.105362
vt 0.940311 0.099646
vt 0.943997 0.099646
vt 0.943997 0.088215
vt 0.940311 0.088215
vt 0.940311 0.082499
vt 0.943997 0.082499
vt 0.940311 0.076783
vt 0.943997 0.076783
vt 0.940311 0.071067
vt 0.943997 0.071067
vt 0.897280 0.059636
vt 0.902996 0.059636
vt 0.902996 0.064641
vt 0.897280 0.064641
vt 0.891565 0.059636
vt 0.891565 0.064641
vt 0.885849 0.059636
vt 0.885849 0.064641
vt 0.880133 0.059636
vt 0.880133 0.064641
vt 0.868702 0.059636
vt 0.874417 0.059636
vt 0.874417 0.064641
vt 0.868702 0.064641
vt 0.940311 0.122509
vt 0.940311 0.116793
vt 0.943510 0.116793
vt 0.943510 0.122509
vt 0.862986 0.059636
vt 0.862986 0.064641
vt 0.857270 0.059636
vt 0.857270 0.064641
vt 0.940311 0.128225
vt 0.940311 0.122509
vt 0.943510 0.122509
vt 0.943510 0.128225
vt 0.851555 0.059636
vt 0.851555 0.064641
vt 0.880133 0.059636
vt 0.880133 0.064641
vt 0.908712 0.059636
vt 0.908712 0.064641
vt 0.923829 0.059636
vt 0.927515 0.059636
vt 0.927515 0.064641
vt 0.923829 0.064641
vt 0.920143 0.059636
vt 0.923829 0.059636
vt 0.923829 0.064641
vt 0.920143 0.064641
vt 0.914428 0.059636
vt 0.920143 0.059636
vt 0.920143 0.158777
vt 0.914428 0.158777
vt 0.908712 0.059636
vt 0.914428 0.059636
vt 0.914428 0.158777
vt 0.908712 0.158777
vt 0.937112 0.059636
vt 0.937112 0.158777
vt 0.933913 0.158777
vt 0.933913 0.059636
vt 0.933913 0.059636
vt 0.933913 0.158777
vt 0.930714 0.158777
vt 0.930714 0.059636
vt 0.940311 0.139656
vt 0.940311 0.133940
vt 0.943510 0.133940
vt 0.943510 0.139656
vt 0.940311 0.059636
vt 0.940311 0.158777
vt 0.937112 0.158777
vt 0.937112 0.059636
vt 0.930714 0.059636
vt 0.930714 0.158777
vt 0.927515 0.158777
vt 0.927515 0.059636
vt 0.940311 0.133940
vt 0.940311 0.128225
vt 0.943510 0.128225
vt 0.943510 0.133940
vn -1.0000 0.0000 0.0000
vn 0.0000 0.0000 -1.0000
vn 1.0000 0.0000 0.0000
vn 0.0000 0.0000 1.0000
vn 0.0000 -1.0000 -0.0000
vn 0.0000 1.0000 0.0000
usemtl Material.012
s off
f 25/1/1 28/2/1 4/3/1 3/4/1
f 9/5/2 16/6/2 8/7/2 7/8/2
f 29/9/3 32/10/3 6/11/3 5/12/3
f 17/13/4 24/14/4 2/15/4 1/16/4
f 48/17/5 29/18/5 5/19/5 20/20/5
f 40/21/6 27/22/6 2/23/6 24/24/6
f 32/25/6 34/26/6 21/27/6 6/28/6
f 34/26/6 36/29/6 22/30/6 21/27/6
f 36/29/6 38/31/6 23/32/6 22/30/6
f 38/31/6 40/21/6 24/24/6 23/32/6
f 26/33/5 42/34/5 17/35/5 1/36/5
f 42/34/5 44/37/5 18/38/5 17/35/5
f 44/37/5 46/39/5 19/40/5 18/38/5
f 46/39/5 48/17/5 20/20/5 19/40/5
f 5/41/4 6/42/4 21/43/4 20/44/4
f 20/44/4 21/43/4 22/45/4 19/46/4
f 19/46/4 22/45/4 23/47/4 18/48/4
f 18/48/4 23/47/4 24/14/4 17/13/4
f 3/49/2 4/50/2 13/51/2 12/52/2
f 12/52/2 13/51/2 14/53/2 11/54/2
f 11/54/2 14/53/2 15/55/2 10/56/2
f 10/56/2 15/55/2 16/6/2 9/5/2
f 10/57/5 9/58/5 47/59/5 45/60/5
f 45/60/5 47/59/5 48/17/5 46/39/5
f 11/61/5 10/57/5 45/60/5 43/62/5
f 43/62/5 45/60/5 46/39/5 44/37/5
f 12/63/5 11/61/5 43/62/5 41/64/5
f 41/64/5 43/62/5 44/37/5 42/34/5
f 3/65/5 12/63/5 41/64/5 25/66/5
f 25/66/5 41/64/5 42/34/5 26/33/5
f 14/67/6 13/68/6 39/69/6 37/70/6
f 36/71/2 34/72/2 50/73/2 52/74/2
f 15/75/6 14/67/6 37/70/6 35/76/6
f 35/76/6 37/70/6 38/31/6 36/29/6
f 16/77/6 15/75/6 35/76/6 33/78/6
f 37/79/4 39/80/4 55/81/4 53/82/4
f 8/83/6 16/77/6 33/78/6 31/84/6
f 31/84/6 33/78/6 34/26/6 32/25/6
f 13/68/6 4/85/6 28/86/6 39/69/6
f 39/69/6 28/86/6 27/22/6 40/21/6
f 9/58/5 7/87/5 30/88/5 47/59/5
f 47/59/5 30/88/5 29/18/5 48/17/5
f 7/89/3 8/90/3 31/91/3 30/92/3
f 30/92/3 31/91/3 32/10/3 29/9/3
f 1/93/1 2/94/1 27/95/1 26/96/1
f 26/96/1 27/95/1 28/2/1 25/1/1
f 53/97/6 55/98/6 56/99/6 54/100/6
f 49/101/6 51/102/6 52/103/6 50/104/6
f 39/105/3 40/106/3 56/107/3 55/108/3
f 38/109/1 37/110/1 53/111/1 54/112/1
f 40/113/2 38/114/2 54/115/2 56/116/2
f 35/117/3 36/118/3 52/119/3 51/120/3
f 34/121/1 33/122/1 49/123/1 50/124/1
f 33/125/4 35/126/4 51/127/4 49/128/4
