# Blender v2.92.0 OBJ File: 'airShipStuff.blend'
# www.blender.org
mtllib redLight.mtl
o Cylinder.003_Cylinder.016
v 22.719097 6.408797 15.341081
v 22.846251 6.408797 15.341081
v 22.719097 6.223111 15.417994
v 22.846251 6.223111 15.417994
v 22.719097 6.146198 15.603681
v 22.846251 6.146198 15.603681
v 22.719097 6.223111 15.789367
v 22.846251 6.223111 15.789367
v 22.719097 6.408797 15.866280
v 22.846251 6.408797 15.866280
v 22.719097 6.594483 15.789367
v 22.846251 6.594483 15.789367
v 22.719097 6.671397 15.603681
v 22.846251 6.671397 15.603681
v 22.719097 6.594483 15.417994
v 22.846251 6.594483 15.417994
v 22.604658 6.408797 15.582720
v 22.703556 6.408797 15.341081
v 22.629194 6.408797 15.461901
v 22.667339 6.408797 15.373454
v 22.703556 6.223111 15.417994
v 22.604658 6.393976 15.588859
v 22.667339 6.246003 15.440886
v 22.629194 6.308544 15.503427
v 22.703556 6.146198 15.603681
v 22.604658 6.387837 15.603681
v 22.667339 6.178572 15.603681
v 22.629194 6.267017 15.603681
v 22.703556 6.223111 15.789367
v 22.604658 6.393976 15.618502
v 22.667339 6.246003 15.766475
v 22.629194 6.308544 15.703935
v 22.703556 6.408797 15.866280
v 22.604658 6.408797 15.624640
v 22.667339 6.408797 15.833907
v 22.629194 6.408797 15.745461
v 22.703556 6.594483 15.789367
v 22.604658 6.423618 15.618502
v 22.667339 6.571591 15.766475
v 22.629194 6.509051 15.703935
v 22.703556 6.671397 15.603681
v 22.604658 6.429758 15.603681
v 22.667339 6.639023 15.603681
v 22.629194 6.550577 15.603681
v 22.703556 6.594483 15.417994
v 22.604658 6.423618 15.588859
v 22.667339 6.571591 15.440886
v 22.629194 6.509051 15.503427
vt 0.287294 0.120737
vt 0.287294 0.103833
vt 0.293856 0.103833
vt 0.293856 0.120737
vt 0.298495 0.104609
vt 0.298495 0.121513
vt 0.314336 0.121513
vt 0.314336 0.104609
vt 0.318976 0.103833
vt 0.318976 0.120737
vt 0.325537 0.103833
vt 0.325537 0.120737
vt 0.314336 0.119490
vt 0.314336 0.136394
vt 0.309696 0.137170
vt 0.309696 0.120266
vt 0.303135 0.137170
vt 0.303135 0.120266
vt 0.282654 0.141810
vt 0.287294 0.137170
vt 0.293856 0.137170
vt 0.298495 0.141810
vt 0.298495 0.148371
vt 0.293856 0.153011
vt 0.287294 0.153011
vt 0.282654 0.148371
vt 0.298495 0.136394
vt 0.298495 0.119490
vt 0.282654 0.121513
vt 0.282654 0.104609
vt 0.325537 0.122803
vt 0.318976 0.122803
vt 0.287294 0.122803
vt 0.282654 0.123579
vt 0.298495 0.117423
vt 0.303135 0.118200
vt 0.309696 0.118200
vt 0.314336 0.117423
vt 0.314336 0.123579
vt 0.298495 0.123579
vt 0.293856 0.122803
vt 0.302139 0.141184
vt 0.302510 0.140814
vt 0.303033 0.140814
vt 0.303404 0.141184
vt 0.303404 0.141708
vt 0.303033 0.142079
vt 0.302510 0.142079
vt 0.302139 0.141708
vt 0.293451 0.127781
vt 0.287699 0.127781
vt 0.292346 0.133299
vt 0.288804 0.133299
vt 0.290837 0.137170
vt 0.290313 0.137170
vt 0.297519 0.128462
vt 0.294851 0.133718
vt 0.301000 0.137170
vt 0.304543 0.137170
vt 0.319380 0.127781
vt 0.315312 0.128462
vt 0.320485 0.133299
vt 0.317980 0.133718
vt 0.307048 0.139675
vt 0.325133 0.127781
vt 0.324028 0.133299
vt 0.322518 0.137170
vt 0.321995 0.137170
vt 0.309292 0.113222
vt 0.313360 0.112541
vt 0.308187 0.107704
vt 0.310692 0.107285
vt 0.307048 0.143218
vt 0.304543 0.145723
vt 0.303539 0.113222
vt 0.304644 0.107704
vt 0.306154 0.103833
vt 0.306677 0.103833
vt 0.299472 0.112541
vt 0.302139 0.107285
vt 0.301000 0.145723
vt 0.298495 0.143218
vt 0.283631 0.128462
vt 0.286299 0.133718
vt 0.298495 0.139675
vn 0.0000 -0.3827 -0.9239
vn 0.0000 -0.9239 -0.3827
vn 0.0000 -0.9239 0.3827
vn 0.0000 -0.3827 0.9239
vn 0.0000 0.3827 0.9239
vn 0.0000 0.9239 0.3827
vn 1.0000 0.0000 0.0000
vn 0.0000 0.9239 -0.3827
vn 0.0000 0.3827 -0.9239
vn -1.0000 -0.0000 0.0000
vn -0.6368 -0.2951 -0.7124
vn -0.9061 -0.1619 -0.3908
vn -0.9767 -0.0821 -0.1983
vn -0.6368 -0.7123 -0.2951
vn -0.9061 -0.3908 -0.1619
vn -0.9767 -0.1984 -0.0822
vn -0.6368 -0.7123 0.2951
vn -0.9061 -0.3908 0.1619
vn -0.9767 -0.1983 0.0822
vn -0.6368 -0.2951 0.7124
vn -0.9061 -0.1619 0.3908
vn -0.9767 -0.0821 0.1983
vn -0.6368 0.2951 0.7124
vn -0.9061 0.1619 0.3908
vn -0.9767 0.0822 0.1984
vn -0.6368 0.7123 0.2951
vn -0.9061 0.3908 0.1619
vn -0.9767 0.1984 0.0822
vn -0.6368 0.7123 -0.2951
vn -0.9061 0.3908 -0.1619
vn -0.9767 0.1984 -0.0822
vn -0.6368 0.2951 -0.7124
vn -0.9061 0.1619 -0.3908
vn -0.9767 0.0821 -0.1983
usemtl Material.080
s off
f 1/1/1 2/2/1 4/3/1 3/4/1
f 3/4/2 4/3/2 6/5/2 5/6/2
f 5/7/3 6/8/3 8/9/3 7/10/3
f 7/10/4 8/9/4 10/11/4 9/12/4
f 9/13/5 10/14/5 12/15/5 11/16/5
f 11/16/6 12/15/6 14/17/6 13/18/6
f 4/19/7 2/20/7 16/21/7 14/22/7 12/23/7 10/24/7 8/25/7 6/26/7
f 13/18/8 14/17/8 16/27/8 15/28/8
f 15/29/9 16/30/9 2/2/9 1/1/9
f 7/10/4 9/12/4 33/31/4 29/32/4
f 15/29/9 1/1/9 18/33/9 45/34/9
f 13/18/8 15/28/8 45/35/8 41/36/8
f 9/13/5 11/16/5 37/37/5 33/38/5
f 5/7/3 7/10/3 29/32/3 25/39/3
f 11/16/6 13/18/6 41/36/6 37/37/6
f 3/4/2 5/6/2 25/40/2 21/41/2
f 17/42/10 22/43/10 26/44/10 30/45/10 34/46/10 38/47/10 42/48/10 46/49/10
f 18/33/11 21/41/11 23/50/11 20/51/11
f 20/51/12 23/50/12 24/52/12 19/53/12
f 19/53/13 24/52/13 22/54/13 17/55/13
f 21/41/14 25/40/14 27/56/14 23/50/14
f 23/50/15 27/56/15 28/57/15 24/52/15
f 24/58/16 28/59/16 26/44/16 22/43/16
f 25/39/17 29/32/17 31/60/17 27/61/17
f 27/61/18 31/60/18 32/62/18 28/63/18
f 28/59/19 32/64/19 30/45/19 26/44/19
f 29/32/20 33/31/20 35/65/20 31/60/20
f 31/60/21 35/65/21 36/66/21 32/62/21
f 32/62/22 36/66/22 34/67/22 30/68/22
f 33/38/23 37/37/23 39/69/23 35/70/23
f 35/70/24 39/69/24 40/71/24 36/72/24
f 36/73/25 40/74/25 38/47/25 34/46/25
f 37/37/26 41/36/26 43/75/26 39/69/26
f 39/69/27 43/75/27 44/76/27 40/71/27
f 40/71/28 44/76/28 42/77/28 38/78/28
f 41/36/29 45/35/29 47/79/29 43/75/29
f 43/75/30 47/79/30 48/80/30 44/76/30
f 44/81/31 48/82/31 46/49/31 42/48/31
f 45/34/32 18/33/32 20/51/32 47/83/32
f 47/83/33 20/51/33 19/53/33 48/84/33
f 48/82/34 19/85/34 17/42/34 46/49/34
f 1/1/1 3/4/1 21/41/1 18/33/1
