# Blender v2.92.0 OBJ File: 'airShipStuff.blend'
# www.blender.org
mtllib windmillBlades.mtl
o Cylinder.007_Cylinder.013
v 0.276005 -0.000000 -0.897521
v 0.601781 -0.000000 -0.897521
v 0.601781 0.634643 -0.634643
v 0.276005 0.634643 -0.634643
v 0.127460 0.017078 -1.757241
v 0.750325 0.017078 -1.757241
v 0.750325 1.230481 -1.254633
v 0.127460 1.230481 -1.254633
v 0.127460 3.143972 -9.306231
v 0.750325 3.143972 -9.306231
v 0.750325 4.357375 -8.803622
v 0.127460 4.357375 -8.803622
v 0.250871 3.631074 -9.802197
v 0.626915 3.631074 -9.802197
v 0.626915 4.363644 -9.498757
v 0.250871 4.363644 -9.498757
v 0.276005 0.829201 0.343467
v 0.601781 0.829201 0.343467
v 0.601781 0.343466 0.829202
v 0.276005 0.343466 0.829202
v 0.127460 1.616943 0.688245
v 0.750325 1.616943 0.688246
v 0.750325 0.688245 1.616944
v 0.127460 0.688245 1.616944
v 0.127461 7.394690 6.465992
v 0.750326 7.394690 6.465992
v 0.750326 6.465992 7.394691
v 0.127460 6.465992 7.394691
v 0.250871 7.666499 7.105814
v 0.626915 7.666499 7.105814
v 0.626915 7.105814 7.666500
v 0.250871 7.105814 7.666500
v 0.276005 -0.829201 -0.343466
v 0.601781 -0.829201 -0.343466
v 0.601781 -0.829201 0.343467
v 0.276005 -0.829201 0.343467
v 0.127460 -1.630014 -0.656688
v 0.750325 -1.630014 -0.656688
v 0.750325 -1.630014 0.656690
v 0.127460 -1.630014 0.656690
v 0.127459 -9.800982 -0.656687
v 0.750324 -9.800982 -0.656687
v 0.750324 -9.800982 0.656690
v 0.127459 -9.800982 0.656690
v 0.250869 -10.445601 -0.396462
v 0.626913 -10.445601 -0.396462
v 0.626913 -10.445602 0.396466
v 0.250869 -10.445602 0.396466
v -0.005341 -0.829201 -0.343466
v 0.883100 -0.829202 -0.343466
v -0.005341 -0.829201 0.343467
v 0.883100 -0.829201 0.343467
v -0.005341 -0.343466 0.829202
v 0.883100 -0.343466 0.829202
v -0.005341 0.343467 0.829202
v 0.883100 0.343467 0.829202
v -0.005341 0.829202 0.343467
v 0.883100 0.829201 0.343467
v -0.005341 0.829201 -0.343466
v 0.883100 0.829201 -0.343466
v -0.005341 0.343466 -0.829201
v 0.883100 0.343466 -0.829201
v -0.005341 -0.343466 -0.829201
v 0.883100 -0.343467 -0.829201
v 0.275991 -0.829201 -0.343466
v 0.601767 -0.829201 -0.343466
v 0.601767 -0.343467 -0.829201
v 0.275991 -0.343466 -0.829201
vt 0.725161 0.641934
vt 0.725161 0.640334
vt 0.726694 0.640334
vt 0.726694 0.641934
vt 0.723716 0.619799
vt 0.726776 0.619799
vt 0.726776 0.638832
vt 0.723716 0.638832
vt 0.731940 0.640297
vt 0.730406 0.640297
vt 0.729707 0.638472
vt 0.732639 0.638472
vt 0.724446 0.617933
vt 0.726046 0.617933
vt 0.727475 0.617933
vt 0.729008 0.617933
vt 0.729707 0.619758
vt 0.726776 0.619758
vt 0.721387 0.617933
vt 0.722987 0.617933
vt 0.723716 0.619799
vt 0.720657 0.619799
vt 0.720657 0.638832
vt 0.723716 0.638832
vt 0.723110 0.640334
vt 0.721263 0.640334
vt 0.729707 0.638765
vt 0.726776 0.638765
vt 0.729707 0.619465
vt 0.732639 0.619465
vt 0.714737 0.643265
vt 0.716507 0.643265
vt 0.716507 0.645113
vt 0.714737 0.645113
vt 0.730288 0.617933
vt 0.732058 0.617933
vt 0.726170 0.640334
vt 0.724323 0.640334
vt 0.729126 0.640297
vt 0.727357 0.640297
vt 0.725161 0.641934
vt 0.726669 0.641934
vt 0.726669 0.643467
vt 0.725161 0.643467
vt 0.717598 0.638469
vt 0.714538 0.638469
vt 0.714538 0.619435
vt 0.717598 0.619435
vt 0.740734 0.637521
vt 0.739201 0.637521
vt 0.738502 0.635518
vt 0.741433 0.635518
vt 0.716868 0.640334
vt 0.715268 0.640334
vt 0.737803 0.638582
vt 0.736269 0.638582
vt 0.735570 0.637137
vt 0.738502 0.637137
vt 0.718327 0.617933
vt 0.719927 0.617933
vt 0.720657 0.619799
vt 0.717598 0.619799
vt 0.717598 0.638832
vt 0.720657 0.638832
vt 0.720051 0.640334
vt 0.718204 0.640334
vt 0.735570 0.619553
vt 0.738502 0.619553
vt 0.738502 0.617933
vt 0.741433 0.617933
vt 0.714737 0.642685
vt 0.714737 0.640915
vt 0.716404 0.640915
vt 0.716404 0.642685
vt 0.717598 0.640334
vt 0.717598 0.643265
vt 0.715144 0.617933
vt 0.716991 0.617933
vt 0.736151 0.617933
vt 0.737921 0.617933
vt 0.734147 0.638582
vt 0.734147 0.640115
vt 0.732639 0.640115
vt 0.732639 0.638582
vt 0.714538 0.619799
vt 0.714538 0.638832
vt 0.711479 0.638832
vt 0.711479 0.619799
vt 0.743666 0.617933
vt 0.744365 0.619936
vt 0.741433 0.619936
vt 0.742132 0.617933
vt 0.713808 0.617933
vt 0.712208 0.617933
vt 0.733338 0.638582
vt 0.732639 0.637137
vt 0.735570 0.637137
vt 0.734871 0.638582
vt 0.709149 0.640334
vt 0.708419 0.638469
vt 0.711479 0.638469
vt 0.710749 0.640334
vt 0.708419 0.619435
vt 0.709026 0.617933
vt 0.710873 0.617933
vt 0.711479 0.619435
vt 0.732639 0.619553
vt 0.735570 0.619553
vt 0.744365 0.637521
vt 0.741433 0.637521
vt 0.723411 0.642685
vt 0.721744 0.642685
vt 0.721744 0.640915
vt 0.723411 0.640915
vt 0.720550 0.640334
vt 0.720550 0.643265
vt 0.713932 0.640334
vt 0.712085 0.640334
vt 0.733220 0.617933
vt 0.734989 0.617933
vt 0.725161 0.640334
vt 0.725161 0.644515
vt 0.723716 0.644515
vt 0.723716 0.640334
vt 0.714435 0.640334
vt 0.714435 0.644515
vt 0.712957 0.644515
vt 0.712957 0.640334
vt 0.711479 0.644515
vt 0.711479 0.640334
vt 0.720550 0.640334
vt 0.720550 0.644515
vt 0.719106 0.644515
vt 0.719106 0.640334
vt 0.717598 0.644515
vt 0.717598 0.640334
vt 0.711376 0.640334
vt 0.711376 0.644515
vt 0.709898 0.644515
vt 0.709898 0.640334
vt 0.733371 0.644160
vt 0.731770 0.644160
vt 0.730639 0.643028
vt 0.730639 0.641428
vt 0.731770 0.640297
vt 0.733371 0.640297
vt 0.734502 0.641428
vt 0.734502 0.643028
vt 0.708419 0.644515
vt 0.708419 0.640334
vt 0.720550 0.644774
vt 0.720550 0.643265
vt 0.721874 0.643265
vt 0.721874 0.644774
vt 0.727907 0.640297
vt 0.729507 0.640297
vt 0.730639 0.641428
vt 0.730639 0.643028
vt 0.729507 0.644160
vt 0.727907 0.644160
vt 0.726776 0.643028
vt 0.726776 0.641428
vt 0.730639 0.640297
vt 0.730639 0.640297
vt 0.730639 0.640297
vt 0.730639 0.640297
vt 0.732639 0.635933
vt 0.732639 0.640115
vt 0.732639 0.638791
vt 0.732639 0.637258
vt 0.721874 0.644774
vt 0.721874 0.643265
vt 0.723198 0.643265
vt 0.723198 0.644774
vn 0.0000 -0.3827 0.9239
vn 1.0000 -0.0000 -0.0000
vn 0.0000 -0.9998 -0.0199
vn 0.9832 -0.0698 0.1685
vn 0.0000 0.7210 0.6929
vn -0.9832 -0.0698 0.1685
vn -0.9822 0.0720 -0.1737
vn 0.0000 0.9239 0.3827
vn -1.0000 0.0000 0.0000
vn 0.0000 -0.9239 -0.3827
vn 0.0000 0.3827 -0.9239
vn 0.0000 -0.7135 -0.7007
vn 0.9822 0.0720 -0.1737
vn 0.0000 1.0000 0.0090
vn 0.0000 -0.7071 -0.7071
vn 0.0000 0.4010 -0.9161
vn 0.9832 -0.1290 -0.1290
vn -0.0000 -0.9161 0.4010
vn -0.9832 -0.1290 -0.1290
vn -0.9822 0.1330 0.1330
vn 0.0000 -0.7071 0.7071
vn 0.0000 0.7071 -0.7071
vn 0.0000 0.7071 0.7071
vn 0.0000 0.9204 -0.3910
vn 0.9822 0.1330 0.1330
vn 0.0000 -0.3910 0.9204
vn 0.0000 1.0000 -0.0000
vn 0.0000 0.3643 -0.9313
vn 0.9832 0.1824 0.0000
vn 0.0000 0.3643 0.9313
vn -0.9832 0.1824 -0.0000
vn -0.9822 -0.1880 -0.0000
vn 0.0000 0.0000 1.0000
vn 0.0000 -0.0000 -1.0000
vn 0.0000 -1.0000 -0.0000
vn 0.0000 -0.3743 -0.9273
vn 0.9822 -0.1880 -0.0000
vn 0.0000 -0.3743 0.9273
vn -0.0000 0.2905 0.9569
usemtl Material.075
s off
f 4/1/1 1/2/1 2/3/1 3/4/1
f 7/5/2 6/6/2 10/7/2 11/8/2
f 2/9/3 1/10/3 5/11/3 6/12/3
f 3/13/4 2/14/4 6/6/4 7/5/4
f 4/15/5 3/16/5 7/17/5 8/18/5
f 1/19/6 4/20/6 8/21/6 5/22/6
f 9/23/7 12/24/7 16/25/7 13/26/7
f 8/18/8 7/17/8 11/27/8 12/28/8
f 5/22/9 8/21/9 12/24/9 9/23/9
f 6/12/10 5/11/10 9/29/10 10/30/10
f 16/31/11 15/32/11 14/33/11 13/34/11
f 10/30/12 9/29/12 13/35/12 14/36/12
f 11/8/13 10/7/13 14/37/13 15/38/13
f 12/28/14 11/27/14 15/39/14 16/40/14
f 20/41/15 17/42/15 18/43/15 19/44/15
f 23/45/2 22/46/2 26/47/2 27/48/2
f 18/49/16 17/50/16 21/51/16 22/52/16
f 19/53/17 18/54/17 22/46/17 23/45/17
f 20/55/18 19/56/18 23/57/18 24/58/18
f 17/59/19 20/60/19 24/61/19 21/62/19
f 25/63/20 28/64/20 32/65/20 29/66/20
f 24/58/21 23/57/21 27/67/21 28/68/21
f 21/62/9 24/61/9 28/64/9 25/63/9
f 22/52/22 21/51/22 25/69/22 26/70/22
f 32/71/23 31/72/23 30/73/23 29/74/23
f 26/75/24 25/76/24 29/74/24 30/73/24
f 27/48/25 26/47/25 30/77/25 31/78/25
f 28/68/26 27/67/26 31/79/26 32/80/26
f 36/81/27 35/82/27 34/83/27 33/84/27
f 39/85/2 43/86/2 42/87/2 38/88/2
f 34/89/28 38/90/28 37/91/28 33/92/28
f 35/93/29 39/85/29 38/88/29 34/94/29
f 36/95/30 40/96/30 39/97/30 35/98/30
f 33/99/31 37/100/31 40/101/31 36/102/31
f 41/103/32 45/104/32 48/105/32 44/106/32
f 40/96/33 44/107/33 43/108/33 39/97/33
f 37/100/9 41/103/9 44/106/9 40/101/9
f 38/90/34 42/109/34 41/110/34 37/91/34
f 48/111/35 45/112/35 46/113/35 47/114/35
f 42/115/36 46/113/36 45/112/36 41/116/36
f 43/86/37 47/117/37 46/118/37 42/87/37
f 44/107/38 48/119/38 47/120/38 43/108/38
f 49/121/35 50/122/35 52/123/35 51/124/35
f 51/125/21 52/126/21 54/127/21 53/128/21
f 53/128/33 54/127/33 56/129/33 55/130/33
f 55/131/23 56/132/23 58/133/23 57/134/23
f 57/134/27 58/133/27 60/135/27 59/136/27
f 59/137/22 60/138/22 62/139/22 61/140/22
f 52/141/2 50/142/2 64/143/2 62/144/2 60/145/2 58/146/2 56/147/2 54/148/2
f 61/140/34 62/139/34 64/149/34 63/150/34
f 64/151/15 50/152/15 66/153/15 67/154/15
f 49/155/9 51/156/9 53/157/9 55/158/9 57/159/9 59/160/9 61/161/9 63/162/9
f 63/163/33 64/164/33 67/165/33 68/166/33
f 50/167/39 49/168/39 65/169/39 66/170/39
f 49/171/15 63/172/15 68/173/15 65/174/15
