# Blender v2.92.0 OBJ File: 'airShipStuff.blend'
# www.blender.org
mtllib windmill.mtl
o Cylinder.004_Cylinder.010
v -2.842880 -0.000000 -1.000000
v -0.842880 -0.000000 -1.000000
v -2.842880 -0.707107 -0.707107
v -0.842880 -0.707107 -0.707107
v -2.842880 -1.000000 0.000000
v -0.842880 -1.000000 0.000000
v -2.842880 -0.707107 0.707107
v -0.842880 -0.707107 0.707107
v -2.842880 -0.000000 1.000000
v -0.842880 0.000000 1.000000
v -2.842880 0.707107 0.707107
v -0.842880 0.707107 0.707107
v -2.842880 1.000000 -0.000000
v -0.842880 1.000000 -0.000000
v -2.842880 0.707107 -0.707107
v -0.842880 0.707107 -0.707107
v -0.842880 -0.463227 -0.463227
v -0.842880 -0.000000 -0.655102
v -0.842880 0.463227 -0.463227
v -0.842880 0.655102 -0.000000
v -0.842880 0.463227 0.463227
v -0.842880 -0.000000 0.655102
v -0.842880 -0.463227 0.463227
v -0.842880 -0.655102 0.000000
v -0.000019 -0.463227 -0.463227
v -0.000019 -0.000000 -0.655102
v -0.000019 -0.655102 0.000000
v -0.000019 0.463227 -0.463227
v -0.000019 0.655102 -0.000000
v -0.000019 0.463227 0.463227
v -0.000019 0.000000 0.655102
v -0.000019 -0.463227 0.463227
v -1.842863 -24.480595 -1.203907
v -1.842863 -22.072781 -1.203907
v -0.991572 -24.480595 -0.851291
v -0.991572 -22.072781 -0.851291
v -0.638956 -24.480595 0.000000
v -0.638956 -22.072781 0.000000
v -0.991572 -24.480595 0.851291
v -0.991572 -22.072781 0.851291
v -1.842863 -24.480595 1.203907
v -1.842863 -22.072781 1.203907
v -2.694154 -24.480595 0.851291
v -2.694154 -22.072781 0.851291
v -3.046770 -24.480595 -0.000000
v -3.046770 -22.072781 -0.000000
v -2.694154 -24.480595 -0.851291
v -2.694154 -22.072781 -0.851291
v -1.214972 -20.431875 -0.627891
v -1.842863 -20.431875 -0.887972
v -0.954891 -20.431875 0.000000
v -1.214972 -20.431875 0.627891
v -1.842863 -20.431875 0.887972
v -2.470755 -20.431875 0.627891
v -2.730835 -20.431875 -0.000000
v -2.470755 -20.431875 -0.627891
v -1.214972 -0.000000 -0.627891
v -1.842863 -0.000000 -0.887972
v -0.954891 -0.000000 0.000000
v -1.214972 -0.000000 0.627891
v -1.842863 -0.000000 0.887972
v -2.470755 -0.000000 0.627891
v -2.730835 -0.000000 -0.000000
v -2.470755 -0.000000 -0.627891
vt 0.690700 0.595093
vt 0.690700 0.588019
vt 0.693210 0.588214
vt 0.693210 0.595288
vt 0.688134 0.595288
vt 0.688134 0.602472
vt 0.685595 0.602472
vt 0.685595 0.595288
vt 0.683055 0.602472
vt 0.683055 0.595288
vt 0.688132 0.588214
vt 0.688132 0.595288
vt 0.685622 0.595093
vt 0.685622 0.588019
vt 0.683055 0.595264
vt 0.683055 0.588190
vt 0.693214 0.595288
vt 0.693214 0.602472
vt 0.690674 0.602472
vt 0.690674 0.595288
vt 0.694154 0.571762
vt 0.694026 0.573406
vt 0.691045 0.573406
vt 0.691173 0.571762
vt 0.688134 0.602472
vt 0.688134 0.595288
vt 0.688132 0.588190
vt 0.687742 0.581381
vt 0.689683 0.583322
vt 0.689683 0.586071
vt 0.687742 0.588016
vt 0.684996 0.588019
vt 0.683055 0.586077
vt 0.683055 0.583329
vt 0.684996 0.581383
vt 0.687747 0.581380
vt 0.684998 0.581381
vt 0.685472 0.580236
vt 0.687273 0.580236
vt 0.683055 0.579437
vt 0.684199 0.578963
vt 0.683055 0.576688
vt 0.684199 0.577162
vt 0.684998 0.574744
vt 0.685472 0.575888
vt 0.687747 0.574744
vt 0.687273 0.575888
vt 0.689690 0.576687
vt 0.688546 0.577161
vt 0.689690 0.579436
vt 0.688546 0.578962
vt 0.689690 0.576017
vt 0.690963 0.574744
vt 0.692764 0.574744
vt 0.694037 0.576018
vt 0.694037 0.577818
vt 0.692764 0.579092
vt 0.690963 0.579091
vt 0.689690 0.577817
vt 0.696238 0.593010
vt 0.696238 0.594674
vt 0.693210 0.594674
vt 0.693210 0.593010
vt 0.691173 0.568435
vt 0.691061 0.566753
vt 0.694042 0.566753
vt 0.694154 0.568435
vt 0.691045 0.570080
vt 0.694026 0.570080
vt 0.693210 0.591347
vt 0.693210 0.589683
vt 0.696238 0.589683
vt 0.696238 0.591347
vt 0.694042 0.570080
vt 0.691061 0.570080
vt 0.696238 0.591347
vt 0.693210 0.591347
vt 0.693210 0.588019
vt 0.696238 0.588019
vt 0.674243 0.654717
vt 0.674243 0.646072
vt 0.677033 0.646024
vt 0.677033 0.654670
vt 0.664896 0.566784
vt 0.664896 0.575430
vt 0.661838 0.575399
vt 0.661838 0.566753
vt 0.658780 0.575430
vt 0.658780 0.566784
vt 0.683055 0.566773
vt 0.683055 0.575418
vt 0.679823 0.575399
vt 0.679823 0.566753
vt 0.677033 0.575446
vt 0.677033 0.566801
vt 0.671011 0.566821
vt 0.671011 0.575457
vt 0.667953 0.575389
vt 0.667953 0.566753
vt 0.682404 0.581334
vt 0.680021 0.581320
vt 0.664896 0.575457
vt 0.664896 0.566821
vt 0.671011 0.654698
vt 0.671011 0.646053
vt 0.691045 0.572403
vt 0.688705 0.574744
vt 0.685395 0.574744
vt 0.683055 0.572403
vt 0.683055 0.569094
vt 0.685395 0.566753
vt 0.688705 0.566753
vt 0.691045 0.569094
vt 0.674045 0.640150
vt 0.671661 0.640136
vt 0.671661 0.566774
vt 0.674045 0.566788
vt 0.667953 0.581336
vt 0.665698 0.581386
vt 0.664093 0.581341
vt 0.661838 0.581319
vt 0.677963 0.581355
vt 0.676103 0.640115
vt 0.659583 0.581341
vt 0.670209 0.581386
vt 0.693851 0.581381
vt 0.695577 0.583107
vt 0.695577 0.585548
vt 0.693851 0.587274
vt 0.691410 0.587274
vt 0.689683 0.585548
vt 0.689683 0.583107
vt 0.691410 0.581381
vt 0.670209 0.654668
vt 0.667953 0.654618
vt 0.682404 0.654696
vt 0.680021 0.654682
vt 0.664093 0.654708
vt 0.661838 0.654685
vt 0.665698 0.654668
vt 0.677963 0.654717
vt 0.659583 0.654708
vt 0.676103 0.566753
vn 0.0000 -0.3827 -0.9239
vn 0.0000 -0.9239 -0.3827
vn 0.0000 -0.9239 0.3827
vn 0.0000 -0.3827 0.9239
vn -0.0000 0.3827 0.9239
vn -0.0000 0.9239 0.3827
vn -0.0000 0.9239 -0.3827
vn -0.0000 0.3827 -0.9239
vn -1.0000 -0.0000 0.0000
vn 1.0000 -0.0000 -0.0000
vn 0.3827 -0.0000 -0.9239
vn 0.9239 -0.0000 -0.3827
vn 0.9239 -0.0000 0.3827
vn 0.3827 0.0000 0.9239
vn -0.3827 0.0000 0.9239
vn -0.9239 0.0000 0.3827
vn 0.3768 0.1751 0.9096
vn -0.9239 0.0000 -0.3827
vn -0.3827 0.0000 -0.9239
vn 0.0000 -1.0000 -0.0000
vn -0.9096 0.1751 -0.3768
vn 0.9096 0.1751 -0.3768
vn -0.3768 0.1751 0.9096
vn -0.3768 0.1751 -0.9096
vn 0.3768 0.1751 -0.9096
vn 0.9096 0.1751 0.3768
vn -0.9096 0.1751 0.3768
vn -0.0000 1.0000 0.0000
usemtl Material.076
s off
f 1/1/1 2/2/1 4/3/1 3/4/1
f 3/5/2 4/6/2 6/7/2 5/8/2
f 5/8/3 6/7/3 8/9/3 7/10/3
f 7/11/4 8/12/4 10/13/4 9/14/4
f 9/14/5 10/13/5 12/15/5 11/16/5
f 11/17/6 12/18/6 14/19/6 13/20/6
f 22/21/4 23/22/4 32/23/4 31/24/4
f 13/20/7 14/19/7 16/25/7 15/26/7
f 15/26/8 16/27/8 2/2/8 1/1/8
f 1/28/9 3/29/9 5/30/9 7/31/9 9/32/9 11/33/9 13/34/9 15/35/9
f 4/36/10 2/37/10 18/38/10 17/39/10
f 2/37/10 16/40/10 19/41/10 18/38/10
f 16/40/10 14/42/10 20/43/10 19/41/10
f 14/42/10 12/44/10 21/45/10 20/43/10
f 12/44/10 10/46/10 22/47/10 21/45/10
f 10/46/10 8/48/10 23/49/10 22/47/10
f 8/48/10 6/50/10 24/51/10 23/49/10
f 6/50/10 4/36/10 17/39/10 24/51/10
f 25/52/10 26/53/10 28/54/10 29/55/10 30/56/10 31/57/10 32/58/10 27/59/10
f 20/60/6 21/61/6 30/62/6 29/63/6
f 18/64/8 19/65/8 28/66/8 26/67/8
f 17/68/1 18/64/1 26/67/1 25/69/1
f 23/70/3 24/71/3 27/72/3 32/73/3
f 21/74/5 22/21/5 31/24/5 30/75/5
f 19/76/7 20/60/7 29/63/7 28/77/7
f 24/71/2 17/78/2 25/79/2 27/72/2
f 33/80/11 34/81/11 36/82/11 35/83/11
f 35/84/12 36/85/12 38/86/12 37/87/12
f 37/87/13 38/86/13 40/88/13 39/89/13
f 39/90/14 40/91/14 42/92/14 41/93/14
f 41/93/15 42/92/15 44/94/15 43/95/15
f 43/96/16 44/97/16 46/98/16 45/99/16
f 42/92/17 40/91/17 52/100/17 53/101/17
f 45/99/18 46/98/18 48/102/18 47/103/18
f 47/104/19 48/105/19 34/81/19 33/80/19
f 33/106/20 35/107/20 37/108/20 39/109/20 41/110/20 43/111/20 45/112/20 47/113/20
f 50/114/19 56/115/19 64/116/19 58/117/19
f 48/102/21 46/98/21 55/118/21 56/119/21
f 38/86/22 36/85/22 49/120/22 51/121/22
f 44/94/23 42/92/23 53/101/23 54/122/23
f 34/81/24 48/105/24 56/115/24 50/114/24
f 36/82/25 34/81/25 50/114/25 49/123/25
f 40/88/26 38/86/26 51/121/26 52/124/26
f 46/98/27 44/97/27 54/125/27 55/118/27
f 57/126/28 58/127/28 64/128/28 63/129/28 62/130/28 61/131/28 60/132/28 59/133/28
f 55/118/16 54/125/16 62/134/16 63/135/16
f 53/101/14 52/100/14 60/136/14 61/137/14
f 51/121/12 49/120/12 57/138/12 59/139/12
f 56/119/18 55/118/18 63/135/18 64/140/18
f 54/122/15 53/101/15 61/137/15 62/141/15
f 52/124/13 51/121/13 59/139/13 60/142/13
f 49/123/11 50/114/11 58/117/11 57/143/11
