# Blender v2.92.0 OBJ File: 'airShipStuff.blend'
# www.blender.org
mtllib Island1.mtl
o Plane
v -9.980728 -3.772143 -0.430851
v 14.494685 -6.145160 6.736441
v 7.487350 -12.103413 9.755108
v -5.632827 -21.253448 -5.161524
v 0.859406 -14.846838 8.592797
v 6.262874 -17.340204 4.362067
v 4.740133 -20.181757 1.116890
v -16.831711 -4.908375 -10.349689
v -12.126219 -4.247717 -14.170677
v -6.699487 -5.226802 14.253330
v -8.385494 -4.140715 11.715668
v -3.385159 -4.396112 12.435549
v -2.508379 -4.162938 2.238994
v 0.139840 -4.409039 6.622102
v 3.248821 -4.834813 8.096433
v 5.026987 -4.855711 -1.304106
v 7.651163 -4.672798 -0.316630
v 15.432013 -6.284797 3.478684
v 14.835253 -5.265599 -0.705855
v 15.827251 -5.807611 0.193183
v -17.789734 -5.016500 -7.210258
v -16.524069 -3.984290 1.486882
v -16.001627 -3.716820 -6.255402
v -14.491186 -4.798920 7.343181
v -14.937534 -3.676710 3.462509
v -11.941752 -3.229044 -4.301668
v -6.735671 -3.277021 -7.455877
v -7.061328 -4.679474 -15.330782
v -8.032270 -4.198570 -2.639433
v -4.874109 -4.664618 8.881082
v -3.259720 -4.471819 -14.796473
v -1.939784 -5.590288 14.489817
v -2.921024 -4.236791 -8.458461
v -1.233281 -4.852803 -3.745612
v 1.494065 -4.351903 -14.655370
v 3.962028 -4.266707 -4.778547
v 8.427912 -4.942459 12.793866
v 7.650448 -5.519320 5.530666
v 8.332450 -5.463313 9.486226
v 14.363584 -4.552155 -4.279783
v 8.076733 -13.737047 -5.506432
v 11.745436 -11.694014 4.684615
v 10.239774 -14.338903 -0.371511
v 1.620503 -10.419279 -12.536547
v 2.709686 -13.842135 9.140433
v 4.094124 -21.136879 -1.734713
v -8.689571 -15.227452 6.718810
v 0.784259 -15.417889 -9.091080
v -9.540353 -15.321671 4.330525
v -12.555738 -14.173279 -5.946073
v 3.104084 -20.775063 4.315464
v 3.341964 -14.237164 -9.651302
v -8.734884 -12.874434 -11.314658
v -11.650906 -11.380796 -10.652098
v -1.453566 -14.156498 10.071879
v -12.209129 -9.821457 8.715656
v 8.441048 -4.834124 -9.085814
v -10.030859 -5.085524 13.605124
v 6.255892 -5.208796 -13.129532
v 14.274324 -5.940153 9.242553
v 1.046874 -5.317667 13.878422
v 11.087998 -12.566408 -3.402368
v -5.820022 -13.312018 10.879210
v 10.171019 -12.471773 7.637403
v -12.604908 -5.185242 11.281210
v -13.746242 -13.051229 -0.357449
v -17.629852 -4.326682 -0.625134
v -6.890418 -20.189945 -2.891733
v -5.078105 -24.207378 4.051626
v -7.433674 -14.471480 9.240156
v 0.178186 -20.332645 -4.938325
v 2.133058 -22.191296 -3.112279
v -6.522147 -20.606005 0.229788
v -11.697538 -13.974201 2.192621
v -0.453953 -22.880465 4.295841
v -6.916584 -3.457482 1.237633
v 3.174962 -4.811398 11.762446
v 7.612515 -4.343715 -11.494015
v 11.509973 -4.767151 -7.434175
v 5.030600 -14.959120 -6.312721
v 0.988619 -8.278816 12.235936
v 13.249016 -8.272989 7.394589
v -6.408920 -7.898079 13.138554
v -11.068855 -6.937389 -13.280216
v -1.826094 -7.593278 13.456794
v -16.900471 -6.783531 -5.703160
v -13.280655 -7.463155 8.071218
v 8.337650 -7.360879 -8.069943
v -3.503019 -7.031974 -14.185545
v -16.881943 -6.604662 -6.990996
v -15.846387 -7.043314 -9.334950
v 0.247130 -8.144691 12.660933
v -11.386997 -7.372304 10.800508
v 2.986708 -8.465300 10.701561
v -12.454809 -6.943521 10.308227
v -1.595230 -6.500310 -14.025683
v 11.990205 -8.019587 -4.742861
v -9.130316 -8.339993 12.091623
v 11.369009 -8.578472 9.461964
v -7.729720 -7.952411 -13.726806
v 14.440418 -7.925110 0.053023
v 6.788772 -7.730491 -9.840957
v 1.554324 -7.243525 -13.645571
v -14.248900 -5.865356 3.192605
v -11.842437 -7.140857 10.392731
v 7.556010 -7.461638 -8.366176
v 6.614441 -7.764891 11.635221
v 13.420774 -8.021438 -1.723709
v -15.886522 -7.161799 0.202920
v -14.949589 -7.259725 -10.459549
v -11.968523 -6.614282 -13.003306
v -16.233528 -7.463529 -0.528890
v 13.573847 -8.003703 6.049199
v 14.549303 -7.579972 3.767431
v 13.489689 -7.922277 -0.607959
v 12.669323 -8.494986 8.614701
v 10.401115 -7.664218 -6.811559
v -8.420396 -8.231802 12.562580
v 5.402888 -7.851700 -12.111339
v 8.110118 -7.361975 11.767141
v -15.270724 -6.578452 1.670147
v 12.878525 -8.185591 -3.881988
v -13.760744 -7.197939 5.996488
v -2.788970 -7.280180 13.699638
v -13.228021 -7.483715 6.574526
v 6.066233 -7.925937 -10.826805
v 2.392937 -8.200634 10.691972
v 14.467155 -7.769011 1.689766
vt 0.122124 0.601815
vt 0.120496 0.615506
vt 0.115026 0.611139
vt 0.049797 0.678774
vt 0.061993 0.669396
vt 0.062040 0.677166
vt 0.107306 0.586590
vt 0.101273 0.586623
vt 0.114196 0.575238
vt 0.125839 0.579444
vt 0.151058 0.599226
vt 0.141226 0.606745
vt 0.146259 0.583032
vt 0.044606 0.651114
vt 0.043125 0.661783
vt 0.025737 0.664826
vt 0.106945 0.646510
vt 0.113547 0.636615
vt 0.127520 0.648414
vt 0.112316 0.626759
vt 0.131989 0.645099
vt 0.023598 0.673093
vt 0.023148 0.683209
vt 0.040614 0.646064
vt 0.030488 0.656753
vt 0.140259 0.590493
vt 0.130362 0.602275
vt 0.139365 0.580846
vt 0.110953 0.664392
vt 0.131989 0.664806
vt 0.109143 0.669835
vt 0.079715 0.658333
vt 0.085267 0.654465
vt 0.080317 0.676022
vt 0.136487 0.615068
vt 0.133860 0.614293
vt 0.134801 0.604252
vt 0.100131 0.597185
vt 0.126634 0.654971
vt 0.138719 0.565334
vt 0.154478 0.575535
vt 0.138732 0.573056
vt 0.112793 0.568640
vt 0.151947 0.579961
vt 0.111858 0.659195
vt 0.108842 0.653144
vt 0.048848 0.641563
vt 0.054823 0.647371
vt 0.041652 0.666109
vt 0.046872 0.682827
vt 0.157865 0.602591
vt 0.045428 0.670333
vt 0.096830 0.664107
vt 0.092041 0.661265
vt 0.093067 0.658346
vt 0.070182 0.656844
vt 0.077214 0.658540
vt 0.078505 0.675964
vt 0.161841 0.596578
vt 0.126436 0.606351
vt 0.137076 0.649795
vt 0.142041 0.645259
vt 0.142041 0.658446
vt 0.139790 0.658895
vt 0.056985 0.662316
vt 0.057990 0.663717
vt 0.092438 0.656771
vt 0.047561 0.638971
vt 0.130362 0.565334
vt 0.091867 0.667764
vt 0.094824 0.672051
vt 0.133570 0.658582
vt 0.137076 0.645259
vt 0.137076 0.659340
vt 0.121974 0.616613
vt 0.128936 0.615950
vt 0.143845 0.665724
vt 0.142041 0.659026
vt 0.144947 0.645259
vt 0.144947 0.665034
vt 0.094791 0.642487
vt 0.094102 0.644024
vt 0.139377 0.615601
vt 0.090446 0.665981
vt 0.102132 0.607986
vt 0.106136 0.609079
vt 0.054674 0.650638
vt 0.060738 0.667602
vt 0.061508 0.683077
vt 0.061827 0.681513
vt 0.138404 0.630599
vt 0.138404 0.645259
vt 0.134061 0.632301
vt 0.097029 0.603448
vt 0.072359 0.642536
vt 0.069542 0.642240
vt 0.144288 0.616939
vt 0.148575 0.616034
vt 0.151952 0.615352
vt 0.153294 0.614102
vt 0.155596 0.613591
vt 0.099927 0.625143
vt 0.096733 0.628984
vt 0.090857 0.597365
vt 0.092688 0.647067
vt 0.101831 0.623543
vt 0.091372 0.650411
vt 0.085267 0.640890
vt 0.080424 0.640922
vt 0.096226 0.631589
vt 0.078819 0.641466
vt 0.078170 0.641850
vt 0.074749 0.642111
vt 0.160038 0.612177
vt 0.139109 0.636373
vt 0.141243 0.621708
vt 0.141243 0.635862
vt 0.054213 0.658510
vt 0.091298 0.666593
vt 0.054961 0.659603
vt 0.249620 0.818470
vt 0.253711 0.819792
vt 0.239790 0.823202
vt 0.237800 0.820322
vt 0.232387 0.823065
vt 0.282571 0.888539
vt 0.287559 0.890415
vt 0.286401 0.893359
vt 0.282250 0.892710
vt 0.282226 0.900087
vt 0.286989 0.902913
vt 0.285585 0.907064
vt 0.282152 0.908072
vt 0.244479 0.829951
vt 0.265133 0.821673
vt 0.272938 0.823875
vt 0.274799 0.831368
vt 0.257712 0.822035
vt 0.256123 0.837354
vt 0.226778 0.832825
vt 0.252221 0.832320
vt 0.248922 0.836601
vt 0.240393 0.840451
vt 0.270873 0.838704
vt 0.280164 0.833692
vt 0.277712 0.840267
vt 0.249177 0.849384
vt 0.226346 0.842452
vt 0.239978 0.847779
vt 0.228447 0.849199
vt 0.282152 0.842313
vt 0.259464 0.845109
vt 0.268280 0.848550
vt 0.281910 0.847937
vt 0.278623 0.852463
vt 0.248786 0.859151
vt 0.255543 0.860016
vt 0.272012 0.853770
vt 0.230151 0.857813
vt 0.237774 0.867955
vt 0.234587 0.866053
vt 0.268886 0.862652
vt 0.258105 0.864473
vt 0.282152 0.861716
vt 0.276249 0.862628
vt 0.242504 0.868724
vt 0.273336 0.874777
vt 0.277760 0.873564
vt 0.246433 0.873786
vt 0.275074 0.880283
vt 0.281026 0.879278
vt 0.281026 0.884978
vt 0.276763 0.885007
vt 0.252983 0.877968
vt 0.259764 0.877726
vt 0.267758 0.877535
vt 0.261822 0.879278
vt 0.333828 0.866721
vt 0.332979 0.863896
vt 0.336753 0.863098
vt 0.339986 0.867184
vt 0.260324 0.898530
vt 0.254350 0.901450
vt 0.253691 0.900488
vt 0.303067 0.864247
vt 0.299396 0.856976
vt 0.307221 0.858790
vt 0.263547 0.907758
vt 0.259435 0.908491
vt 0.257016 0.905072
vt 0.262216 0.902333
vt 0.287339 0.898957
vt 0.333560 0.910440
vt 0.332590 0.906838
vt 0.333560 0.906231
vt 0.286336 0.907603
vt 0.286836 0.908634
vt 0.266951 0.880845
vt 0.270752 0.879278
vt 0.269664 0.886427
vt 0.267184 0.886166
vt 0.271768 0.886053
vt 0.258818 0.889002
vt 0.254097 0.893559
vt 0.254229 0.890683
vt 0.265899 0.916211
vt 0.266951 0.922229
vt 0.260393 0.920736
vt 0.260581 0.916910
vt 0.282152 0.850580
vt 0.285947 0.846666
vt 0.291380 0.852020
vt 0.288894 0.857039
vt 0.320721 0.867846
vt 0.311387 0.868094
vt 0.313338 0.863609
vt 0.319466 0.863025
vt 0.277924 0.827819
vt 0.295872 0.856015
vt 0.296784 0.860936
vt 0.322153 0.871976
vt 0.327800 0.868094
vt 0.327800 0.875920
vt 0.323977 0.877418
vt 0.341722 0.866820
vt 0.342933 0.860948
vt 0.346844 0.859704
vt 0.348430 0.866703
vt 0.322153 0.905839
vt 0.323545 0.900552
vt 0.326632 0.901219
vt 0.326632 0.907539
vt 0.290342 0.868094
vt 0.293931 0.871117
vt 0.291119 0.874498
vt 0.288013 0.873088
vt 0.275074 0.880674
vt 0.274779 0.885823
vt 0.327837 0.866644
vt 0.323269 0.867244
vt 0.326113 0.862248
vt 0.328657 0.862717
vt 0.295607 0.869709
vt 0.327800 0.885264
vt 0.328420 0.881002
vt 0.330299 0.880552
vt 0.330299 0.885710
vt 0.275350 0.885486
vt 0.312037 0.862634
vt 0.289439 0.912408
vt 0.282749 0.913443
vt 0.340907 0.861398
vt 0.290673 0.876791
vt 0.289410 0.886384
vt 0.283404 0.884396
vt 0.260113 0.922113
vt 0.288804 0.887737
vt 0.339726 0.862498
vt 0.260540 0.910070
vt 0.256132 0.903839
vt 0.247836 0.883289
vt 0.251764 0.879278
vt 0.248969 0.885571
vt 0.331002 0.900432
vt 0.331002 0.907471
vt 0.329020 0.900827
vt 0.287892 0.900343
vt 0.323801 0.861566
vn -0.2371 -0.3881 -0.8906
vn -0.0754 -0.3910 0.9173
vn 0.1357 -0.6491 -0.7485
vn 0.0337 -0.5834 -0.8115
vn 0.7382 -0.6626 0.1268
vn 0.1000 -0.5645 0.8193
vn -0.7240 -0.6897 -0.0157
vn -0.5947 -0.6360 -0.4917
vn 0.1054 -0.5229 0.8459
vn 0.3765 -0.7059 0.5999
vn 0.6568 -0.6100 0.4432
vn -0.7400 -0.4469 0.5026
vn 0.3100 -0.5312 0.7885
vn 0.4036 -0.5006 -0.7659
vn 0.7838 -0.5589 0.2707
vn 0.0388 -0.5715 -0.8197
vn -0.6670 -0.7448 -0.0206
vn 0.2755 -0.9613 0.0068
vn 0.5064 -0.8568 0.0972
vn 0.1284 -0.6230 -0.7716
vn 0.3292 -0.9153 0.2320
vn -0.8433 -0.5334 0.0667
vn 0.4249 -0.4003 0.8119
vn -0.0054 -0.4710 0.8821
vn 0.0874 -0.5752 -0.8133
vn -0.6955 -0.6396 0.3273
vn -0.4098 -0.5042 0.7601
vn -0.8434 -0.4335 0.3175
vn 0.7478 -0.6427 -0.1666
vn 0.7344 -0.6760 0.0600
vn -0.7225 -0.6914 -0.0069
vn 0.0486 -0.5475 0.8354
vn 0.6822 -0.6781 0.2736
vn -0.8639 -0.4946 0.0946
vn -0.7099 -0.7013 -0.0647
vn 0.3639 -0.4849 0.7953
vn 0.6987 -0.6894 0.1910
vn 0.7243 -0.5002 -0.4745
vn 0.6027 -0.5953 -0.5314
vn -0.4640 -0.6295 -0.6232
vn 0.6236 -0.3323 -0.7076
vn 0.3797 -0.4544 0.8058
vn -0.7499 -0.4824 0.4526
vn 0.4980 -0.4889 0.7162
vn -0.8867 -0.4530 -0.0919
vn -0.0350 -0.9523 -0.3032
vn 0.1316 -0.6492 -0.7491
vn 0.1014 -0.6409 -0.7609
vn 0.5030 -0.8587 0.0980
vn 0.6515 -0.5923 -0.4741
vn 0.7125 -0.6585 0.2423
vn -0.5815 -0.4698 0.6642
vn 0.7000 -0.3569 0.6186
vn -0.5431 -0.4003 -0.7381
vn -0.2707 -0.4837 0.8323
vn -0.7899 -0.3359 0.5130
vn -0.4025 -0.4264 -0.8101
vn 0.8724 -0.4750 0.1156
vn -0.8738 -0.2904 0.3900
vn 0.1480 -0.2428 -0.9587
vn 0.0249 -0.3933 0.9191
vn 0.2185 -0.4375 0.8723
vn -0.4347 -0.4759 0.7646
vn 0.6945 -0.3951 -0.6013
vn 0.0363 -0.3288 -0.9437
vn 0.7945 -0.4239 -0.4348
vn -0.0017 -0.4398 -0.8981
vn 0.8281 -0.5603 0.0182
vn 0.8347 -0.5493 0.0387
vn 0.8918 -0.4522 -0.0149
vn -0.8201 -0.5057 -0.2677
vn 0.3608 -0.3913 -0.8466
vn -0.8036 -0.3545 0.4782
vn 0.8241 -0.5040 0.2587
vn -0.7045 -0.5426 -0.4574
vn -0.1915 -0.3957 0.8982
vn -0.9529 -0.3025 0.0221
vn 0.4500 -0.3489 -0.8220
vn -0.8603 -0.5031 -0.0823
vn 0.3709 -0.3594 -0.8563
vn 0.8453 -0.3859 -0.3694
vn -0.7193 -0.3034 0.6249
vn 0.8999 -0.3893 -0.1965
vn 0.7692 -0.4215 -0.4802
vn 0.0764 -0.4536 0.8879
vn -0.9124 -0.4042 0.0645
vn 0.5432 -0.3040 -0.7826
vn -0.1922 -0.2645 0.9451
vn -0.7043 -0.5024 0.5015
vn -0.1357 -0.2698 0.9533
vn -0.3157 0.9488 0.0115
vn -0.5346 0.8343 -0.1344
vn -0.1313 0.9910 0.0254
vn -0.2555 0.9426 0.2148
vn -0.3099 0.9032 0.2968
vn -0.0572 0.9924 -0.1085
vn 0.0211 0.9588 -0.2833
vn -0.0096 0.9979 0.0637
vn -0.2147 0.9719 -0.0963
vn 0.2334 0.9722 0.0182
vn 0.1442 0.9640 0.2233
vn 0.0016 0.9821 -0.1882
vn 0.2209 0.9707 0.0943
vn -0.0107 0.9167 0.3994
vn 0.1288 0.9670 0.2197
vn -0.0497 0.9982 -0.0344
vn 0.0431 0.8766 0.4792
vn 0.1744 0.9817 -0.0760
vn -0.0201 0.9975 0.0682
vn -0.0994 0.9857 0.1359
vn 0.0464 0.9985 0.0280
vn 0.2367 0.9673 0.0914
vn 0.1256 0.9918 0.0216
vn 0.3300 0.6934 -0.6405
vn 0.1707 0.9849 0.0301
vn -0.1220 0.9823 0.1422
vn 0.1636 0.9738 -0.1581
vn 0.0261 0.9996 -0.0059
vn 0.2339 0.9653 0.1161
vn 0.1325 0.9905 -0.0369
vn 0.0767 0.9943 -0.0746
vn 0.0726 0.9849 -0.1572
vn -0.0189 0.9998 -0.0055
vn -0.0494 0.9974 -0.0534
vn -0.0420 0.9987 -0.0300
vn 0.3449 0.9221 0.1754
vn 0.2561 -0.3647 -0.8952
vn -0.5607 0.8248 -0.0728
vn 0.0075 0.9908 0.1352
vn -0.0567 0.9949 -0.0835
vn -0.0524 0.9934 -0.1016
vn -0.2566 0.9352 0.2441
vn -0.0426 0.9080 0.4169
vn 0.0433 0.9833 -0.1769
vn 0.0654 0.9926 -0.1024
vn 0.1953 0.9641 -0.1798
vn 0.0608 0.9770 -0.2042
vn -0.0713 0.9964 -0.0454
vn 0.1301 0.9841 0.1207
vn 0.2527 0.9669 0.0359
vn 0.0211 0.8707 0.4913
vn -0.0241 0.9991 -0.0358
vn 0.1708 0.9801 0.1014
vn -0.1389 0.9800 -0.1426
vn 0.1377 0.9873 0.0797
vn 0.1373 0.9905 -0.0036
vn -0.0222 0.9989 0.0403
vn -0.1276 0.9885 -0.0807
vn 0.2173 0.9712 0.0980
vn 0.0891 0.9857 0.1427
vn 0.0964 0.9949 -0.0307
vn 0.1512 0.9652 0.2135
vn 0.0907 0.9788 0.1834
vn 0.0938 0.9955 -0.0157
vn -0.9074 -0.4194 -0.0261
usemtl Material.001
s off
f 53/1/1 84/2/1 100/3/1
f 63/4/2 124/5/2 83/6/2
f 48/7/3 52/8/3 71/9/3
f 53/1/4 48/7/4 4/10/4
f 43/11/5 42/12/5 7/13/5
f 3/14/6 45/15/6 51/16/6
f 66/17/7 50/18/7 68/19/7
f 54/20/8 4/21/8 50/18/8
f 75/22/9 63/4/9 69/23/9
f 64/24/10 3/14/10 6/25/10
f 6/26/11 3/27/11 51/28/11
f 47/29/12 69/30/12 70/31/12
f 45/15/13 75/22/13 51/16/13
f 80/32/14 41/33/14 72/34/14
f 42/12/15 82/35/15 116/36/15 64/37/15
f 44/38/16 48/7/16 53/1/16
f 73/39/17 68/19/17 4/21/17
f 69/40/18 72/41/18 75/42/18
f 75/42/19 72/41/19 51/28/19
f 4/10/20 71/9/20 72/43/20
f 7/13/21 72/41/21 46/44/21
f 69/30/22 49/45/22 74/46/22 73/39/22
f 3/14/23 99/47/23 120/48/23
f 5/49/24 75/22/24 45/15/24
f 44/38/25 52/8/25 48/7/25
f 66/17/26 73/39/26 74/46/26
f 63/4/27 70/50/27 69/23/27
f 49/45/28 69/30/28 47/29/28
f 43/11/29 46/44/29 62/51/29
f 43/11/30 7/13/30 46/44/30
f 66/17/31 68/19/31 73/39/31
f 55/52/32 63/4/32 75/22/32
f 42/12/33 6/26/33 7/13/33
f 47/29/34 56/53/34 87/54/34 125/55/34 49/45/34
f 50/18/35 4/21/35 68/19/35
f 55/52/36 75/22/36 5/49/36
f 42/12/37 64/37/37 6/26/37
f 52/56/38 80/57/38 72/58/38
f 62/51/39 46/44/39 41/59/39
f 53/1/40 4/10/40 54/60/40
f 62/61/41 41/62/41 97/63/41 122/64/41
f 55/52/42 5/49/42 81/65/42 92/66/42
f 74/46/43 49/45/43 125/55/43 123/67/43
f 3/14/44 64/24/44 116/68/44 99/47/44
f 73/39/45 4/21/45 69/30/45
f 72/43/46 69/69/46 4/10/46
f 71/9/47 4/10/47 48/7/47
f 72/43/48 71/9/48 52/8/48
f 51/28/49 72/41/49 7/13/49
f 46/44/50 72/41/50 41/59/50
f 51/28/51 7/13/51 6/26/51
f 93/70/52 70/31/52 98/71/52
f 81/72/53 5/73/53 127/74/53
f 111/75/54 54/60/54 110/76/54
f 95/77/55 56/78/55 47/79/55 105/80/55
f 112/81/56 66/17/56 74/46/56 109/82/56
f 84/2/57 53/1/57 54/60/57 111/75/57
f 82/35/58 42/12/58 113/83/58
f 87/54/59 56/53/59 95/84/59
f 96/85/60 44/38/60 89/86/60
f 107/87/61 45/15/61 3/14/61 120/48/61
f 85/88/62 55/52/62 92/66/62
f 98/89/63 70/50/63 63/4/63 118/90/63
f 97/91/64 41/92/64 117/93/64
f 103/94/65 44/38/65 96/85/65
f 126/95/66 52/56/66 119/96/66
f 89/86/67 44/38/67 53/1/67 100/3/67
f 114/97/68 42/12/68 128/98/68
f 128/98/69 42/12/69 43/11/69 101/99/69
f 115/100/70 43/11/70 62/51/70 108/101/70
f 91/102/71 50/18/71 90/103/71
f 119/104/72 52/8/72 44/38/72 103/94/72
f 109/82/73 74/46/73 121/105/73
f 113/83/74 42/12/74 114/97/74
f 110/106/75 54/20/75 50/18/75 91/102/75
f 118/90/76 63/4/76 83/6/76
f 104/107/77 74/46/77 123/67/77
f 117/108/78 41/33/78 88/109/78
f 90/103/79 50/18/79 66/17/79 86/110/79
f 88/109/80 41/33/80 80/32/80 106/111/80
f 106/112/81 80/57/81 102/113/81
f 121/105/82 74/46/82 104/107/82
f 108/101/83 62/51/83 122/114/83
f 102/113/84 80/57/84 52/56/84 126/95/84
f 124/5/85 63/4/85 55/52/85 85/88/85
f 86/110/86 66/17/86 112/81/86
f 101/115/87 43/116/87 115/117/87
f 94/118/88 45/15/88 107/87/88
f 105/119/89 47/29/89 70/31/89 93/70/89
f 127/120/90 5/49/90 45/15/90 94/118/90
usemtl Material.002
f 67/121/91 22/122/91 23/123/91
f 21/124/92 23/123/92 8/125/92
f 22/126/82 121/127/82 104/128/82 25/129/82
f 24/130/59 87/131/59 95/132/59 65/133/59
f 22/122/93 26/134/93 23/123/93
f 24/135/94 65/136/94 11/137/94
f 24/135/95 11/137/95 25/138/95
f 22/122/96 25/138/96 76/139/96
f 23/123/97 26/134/97 8/125/97
f 25/138/98 11/137/98 76/139/98
f 8/125/99 26/134/99 9/140/99
f 26/134/100 1/141/100 29/142/100
f 26/134/101 29/142/101 27/143/101
f 1/141/102 76/139/102 29/142/102
f 76/139/103 11/137/103 30/144/103
f 11/137/104 10/145/104 12/146/104
f 29/142/105 34/147/105 27/143/105
f 28/148/106 33/149/106 31/150/106
f 12/146/107 10/145/107 32/151/107
f 76/139/108 13/152/108 34/147/108
f 13/152/109 30/144/109 14/153/109
f 61/154/110 77/155/110 14/153/110
f 13/152/111 14/153/111 36/156/111
f 36/156/112 14/153/112 16/157/112
f 16/157/113 14/153/113 15/158/113
f 35/159/114 78/160/114 59/161/114
f 16/157/115 15/158/115 38/162/115
f 16/157/116 38/162/116 17/163/116
f 15/158/117 37/164/117 39/165/117
f 77/155/118 37/164/118 15/158/118
f 78/160/119 36/156/119 57/166/119
f 15/158/120 39/165/120 38/162/120
f 2/167/121 39/165/121 60/168/121
f 39/165/122 37/164/122 60/168/122
f 57/166/123 16/157/123 79/169/123
f 57/170/78 79/171/78 117/172/78 88/173/78
f 16/157/124 17/163/124 40/174/124
f 79/169/125 16/157/125 40/174/125
f 19/175/126 18/176/126 20/177/126
f 18/178/68 114/179/68 128/180/68 20/181/68
f 77/182/90 127/183/90 94/184/90
f 28/185/67 89/186/67 100/187/67
f 32/188/62 85/189/62 92/190/62 61/191/62
f 25/129/77 104/128/77 123/192/77 24/130/77
f 65/193/55 95/194/55 105/195/55
f 65/133/89 105/196/89 93/197/89
f 59/198/66 78/199/66 126/200/66 119/201/66
f 78/199/84 102/202/84 126/200/84
f 37/203/61 107/204/61 120/205/61
f 10/206/76 58/207/76 118/208/76 83/209/76
f 59/210/127 119/211/127 103/212/127 35/213/127
f 67/121/128 23/123/128 21/124/128
f 8/214/54 9/215/54 111/216/54 110/217/54
f 22/122/129 1/141/129 26/134/129
f 22/122/130 76/139/130 1/141/130
f 26/134/131 27/143/131 9/140/131
f 65/136/132 58/218/132 11/137/132
f 58/218/133 10/145/133 11/137/133
f 9/140/134 27/143/134 28/148/134
f 11/137/135 12/146/135 30/144/135
f 28/148/136 27/143/136 33/149/136
f 76/139/137 34/147/137 29/142/137
f 30/144/138 12/146/138 14/153/138
f 76/139/139 30/144/139 13/152/139
f 27/143/140 34/147/140 33/149/140
f 12/146/141 32/151/141 61/154/141
f 31/150/142 33/149/142 35/159/142
f 61/154/143 14/153/143 12/146/143
f 13/152/144 36/156/144 34/147/144
f 35/213/65 103/212/65 96/219/65 31/220/65
f 33/149/145 34/147/145 35/159/145
f 14/153/146 77/155/146 15/158/146
f 35/159/147 34/147/147 78/160/147
f 34/147/148 36/156/148 78/160/148
f 77/182/88 94/184/88 107/204/88 37/203/88
f 36/156/149 16/157/149 57/166/149
f 38/162/150 19/175/150 17/163/150
f 39/165/151 2/167/151 38/162/151
f 38/162/152 18/176/152 19/175/152
f 17/163/153 19/175/153 40/174/153
f 2/167/154 18/176/154 38/162/154
f 79/221/64 40/222/64 97/223/64 117/224/64
f 19/225/83 108/226/83 122/227/83 40/228/83
f 61/229/53 81/230/53 127/231/53 77/232/53
f 8/233/71 91/234/71 90/235/71 21/236/71
f 57/237/81 106/238/81 102/202/81 78/199/81
f 2/239/58 60/240/58 82/241/58 113/242/58
f 8/233/75 110/243/75 91/234/75
f 20/244/87 101/245/87 115/246/87 19/247/87
f 57/170/80 88/173/80 106/248/80
f 9/215/57 84/249/57 111/216/57
f 2/239/74 113/242/74 114/179/74 18/178/74
f 65/133/52 93/197/52 98/250/52 58/251/52
f 19/225/70 115/252/70 108/226/70
f 21/236/86 86/253/86 112/254/86 67/255/86
f 58/207/63 98/256/63 118/208/63
f 21/236/79 90/235/79 86/253/79
f 67/255/56 112/254/56 109/257/56
f 22/126/73 67/255/73 109/257/73 121/127/73
f 31/220/60 96/219/60 89/186/60 28/185/60
f 20/181/69 128/180/69 101/258/69
f 32/188/85 124/259/85 85/189/85
f 84/249/1 9/215/1 28/185/1 100/187/1
f 81/260/42 61/191/42 92/190/42
f 116/261/44 60/262/44 99/263/44
f 97/264/41 40/265/41 122/266/41
f 125/267/43 24/130/43 123/192/43
f 87/131/155 24/130/155 125/267/155
f 99/263/23 60/262/23 37/203/23 120/205/23
f 124/259/2 32/188/2 10/206/2 83/209/2
f 82/241/15 60/240/15 116/268/15
